SplineFontDB: 3.0
FontName: LinLibertineOZ
FullName: Linux Libertine O Semibold
FamilyName: Linux Libertine O
Weight: Semibold
Copyright: Linux Libertine by Philipp H. Poll,\nOpen Font under Terms of following Free Software Licenses:\nGPL (General Public License) with font-exception and OFL (Open Font License).\nCreated with FontForge (http://fontforge.sf.net)\nSept 2003, 2004, 2005, 2006, 2007, 2008, 2009, 2010, 2011,2012
UComments: "2003-08-29: Created.+AAoA-2004-07-25: v(1.0) release candidate+AAoA-2005-12-28: v(1.1.0) stable+AAoA-2006-01-01: v(2.0.0) stable+AAoA-2006-09-05: v(2.2.0) stable+AAoA-2006-12-04: v(2.3.0) stable+AAoA-2007-03-11: v(2.4.0) stable+AAoA-2007-06-11: v(2.6.0) stable+AAoA-2007-12-00: v(2.7.0) stable+AAoA-2008-06-00: v(2.8.14) stable+AAoA" 
Version: 5.1.2
ItalicAngle: 0
UnderlinePosition: -98
UnderlineWidth: 40
Ascent: 754
Descent: 246
LayerCount: 2
Layer: 0 0 "Back"  1
Layer: 1 0 "Fore"  0
XUID: [1021 993 1524925707 4740893]
FSType: 0
OS2Version: 3
OS2_WeightWidthSlopeOnly: 0
OS2_UseTypoMetrics: 0
CreationTime: 1156455862
ModificationTime: 1341180387
PfmFamily: 17
TTFWeight: 600
TTFWidth: 5
LineGap: 0
VLineGap: 0
OS2TypoAscent: 894
OS2TypoAOffset: 0
OS2TypoDescent: -246
OS2TypoDOffset: 0
OS2TypoLinegap: 0
OS2WinAscent: 894
OS2WinAOffset: 0
OS2WinDescent: 246
OS2WinDOffset: 0
HheadAscent: 894
HheadAOffset: 0
HheadDescent: -246
HheadDOffset: 0
OS2FamilyClass: 261
OS2Vendor: 'PfEd'
Lookup: 3 0 0 "'aalt' Alle Alternativen zeigen"  {"LinLibertine-'aalt' Alle Alternativen zeigen 1"  } ['aalt' ('DFLT' <'dflt' > 'cyrl' <'dflt' > 'grek' <'dflt' > 'latn' <'AZE ' 'CRT ' 'DEU ' 'MOL ' 'ROM ' 'TRK ' 'dflt' > ) ]
Lookup: 1 0 0 "'locl' Localized Forms Romaenisch"  {"'locl' Localized Forms Romaenisch 1"  } ['locl' ('latn' <'MOL ' 'ROM ' > ) ]
Lookup: 1 0 0 "'smcp' Gemeine nach Kapitaelchen i > i.sc"  {"'smcp' Gemeine nach Kapitaelchen i > i.sc 1"  } ['smcp' ('DFLT' <'dflt' > 'cyrl' <'dflt' > 'grek' <'dflt' > 'latn' <'DEU ' 'MOL ' 'ROM ' 'dflt' > ) ]

StartChar: exclam
Encoding: 33 33 0
Width: 244
Flags: HW
HStem: -10 111<76.9218 165.078> 638 20G<106.5 140.5>
VStem: 50 144<431.981 638.446> 65 112<1.84669 89.0782> 92 58<188.926 423.897>
LayerCount: 2
Fore
SplineSet
122 658 m 0
 159 658 194 634 194 583 c 0
 194 548 186 510 180 477 c 0
 163.7 379.1 151 279 150 230 c 0
 149.6 211 145.1 188 122 188 c 0
 95.9 188 93 208 92 242 c 0
 90.7 289.7 76.8 409.6 64 480 c 0
 57 515 50 544 50 583 c 0
 50 639 91 658 122 658 c 0
65 45 m 0
 65 76 90 101 121 101 c 0
 152 101 177 76 177 45 c 0
 177 15 152 -10 121 -10 c 0
 90 -10 65 15 65 45 c 0
EndSplineSet
EndChar

StartChar: quotedbl
Encoding: 34 34 1
Width: 366
Flags: HW
HStem: 421 224
VStem: 63 110<498.128 631.224> 194 110<498.128 631.224>
LayerCount: 2
Fore
SplineSet
110 421 m 1
 95 425 l 1
 95 425 63 585 63 591 c 0
 63 614 85 645 128 645 c 0
 170 645 173 626 173 608 c 0
 173 593 136 427 136 427 c 1
 110 421 l 1
241 421 m 1
 226 425 l 1
 226 425 194 585 194 591 c 0
 194 614 216 645 259 645 c 0
 301 645 304 626 304 608 c 0
 304 593 267 427 267 427 c 1
 241 421 l 1
EndSplineSet
EndChar

StartChar: numbersign
Encoding: 35 35 2
Width: 463
Flags: HMW
HStem: 181 56<25 105 185 248 324 413> 337 56<50 130 209 272 349 437>
DStem2: 79 13 149 13 0.157407 0.987534<11.0677 170.025 238.005 328.652 396.633 555.108> 221 13 289 13 0.155692 0.987806<10.5669 170.026 237.429 328.654 396.057 555.034>
LayerCount: 2
Fore
SplineSet
256 237 m 1
 272 337 l 1
 202 337 l 1
 196 302 191 272 185 237 c 1
 256 237 l 1
340 337 m 1
 324 237 l 1
 421 237 l 1
 413 181 l 1
 316 181 l 1
 307 125 298 67 289 13 c 1
 221 13 l 1
 248 181 l 1
 177 181 l 1
 167 125 159 67 149 13 c 1
 79 13 l 1
 105 181 l 1
 17 181 l 1
 25 237 l 1
 114 237 l 1
 120 272 125 302 130 337 c 1
 41 337 l 1
 50 394 l 1
 139 394 l 1
 148 448 157 507 166 561 c 1
 237 561 l 1
 209 394 l 1
 281 394 l 1
 290 448 298 507 307 561 c 1
 375 561 l 1
 349 394 l 1
 445 394 l 1
 437 337 l 1
 340 337 l 1
EndSplineSet
EndChar

StartChar: dollar
Encoding: 36 36 3
Width: 438
VWidth: 999
Flags: HW
HStem: -12 37<149.499 273.822> -1 21G<57 67.5> 537 35<158.733 275.685>
VStem: 41 44<92.0509 146.477> 42 84<389.052 501.84> 194 40<-81 627> 310 92<66.2433 194.593> 318 49<435 492.733>
LayerCount: 2
Fore
SplineSet
91 10 m 0
 75 10 78 -1 57 -1 c 1
 57 36 49 90 41 146 c 1
 85 149 l 1
 100.5 88.6 129.5 34.9 194 26.2 c 1
 194 258.9 l 1
 129.5 282.5 42 325.6 42 434 c 0
 42 519.2 127.4 563.3 194 570.8 c 1
 194 627 l 1
 234 627 l 1
 234 571.5 l 1
 282.2 569.3 322.3 560.5 347 564 c 1
 350 519 359 470 367 421 c 1
 324 417 l 1
 318 435 l 1
 299.3 499.1 283.8 529.9 234 535.9 c 1
 234 333.1 l 1
 294 314.3 402 256.1 402 156 c 0
 402 78.1 363.2 -3.5 234 -11.4 c 1
 234 -81 l 1
 194 -81 l 1
 194 -11.4 l 1
 140.8 -7.8 109.9 10 91 10 c 0
234 26.8 m 1
 269.1 33 310 56.8 310 127 c 0
 310 178.1 280.7 217 234 242 c 1
 234 26.8 l 1
194 535.3 m 1
 151.7 527.8 126 495.4 126 438 c 0
 126 402.3 160.7 367.7 194 348.8 c 1
 194 535.3 l 1
EndSplineSet
EndChar

StartChar: percent
Encoding: 37 37 4
Width: 637
VWidth: 999
Flags: HW
HStem: -19 33<453.88 513.386> 214 36<488.444 553.315> 297 33<132.255 189.354> 474 45<280.914 457.718> 529 36<164.255 232.725>
VStem: 53 69<333.529 483.072> 240 43<388.136 494.674> 375 68<18.5507 160.828> 562 42<70.2274 208.803>
DStem2: 96 -4 150 -16 0.588938 0.808178<22.1045 620.449 651.051 709.262>
LayerCount: 2
Fore
SplineSet
443 77 m 0
 443 38 458 14 477 14 c 0
 529 14 562 102 562 157 c 0
 562 209 537 214 523 214 c 0
 480 214 443 134 443 77 c 0
375 91 m 0
 375 171 423 250 512 250 c 0
 560 250 604 231 604 159 c 0
 604 60 550 -19 471 -19 c 0
 409 -19 375 26 375 91 c 0
364 519 m 0
 406 519 473 525 514 569 c 1
 561 548 l 1
 150 -16 l 1
 96 -4 l 1
 462 497 l 1
 423 481 384 474 354 474 c 0
 331 474 299 484 280 495 c 1
 282 487 283 482 283 474 c 0
 283 390 231 297 144 297 c 0
 82 297 53 339 53 406 c 0
 53 491 108 565 190 565 c 0
 218 565 247 556 257 544 c 1
 311 519 346 519 364 519 c 0
122 392 m 0
 122 353 137 330 155 330 c 0
 201 330 240 415 240 473 c 0
 240 522 219 529 201 529 c 0
 152 529 122 450 122 392 c 0
EndSplineSet
EndChar

StartChar: parenleft
Encoding: 40 40 5
Width: 315
Flags: HW
HStem: -213 21G<154.5 286.75>
VStem: 36 115<108.014 396.52>
LayerCount: 2
Fore
SplineSet
36 253 m 0
 36 435 139 607 270 720 c 1
 298 686 l 1
 268 651 151 517 151 253 c 0
 151 -11 266 -145 298 -181 c 1
 268 -213 l 1
 41 -17 36 208 36 253 c 0
EndSplineSet
Substitution2: "LinLibertine-'case' Versalformen 1" parenleft.sc
Substitution2: "LinLibertine-'c2sc' Versale nach Kapitaelchen 1" parenleft.sc
Substitution2: "LinLibertine-'sinf' Wissenschaftliche Indices 1" parenleft.inferior
Substitution2: "LinLibertine-'sups' Hochgestellte 1" parenleft.superior
AlternateSubs2: "LinLibertine-'aalt' Alle Alternativen zeigen 1" parenleft.sc
EndChar

StartChar: parenright
Encoding: 41 41 6
Width: 315
VWidth: 999
Flags: HW
HStem: 696 21<28.25 160.5>
VStem: 164 115<107.48 395.986>
LayerCount: 2
Fore
SplineSet
279 251 m 0
 279 69 176 -103 45 -216 c 1
 17 -182 l 1
 47 -147 164 -13 164 251 c 0
 164 515 49 649 17 685 c 1
 47 717 l 1
 274 521 279 296 279 251 c 0
EndSplineSet
Substitution2: "LinLibertine-'case' Versalformen 1" parenright.sc
Substitution2: "LinLibertine-'c2sc' Versale nach Kapitaelchen 1" parenright.sc
Substitution2: "LinLibertine-'sinf' Wissenschaftliche Indices 1" parenright.inferior
Substitution2: "LinLibertine-'sups' Hochgestellte 1" parenright.superior
AlternateSubs2: "LinLibertine-'aalt' Alle Alternativen zeigen 1" parenright.sc
EndChar

StartChar: asterisk
Encoding: 42 42 7
Width: 433
VWidth: 999
Flags: HW
HStem: 571 69<77.0607 155.725 271.439 350.068>
VStem: 114 99<486.481 523.5> 173 78<621.002 713.184>
LayerCount: 2
Fore
SplineSet
197 566 m 1
 184 568 171 573 156 571 c 0
 111 563 75 563 75 608 c 0
 75 622 84 640 108 640 c 0
 142 640 159 607 203 588 c 1
 199 628 173 653 173 679 c 0
 173 700 193 718 211 718 c 0
 229 718 251 707 251 683 c 0
 251 656 228 618 226 588 c 1
 271 607 282 642 315 642 c 0
 346 642 354 618 354 608 c 0
 354 578 320 568 285 568 c 0
 266 568 249 568 231 565 c 1
 265 529 316 531 316 480 c 0
 316 462 298 451 284 451 c 0
 235 451 238 513 213 552 c 1
 188 507 202 451 143 451 c 0
 126 451 114 464 114 479 c 0
 114 533 164 528 197 566 c 1
EndSplineSet
EndChar

StartChar: plus
Encoding: 43 43 8
Width: 537
Flags: HW
HStem: 195 74<61 232 306 477> 413 20G<232 306>
VStem: 232 74<32 195 269 433>
LayerCount: 2
Fore
SplineSet
306 269 m 1
 477 269 l 1
 477 195 l 1
 306 195 l 1
 306 32 l 1
 232 32 l 1
 232 195 l 1
 61 195 l 1
 61 269 l 1
 232 269 l 1
 232 433 l 1
 306 433 l 1
 306 269 l 1
EndSplineSet
Substitution2: "LinLibertine-'sinf' Wissenschaftliche Indices 1" plus.inferior
Substitution2: "LinLibertine-'sups' Hochgestellte 1" plus.superior
AlternateSubs2: "LinLibertine-'aalt' Alle Alternativen zeigen 1" plus.superior plus.inferior uni2098
EndChar

StartChar: slash
Encoding: 47 47 9
Width: 316
Flags: HW
VStem: 2 300
DStem2: 2 -21 65 -21 0.319461 0.947599<20.126 741.875>
LayerCount: 2
Fore
SplineSet
302 682 m 1
 65 -21 l 1
 2 -21 l 1
 239 682 l 1
 302 682 l 1
EndSplineSet
Ligature2: "LinLibertine-'frac' Brueche 1" uni2215
AlternateSubs2: "LinLibertine-'aalt' Alle Alternativen zeigen 1" uni2215
EndChar

StartChar: one
Encoding: 49 49 10
Width: 490
Flags: HW
HStem: -2 34<102.77 190.845 326.501 400.23> 444 21G<70.0909 103.5>
VStem: 207 110<46.0723 482.998>
LayerCount: 2
Fore
SplineSet
207 81 m 2
 207 430 l 2
 207.1 480 201 483 190 483 c 0
 178 483 126 467 81 444 c 1
 63 477 l 1
 136 512 214 565 265 593 c 0
 284 604 299 610 307 610 c 0
 314 610 320 606 320 593 c 2
 320 593 317 530 317 477 c 2
 317 81 l 2
 316.9 34 348 36 397 32 c 1
 403 26 403 4 397 -2 c 1
 365 -1 302.4 0 263 0 c 0
 217 0 138 -1 106 -2 c 1
 100 4 100 26 106 32 c 1
 149 35 207 35 207 81 c 2
EndSplineSet
Substitution2: "LinLibertine-'onum' Minuskelziffern 1" one.taboldstyle
Substitution2: "LinLibertine-'pnum' Proportionalziffern 1" one.fitted
Substitution2: "LinLibertine-'sinf' Wissenschaftliche Indices 1" one.inferior
Substitution2: "LinLibertine-'sups' Hochgestellte 1" one.superior
AlternateSubs2: "LinLibertine-'aalt' Alle Alternativen zeigen 1" one.oldstyle one.superior one.fitted
EndChar

StartChar: two
Encoding: 50 50 11
Width: 490
Flags: HW
HStem: 0 79<154 361.39> 570 40<167.661 269.828>
VStem: 51 97<79 87.375 429.277 510.487> 51 90<446.757 529.309> 306 119<379.79 535.222> 386 43<106.6 156.465>
LayerCount: 2
Fore
SplineSet
51 465 m 0
 51 526 116 610 235 610 c 0
 324 610 425 578 425 455 c 0
 425 380 362 316 277 233 c 0
 240 196 154 128 154 79 c 1
 316 79 l 2
 354 79 368 96 386 164 c 1
 429 155 l 1
 417 102 411 42 407 0 c 1
 50 0 l 1
 50 59 70 104 169 210 c 1
 241 286 l 2
 292 341 306 385 306 451 c 0
 306 543 255 570 228 570 c 0
 175 570 141 534 141 511 c 0
 141 500 142 492 145 485 c 0
 148 477 148 469 148 464 c 0
 148 433 121 422 100 422 c 0
 73 422 51 441 51 465 c 0
EndSplineSet
Substitution2: "LinLibertine-'onum' Minuskelziffern 1" two.taboldstyle
Substitution2: "LinLibertine-'pnum' Proportionalziffern 1" two.fitted
Substitution2: "LinLibertine-'sinf' Wissenschaftliche Indices 1" two.inferior
Substitution2: "LinLibertine-'sups' Hochgestellte 1" two.superior
AlternateSubs2: "LinLibertine-'aalt' Alle Alternativen zeigen 1" two.oldstyle two.superior two.fitted
EndChar

StartChar: three
Encoding: 51 51 12
Width: 490
Flags: HW
HStem: -11 41<160.981 259.712> 305 40<154.95 206.92> 440 21G<76 117.5> 570 40<170.716 273.517>
VStem: 54 90<446.622 534.023> 296 103<436.812 549.429> 315 116<106.537 277.13>
LayerCount: 2
Fore
SplineSet
234 570 m 0
 203.9 570 144 556 144 495 c 0
 144 475 138 440 97 440 c 0
 55 440 54 474 54 477 c 0
 54 511 95 610 253 610 c 0
 367 610 399 543 399 500 c 0
 399 476 379 402 290 364 c 1
 354 357 431 303 431 204 c 0
 431 64 323 -11 197 -11 c 0
 131 -11 43 16 43 58 c 0
 43 75 65 95 95 95 c 0
 126 95 136 84 145 69 c 0
 155 52 177 30 210 30 c 0
 237 30 315 61 315 190 c 0
 315 299 253 315 208 315 c 0
 201 315 183 311 156 305 c 1
 150 345 l 1
 267 372 296 437 296 484 c 0
 296 541 263 570 234 570 c 0
EndSplineSet
Substitution2: "LinLibertine-'onum' Minuskelziffern 1" three.taboldstyle
Substitution2: "LinLibertine-'pnum' Proportionalziffern 1" three.fitted
Substitution2: "LinLibertine-'sinf' Wissenschaftliche Indices 1" three.inferior
Substitution2: "LinLibertine-'sups' Hochgestellte 1" three.superior
AlternateSubs2: "LinLibertine-'aalt' Alle Alternativen zeigen 1" three.oldstyle three.superior three.fitted
EndChar

StartChar: four
Encoding: 52 52 13
Width: 490
VWidth: 487
Flags: HW
HStem: -2 34<186.77 259.892 381.03 447.23> 169 50<90 271 374 478.453>
VStem: 271 103<41.5879 169 219 493.017>
LayerCount: 2
Fore
SplineSet
271 493 m 1
 202 398.8 141.3 301.2 90 219 c 1
 271 219 l 1
 271 493 l 1
467 219 m 2
 478 219 482 213 482 203 c 0
 482 191 467 169 453 169 c 2
 374 169 l 1
 374 81 l 2
 374 34 395 36 444 32 c 1
 450 26 450 4 444 -2 c 1
 412 -1 347.4 0 308 0 c 0
 262 0 222 -1 190 -2 c 1
 184 4 184 26 190 32 c 1
 233 35 271 35 271 81 c 2
 271 169 l 1
 67 169 l 2
 37 169 31 199 28 214 c 1
 119.5 357 236 521.5 299 599 c 0
 302.7 603.5 308 610 315 610 c 2
 374 610 l 1
 376 608 l 1
 374.3 600.2 374 561 374 511 c 2
 374 219 l 1
 467 219 l 2
EndSplineSet
Substitution2: "LinLibertine-'onum' Minuskelziffern 1" four.taboldstyle
Substitution2: "LinLibertine-'pnum' Proportionalziffern 1" four.fitted
Substitution2: "LinLibertine-'sinf' Wissenschaftliche Indices 1" four.inferior
Substitution2: "LinLibertine-'sups' Hochgestellte 1" four.superior
AlternateSubs2: "LinLibertine-'aalt' Alle Alternativen zeigen 1" four.oldstyle four.superior four.fitted
EndChar

StartChar: five
Encoding: 53 53 14
Width: 490
Flags: HW
HStem: -13 44<163.658 259.663> 344 57<145.439 267.871> 526 75<157.417 397.388>
VStem: 316 115<113.894 288.439>
LayerCount: 2
Fore
SplineSet
316 186 m 0
 316 285 269 344 219 344 c 0
 177 344 144 336 83 310 c 1
 118 607 l 1
 166 603 207 601 242 601 c 0
 292 601 337 604 398 611 c 1
 417 601 l 1
 402 532 l 1
 351 528 321 526 291 526 c 0
 255 526 187 528 160 531 c 1
 155 480 150 445 144 393 c 1
 163 397 218 401 244 401 c 0
 365 401 431 307 431 208 c 0
 431 90 339 -13 211 -13 c 0
 145 -13 46 22 46 65 c 0
 46 87 64 107 94 107 c 0
 125 107 141 89 151 69 c 0
 164 45 191 31 207 31 c 0
 259 31 316 89 316 186 c 0
EndSplineSet
Substitution2: "LinLibertine-'onum' Minuskelziffern 1" five.taboldstyle
Substitution2: "LinLibertine-'pnum' Proportionalziffern 1" five.fitted
Substitution2: "LinLibertine-'sinf' Wissenschaftliche Indices 1" five.inferior
Substitution2: "LinLibertine-'sups' Hochgestellte 1" five.superior
AlternateSubs2: "LinLibertine-'aalt' Alle Alternativen zeigen 1" five.oldstyle five.superior five.fitted
EndChar

StartChar: six
Encoding: 54 54 15
Width: 490
Flags: HW
HStem: -10 38<210.287 295.504> 319 42<174.993 284.066> 579 33<329.938 415.848>
VStem: 40 113<114.614 296.134> 330 113<87.8768 268.712>
LayerCount: 2
Fore
SplineSet
154 280 m 1
 153 269 153 251 153 240 c 0
 153 68 215 28 257 28 c 0
 293 28 330 67 330 174 c 0
 330 221 312 319 233 319 c 0
 218 319 190 317 154 280 c 1
419 579 m 1
 371 576 310 572 241 502 c 0
 206 466 177 410 163 340 c 1
 191 353 224 361 252 361 c 0
 421 361 443 231 443 182 c 0
 443 109 404 -10 248 -10 c 0
 164 -10 40 32 40 243 c 0
 40 338 73 431 146 508 c 0
 212 577 291 605 415 612 c 1
 419 579 l 1
EndSplineSet
Substitution2: "LinLibertine-'onum' Minuskelziffern 1" six.taboldstyle
Substitution2: "LinLibertine-'pnum' Proportionalziffern 1" six.fitted
Substitution2: "LinLibertine-'sinf' Wissenschaftliche Indices 1" six.inferior
Substitution2: "LinLibertine-'sups' Hochgestellte 1" six.superior
AlternateSubs2: "LinLibertine-'aalt' Alle Alternativen zeigen 1" six.oldstyle six.superior six.fitted
EndChar

StartChar: seven
Encoding: 55 55 16
Width: 490
Flags: HW
HStem: -13 21G<117 216> 444 21G<55 102> 517 77<112.287 352>
VStem: 55 39<450.564 497.42>
LayerCount: 2
Fore
SplineSet
128 594 m 2
 437 594 l 1
 441 586 l 1
 334 317 271 167 216 -2 c 1
 122 -13 l 1
 117 0 l 1
 185 151 299 385 352 517 c 1
 159 517 l 2
 127 517 110 513 94 444 c 1
 55 452 l 1
 71 521 79 555 81 600 c 1
 89 600 l 1
 97 594 121 594 128 594 c 2
EndSplineSet
Substitution2: "LinLibertine-'onum' Minuskelziffern 1" seven.taboldstyle
Substitution2: "LinLibertine-'pnum' Proportionalziffern 1" seven.fitted
Substitution2: "LinLibertine-'sinf' Wissenschaftliche Indices 1" seven.inferior
Substitution2: "LinLibertine-'sups' Hochgestellte 1" seven.superior
AlternateSubs2: "LinLibertine-'aalt' Alle Alternativen zeigen 1" seven.oldstyle seven.superior seven.fitted
EndChar

StartChar: nine
Encoding: 57 57 17
Width: 490
VWidth: 487
Flags: HW
HStem: -12 33<70.6515 156.562> 239 42<202.434 311.507> 572 38<190.996 276.213>
VStem: 43.5 113<331.288 512.123> 333.5 113<303.866 485.386>
LayerCount: 2
Fore
SplineSet
332.5 320 m 1
 333.5 331 333.5 349 333.5 360 c 0
 333.5 532 271.5 572 229.5 572 c 0
 193.5 572 156.5 533 156.5 426 c 0
 156.5 379 174.5 281 253.5 281 c 0
 268.5 281 296.5 283 332.5 320 c 1
67.5 21 m 1
 115.5 24 176.5 28 245.5 98 c 0
 280.5 134 309.5 190 323.5 260 c 1
 295.5 247 262.5 239 234.5 239 c 0
 65.5 239 43.5 369 43.5 418 c 0
 43.5 491 82.5 610 238.5 610 c 0
 322.5 610 446.5 568 446.5 357 c 0
 446.5 262 413.5 169 340.5 92 c 0
 274.5 23 195.5 -5 71.5 -12 c 1
 67.5 21 l 1
EndSplineSet
Substitution2: "LinLibertine-'onum' Minuskelziffern 1" nine.taboldstyle
Substitution2: "LinLibertine-'pnum' Proportionalziffern 1" nine.fitted
Substitution2: "LinLibertine-'sinf' Wissenschaftliche Indices 1" nine.inferior
Substitution2: "LinLibertine-'sups' Hochgestellte 1" nine.superior
AlternateSubs2: "LinLibertine-'aalt' Alle Alternativen zeigen 1" nine.oldstyle nine.superior nine.fitted
EndChar

StartChar: colon
Encoding: 58 58 18
Width: 219
VWidth: 999
Flags: HW
HStem: 39 111<85.9218 174.078> 302 111<85.9218 174.078>
VStem: 74 112<50.8467 138.078 313.847 401.078>
LayerCount: 2
Fore
SplineSet
74 357 m 0
 74 388 99 413 130 413 c 0
 161 413 186 388 186 357 c 0
 186 327 161 302 130 302 c 0
 99 302 74 327 74 357 c 0
74 94 m 0
 74 125 99 150 130 150 c 0
 161 150 186 125 186 94 c 0
 186 64 161 39 130 39 c 0
 99 39 74 64 74 94 c 0
EndSplineSet
EndChar

StartChar: less
Encoding: 60 60 19
Width: 512
Flags: HW
DStem2: 42 262 153 240 0.939793 0.341743<96.7987 435.295> 153 240 42 218 0.939793 -0.341743<0 338.496>
LayerCount: 2
Fore
SplineSet
153 240 m 1
 471 124 l 1
 471 62 l 1
 42 218 l 1
 42 262 l 1
 471 418 l 1
 471 356 l 1
 153 240 l 1
EndSplineSet
EndChar

StartChar: equal
Encoding: 61 61 20
Width: 551
Flags: HW
HStem: 142 56<59 493> 266 57<59 493>
LayerCount: 2
Fore
SplineSet
493 198 m 1
 493 142 l 1
 59 142 l 1
 59 198 l 1
 493 198 l 1
493 323 m 1
 493 266 l 1
 59 266 l 1
 59 323 l 1
 493 323 l 1
EndSplineSet
Substitution2: "LinLibertine-'sinf' Wissenschaftliche Indices 1" equal.inferior
Substitution2: "LinLibertine-'sups' Hochgestellte 1" equal.superior
AlternateSubs2: "LinLibertine-'aalt' Alle Alternativen zeigen 1" equal.superior
EndChar

StartChar: greater
Encoding: 62 62 21
Width: 512
Flags: HW
DStem2: 42 416 42 354 0.939088 -0.343676<21.3079 358.865> 42 122 42 60 0.940496 0.339806<0 337.555>
LayerCount: 2
Fore
SplineSet
359 238 m 1
 42 354 l 1
 42 416 l 1
 471 259 l 1
 471 215 l 1
 42 60 l 1
 42 122 l 1
 359 238 l 1
EndSplineSet
EndChar

StartChar: question
Encoding: 63 63 22
Width: 430
Flags: HW
HStem: -10 111<147.922 236.078> 623 36<147.137 243.576>
VStem: 25 102<504.183 589.152> 136 112<1.84669 89.0782> 158 69<173.053 308.691> 284 117<435.475 583.004>
LayerCount: 2
Fore
SplineSet
127 571 m 0
 127 550 136 544 136 517 c 0
 136 492 113 476 83 476 c 0
 59 476 26 496 26 534 c 0
 26 569 45 592 79 620 c 0
 109 645 155 659 216 659 c 0
 330 659 401 598 401 506 c 0
 401 432 338 385 288 348 c 0
 260 328 227 301 227 229 c 2
 227 206 l 2
 227 184 223 172 192 172 c 0
 161 172 158 184 158 206 c 2
 158 231 l 2
 158 272 160 329 231 394 c 0
 266 425 286 463 286 513 c 0
 286 571 262.1 623 206 623 c 0
 162 623 127 599 127 571 c 0
136 45 m 0
 136 76 161 101 192 101 c 0
 223 101 248 76 248 45 c 0
 248 15 223 -10 192 -10 c 0
 161 -10 136 15 136 45 c 0
EndSplineSet
EndChar

StartChar: at
Encoding: 64 64 23
Width: 988
Flags: HW
HStem: -160 39<407.274 632.859> 19 42<603 706.824> 30 42<431.029 515.602> 382 33<504.201 588.744> 584 37<401.936 597.238>
VStem: 92 94<102.389 345.27> 317 97<85.6604 259.227> 805 85<185.117 389.903>
LayerCount: 2
Fore
SplineSet
606 320 m 0
 606 355 582 382 557 382 c 0
 543 382 511 381 476 343 c 0
 431 295 414 227 414 164 c 0
 414 117 423 72 470 72 c 0
 500 72 550 107 577 193 c 0
 587 226 606 296 606 320 c 0
640 75 m 0
 640 62 647 61 658 61 c 0
 695 61 805 129 805 273 c 0
 805 494 621 584 504 584 c 0
 349 584 186 459 186 228 c 0
 186 80 277 -121 521 -121 c 0
 598 -121 669 -97 731 -46 c 1
 752 -75 l 1
 688 -124 625 -160 502 -160 c 0
 265 -160 92 -7 92 221 c 0
 92 428 260 621 513 621 c 0
 739 621 890 476 890 287 c 0
 890 147 772 19 638 19 c 0
 568 19 550 55 550 76 c 1
 509 38 468 30 444 30 c 0
 328 30 317 117 317 158 c 0
 317 303 439 415 554 415 c 0
 602 415 631 398 648 377 c 1
 685 410 l 1
 712 399 l 1
 653 141 l 2
 647 115 640 86 640 75 c 0
EndSplineSet
EndChar

StartChar: A
Encoding: 65 65 24
Width: 699
Flags: HW
HStem: -1 34<10 60.0229 142.897 211 414 482.841 622.594 692> 241 47<234.168 403> 638 20G<348.5 364.5>
DStem2: 89 91 148 79 0.384126 0.923281<-23.1403 196.063 246.684 479.281> 399 627 320 514 0.352654 -0.935754<77.8806 318.631 368.607 561.264>
LayerCount: 2
Fore
SplineSet
253 288 m 2
 403 288 l 1
 320 514 l 1
 234 300 l 1
 234 291 235 288 253 288 c 2
148 79 m 2
 137 50 136 33 195 33 c 0
 211 33 216 31 216 23 c 2
 216 3 l 1
 211 -1 l 1
 211 -1 119 1 95 1 c 0
 70 1 10 -1 10 -1 c 1
 2 2 l 1
 2 23 l 2
 2 33 10 33 22 33 c 0
 42 33 72 50 89 91 c 2
 312 627 l 2
 322 651 343 658 354 658 c 0
 375 658 391 648 399 627 c 2
 601 91 l 2
 615 54 629 33 654 33 c 2
 682 33 l 2
 697 33 697 31 697 23 c 2
 697 3 l 1
 692 -1 l 1
 692 -1 596 1 558 1 c 0
 522 1 414 -1 414 -1 c 1
 406 4 l 1
 406 23 l 2
 406 31 414 33 432 33 c 2
 459 33 l 2
 476 33 484 44 484 59 c 0
 484 64 484 70 482 73 c 2
 420 241 l 1
 236 241 l 2
 216 241 211 240 205 227 c 2
 148 79 l 2
EndSplineSet
Substitution2: "LinLibertine-'c2sc' Versale nach Kapitaelchen 1" a.sc
Position2: "'cpsp' Versalabstaende 1" dx=2 dy=0 dh=5 dv=0
EndChar

StartChar: B
Encoding: 66 66 25
Width: 620
Flags: HW
HStem: 0 40<225.077 375.965> 0 33<23 96.4211> 334 42<221 356.422> 605 42<224.143 359.733> 613 34<24 96.3856>
VStem: 99 122<45.449 334 376 599.529> 403 120<424.816 565.405> 450 127<106.58 268.4>
LayerCount: 2
Fore
SplineSet
221 562 m 2
 221 376 l 1
 277 376 l 2
 348 376 403 409 403 489 c 0
 403 587 337 605 291 605 c 0
 226 605 221 591 221 562 c 2
221 334 m 1
 221 84 l 2
 221 55 227 40 287 40 c 0
 419 40 450 127 450 187 c 0
 450 273 395 334 292 334 c 2
 221 334 l 1
22 21 m 2
 22 28 25 33 40 33 c 2
 69 33 l 2
 92 33 99 42 99 74 c 2
 99 572 l 2
 99 602 93 613 69 613 c 2
 36 613 l 2
 25 613 22 616 22 623 c 2
 22 645 l 1
 24 647 l 1
 24 647 124.7 645 154.7 645 c 0
 184.7 645 234 647 284 647 c 0
 485.8 647 523 560 523 491 c 0
 523 440 481 385 427 361 c 1
 427 359 l 1
 533 331 577 264 577 176 c 0
 577 89 511 0 306 0 c 2
 23 0 l 1
 22 1 l 1
 22 21 l 2
EndSplineSet
Substitution2: "LinLibertine-'c2sc' Versale nach Kapitaelchen 1" b.sc
Position2: "'cpsp' Versalabstaende 1" dx=2 dy=0 dh=5 dv=0
EndChar

StartChar: C
Encoding: 67 67 26
Width: 666
Flags: HW
HStem: -10 44<290.062 474.801> 437 21G<558.5 612> 617 41<295.135 462.38>
VStem: 34 130<195.747 434.804> 574 38<443.526 484.717>
LayerCount: 2
Fore
SplineSet
371 -10 m 0
 143 -10 34 154 34 315 c 0
 34 512 187 658 372 658 c 0
 505 658 539 614 590 614 c 1
 594 556 602 500 612 445 c 1
 574 437 l 1
 543 532 500 617 372 617 c 0
 275 617 164 532 164 334 c 0
 164 192 231 34 370 34 c 0
 451 34 524 66 601 153 c 1
 631 129 l 1
 563 39 477 -10 371 -10 c 0
EndSplineSet
Substitution2: "LinLibertine-'c2sc' Versale nach Kapitaelchen 1" c.sc
Position2: "'cpsp' Versalabstaende 1" dx=2 dy=0 dh=5 dv=0
EndChar

StartChar: D
Encoding: 68 68 27
Width: 718
Flags: HW
HStem: 0 40<222.92 424.983> 0 33<24 92.1445> 606 40<223.637 384.847> 613 33<24 92.1445>
VStem: 99 122<44.4801 601.64> 549 132<185.589 421.599>
LayerCount: 2
Fore
SplineSet
221 75 m 2
 221 46 230 40 308 40 c 0
 436 40 549 88 549 284 c 0
 549 435 480 606 283 606 c 0
 247 606 221 603 221 571 c 2
 221 75 l 2
24 0 m 1
 22 2 l 1
 22 24 l 2
 22 30 26 33 30 33 c 2
 44 33 l 2
 84 33 99 45 99 77 c 2
 99 569 l 2
 99 601 84 613 44 613 c 2
 30 613 l 2
 26 613 22 616 22 621 c 2
 22 644 l 1
 24 646 l 1
 320 646 l 2
 523 646 681 494 681 309 c 0
 681 63 487 0 338 0 c 2
 24 0 l 1
EndSplineSet
Substitution2: "LinLibertine-'c2sc' Versale nach Kapitaelchen 1" d.sc
Position2: "'cpsp' Versalabstaende 1" dx=2 dy=0 dh=5 dv=0
EndChar

StartChar: E
Encoding: 69 69 28
Width: 562
Flags: HW
HStem: 0 46<224.232 442.935> 0 33<27 94.1445> 323 42<224 361.625> 427 20G<383 415> 600 46<224.232 421.482> 613 33<27 94.1445>
VStem: 101 123<46.578 323 365 599.422> 372 36<251.814 315.565 372.621 436.233> 474 40<482.425 531.807> 499 43<118.211 170.628>
LayerCount: 2
Fore
SplineSet
27 0 m 1
 24 2 l 1
 24 24 l 2
 24 30 28 33 32 33 c 2
 46 33 l 2
 86 33 101 45 101 77 c 2
 101 569 l 2
 101 601 86 613 46 613 c 2
 32 613 l 2
 28 613 24 616 24 621 c 2
 24 644 l 1
 27 646 l 1
 493 646 l 1
 497 588 504 535 514 484 c 1
 474 475 l 1
 460 526 435 600 368 600 c 2
 238 600 l 2
 229 600 224 592 224 571 c 2
 224 365 l 1
 337 365 l 2
 362 365 366 396 372 436 c 0
 372 440 378 447 388 447 c 2
 409 447 l 1
 415 437 l 1
 413 421 408 381 408 344 c 0
 408 308 413 268 415 251 c 1
 409 242 l 1
 388 242 l 2
 378 242 372 248 372 252 c 0
 366 293 362 323 337 323 c 2
 224 323 l 1
 224 75 l 2
 224 52 229 46 238 46 c 2
 391 46 l 2
 446 46 482 105 499 179 c 1
 542 169 l 1
 532 116 522 54 515 0 c 1
 27 0 l 1
EndSplineSet
Substitution2: "LinLibertine-'c2sc' Versale nach Kapitaelchen 1" e.sc
Position2: "'cpsp' Versalabstaende 1" dx=2 dy=0 dh=5 dv=0
EndChar

StartChar: F
Encoding: 70 70 29
Width: 513
Flags: HW
HStem: -2 34<26 94.7241 230.184 298> 323 42<223 360.625> 427 20G<382 414> 600 46<223.232 420.482> 613 33<27 94.1445>
VStem: 101 122<37.5094 323 365 599.422> 371 36<251.813 315.565 372.621 436.232> 473 40<482.425 531.807>
LayerCount: 2
Fore
SplineSet
223 76 m 2
 223 48 237 32 278 32 c 2
 292 32 l 2
 297 32 300 29 300 23 c 2
 300 0 l 1
 298 -2 l 1
 298 -2 198 0 162 0 c 0
 123 0 26 -2 26 -2 c 1
 24 0 l 1
 24 23 l 2
 24 29 28 32 32 32 c 2
 46 32 l 2
 86 32 101 44 101 76 c 2
 101 569 l 2
 101 601 86 613 46 613 c 2
 32 613 l 2
 28 613 24 616 24 621 c 2
 24 644 l 1
 27 646 l 1
 492 646 l 1
 496 588 503 535 513 484 c 1
 473 475 l 1
 459 526 434 600 367 600 c 2
 237 600 l 2
 228 600 223 592 223 571 c 2
 223 365 l 1
 336 365 l 2
 361 365 365 396 371 436 c 0
 371 440 377 447 387 447 c 2
 408 447 l 1
 414 437 l 1
 412 421 407 380.4 407 344 c 0
 407 307.6 412 268 414 251 c 1
 408 242 l 1
 387 242 l 2
 377 242 371 248 371 252 c 0
 365 293 361 323 336 323 c 2
 223 323 l 1
 223 76 l 2
EndSplineSet
Substitution2: "LinLibertine-'c2sc' Versale nach Kapitaelchen 1" f.sc
Position2: "'cpsp' Versalabstaende 1" dx=2 dy=0 dh=5 dv=0
EndChar

StartChar: G
Encoding: 71 71 30
Width: 727
Flags: HW
HStem: -10 44<306.541 502.262> 272 34<440 520.715 652.798 706> 437 21G<571 624> 617 41<300.747 473.546>
VStem: 29 130<202 430.82> 532 117<85.3282 262.125> 585 39<443.564 488.517>
LayerCount: 2
Fore
SplineSet
649 229 m 2
 649 114 l 2
 649 99 653 92 661 85 c 1
 591 26 512 -10 386 -10 c 0
 173 -10 29 134 29 308 c 0
 29 528 205 658 383 658 c 0
 518 658 551 614 602 614 c 1
 605 556 614 500 624 445 c 1
 585 437 l 1
 557 531 509 617 382 617 c 0
 261 617 159 498 159 327 c 0
 159 176 243 34 404 34 c 0
 447 34 498 46 532 74 c 1
 532 229 l 2
 532 260 500 272 460 272 c 2
 446 272 l 2
 442 272 438 275 438 281 c 2
 438 304 l 1
 440 306 l 1
 440 306 537 304 576 304 c 0
 612 304 706 306 706 306 c 1
 708 304 l 1
 708 281 l 2
 708 275 705 272 700 272 c 2
 694 272 l 2
 653 272 649 256 649 229 c 2
EndSplineSet
Substitution2: "LinLibertine-'c2sc' Versale nach Kapitaelchen 1" g.sc
Position2: "'cpsp' Versalabstaende 1" dx=2 dy=0 dh=5 dv=0
EndChar

StartChar: grave
Encoding: 96 96 31
Width: 392
VWidth: 999
Flags: HW
LayerCount: 2
Fore
SplineSet
198 702 m 1
 267 578 l 2
 271 571 276 560 276 552 c 0
 276 543 268 536 259 536 c 0
 251 536 241 541 224 556 c 2
 103 661 l 1
 105 672 l 1
 113 681 142 704 178 704 c 0
 183 704 194 703 198 702 c 1
EndSplineSet
Substitution2: "LinLibertine-'case' Versalformen 1" uni0358
EndChar

StartChar: ograve
Encoding: 242 242 32
Width: 519
VWidth: 999
Flags: HW
HStem: -10 43<223.814 325.852> 403 41<203.326 303.665>
VStem: 34 122<119.406 317.729> 364 121<118.762 320.282>
LayerCount: 2
Fore
SplineSet
244 674 m 1
 313 550 l 2
 317 543 322 532 322 524 c 0
 322 515 314 508 305 508 c 0
 297 508 287 513 270 528 c 2
 149 633 l 1
 151 644 l 1
 159 653 188 676 224 676 c 0
 229 676 240 675 244 674 c 1
250 403 m 0
 186 403 156 314 156 229 c 0
 156 155 193 33 275 33 c 0
 311 33 364 57 364 184 c 0
 364 327 318 403 250 403 c 0
34 207 m 0
 34 344 115 444 260 444 c 0
 423 444 485 321 485 216 c 0
 485 115 414 -10 259 -10 c 0
 112 -10 34 104 34 207 c 0
EndSplineSet
Substitution2: "LinLibertine-'smcp' Gemeine nach Kapitaelchen 1" ograve.sc
AlternateSubs2: "LinLibertine-'aalt' Alle Alternativen zeigen 1" ograve.sc
EndChar

StartChar: oacute
Encoding: 243 243 33
Width: 519
VWidth: 999
Flags: HW
HStem: -10 43<223.814 325.852> 403 41<203.326 303.665>
VStem: 34 122<119.406 317.729> 364 121<118.762 320.282>
LayerCount: 2
Fore
SplineSet
282 674 m 1
 285 675 293 676 298 676 c 0
 328 676 347 662 355 652 c 1
 365 629 l 1
 245 521 l 2
 231 509 217 505 207 505 c 0
 199 505 191 513 191 519 c 0
 191 525 193 534 199 543 c 2
 282 674 l 1
250 403 m 0
 186 403 156 314 156 229 c 0
 156 155 193 33 275 33 c 0
 311 33 364 57 364 184 c 0
 364 327 318 403 250 403 c 0
34 207 m 0
 34 344 115 444 260 444 c 0
 423 444 485 321 485 216 c 0
 485 115 414 -10 259 -10 c 0
 112 -10 34 104 34 207 c 0
EndSplineSet
Substitution2: "LinLibertine-'smcp' Gemeine nach Kapitaelchen 1" oacute.sc
AlternateSubs2: "LinLibertine-'aalt' Alle Alternativen zeigen 1" oacute.sc
EndChar

StartChar: ocircumflex
Encoding: 244 244 34
Width: 519
VWidth: 999
Flags: HW
HStem: -10 43<223.814 325.852> 403 41<203.326 303.665>
VStem: 34 122<119.406 317.729> 364 121<118.762 320.282>
LayerCount: 2
Fore
SplineSet
280 649 m 1
 310 600 348 556 385 515 c 1
 360 496 l 1
 317 522 288 542 253 579 c 1
 215 540 187 522 147 496 c 1
 122 515 l 1
 158 556 198 601 228 649 c 1
 280 649 l 1
250 403 m 0
 186 403 156 314 156 229 c 0
 156 155 193 33 275 33 c 0
 311 33 364 57 364 184 c 0
 364 327 318 403 250 403 c 0
34 207 m 0
 34 344 115 444 260 444 c 0
 423 444 485 321 485 216 c 0
 485 115 414 -10 259 -10 c 0
 112 -10 34 104 34 207 c 0
EndSplineSet
Substitution2: "LinLibertine-'smcp' Gemeine nach Kapitaelchen 1" ocircumflex.sc
AlternateSubs2: "LinLibertine-'aalt' Alle Alternativen zeigen 1" ocircumflex.sc
EndChar

StartChar: otilde
Encoding: 245 245 35
Width: 519
VWidth: 999
Flags: HW
HStem: -10 43<223.814 325.852> 403 41<203.326 303.665> 516 58<267 350.543> 570 59<148.743 235.285>
VStem: 34 122<119.406 317.729> 113 25<524.76 550.045> 364 26<596.869 622.692> 364 121<118.762 320.282>
LayerCount: 2
Fore
SplineSet
319 574 m 0
 341 574 354 583 368 632 c 1
 396 622 l 1
 383 554 353 514 305 514 c 0
 282 514 260 529 240 544 c 1
 220 557 200 570 182 570 c 0
 155 570 144 555 133 517 c 1
 107 525 l 1
 121 593 145 631 190 631 c 0
 221 631 244 615 264 599 c 0
 282 585 299 574 319 574 c 0
250 403 m 0
 186 403 156 314 156 229 c 0
 156 155 193 33 275 33 c 0
 311 33 364 57 364 184 c 0
 364 327 318 403 250 403 c 0
34 207 m 0
 34 344 115 444 260 444 c 0
 423 444 485 321 485 216 c 0
 485 115 414 -10 259 -10 c 0
 112 -10 34 104 34 207 c 0
EndSplineSet
Substitution2: "LinLibertine-'smcp' Gemeine nach Kapitaelchen 1" otilde.sc
AlternateSubs2: "LinLibertine-'aalt' Alle Alternativen zeigen 1" otilde.sc
EndChar

StartChar: odieresis
Encoding: 246 246 36
Width: 519
VWidth: 999
Flags: HW
HStem: -10 43<223.814 325.852> 403 41<203.326 303.665> 518 107<120.97 207.324 301.676 388.03>
VStem: 34 122<119.406 317.729> 110 108<529.388 613.537> 291 108<529.388 613.537> 364 121<118.762 320.282>
LayerCount: 2
Fore
SplineSet
291 571 m 0
 291 601 315 625 345 625 c 0
 374 625 399 601 399 571 c 0
 399 542 374 518 345 518 c 0
 315 518 291 542 291 571 c 0
110 571 m 0
 110 601 135 625 164 625 c 0
 194 625 218 601 218 571 c 0
 218 542 194 518 164 518 c 0
 135 518 110 542 110 571 c 0
250 403 m 0
 186 403 156 314 156 229 c 0
 156 155 193 33 275 33 c 0
 311 33 364 57 364 184 c 0
 364 327 318 403 250 403 c 0
34 207 m 0
 34 344 115 444 260 444 c 0
 423 444 485 321 485 216 c 0
 485 115 414 -10 259 -10 c 0
 112 -10 34 104 34 207 c 0
EndSplineSet
Substitution2: "LinLibertine-'smcp' Gemeine nach Kapitaelchen 1" odieresis.sc
AlternateSubs2: "LinLibertine-'aalt' Alle Alternativen zeigen 1" odieresis.sc
EndChar

StartChar: divide
Encoding: 247 247 37
Width: 537
VWidth: 999
Flags: HW
HStem: 53.6 93<231.309 305.197> 195 74<71 466> 321.6 93<231.309 305.197>
VStem: 221.3 93.9<63.5478 136.66> 221.3 93.9<331.548 404.66>
LayerCount: 2
Fore
SplineSet
221.3 367.7 m 0
 221.3 393.7 242.3 414.6 268.3 414.6 c 0
 294.3 414.6 315.2 393.7 315.2 367.7 c 0
 315.2 342.6 294.3 321.6 268.3 321.6 c 0
 242.3 321.6 221.3 342.6 221.3 367.7 c 0
221.3 99.7 m 0
 221.3 125.7 242.3 146.6 268.3 146.6 c 0
 294.3 146.6 315.2 125.7 315.2 99.7 c 0
 315.2 74.6 294.3 53.6 268.3 53.6 c 0
 242.3 53.6 221.3 74.6 221.3 99.7 c 0
466 269 m 1
 466 195 l 1
 71 195 l 1
 71 269 l 1
 466 269 l 1
EndSplineSet
EndChar

StartChar: ugrave
Encoding: 249 249 38
Width: 550
VWidth: 999
Flags: HW
HStem: -10 50<215.254 312.397> 28 31<479.262 526> 402 34<29 58 293 346.026>
VStem: 87 110<56.8091 398.969> 352 110<69.9839 399.25>
LayerCount: 2
Fore
SplineSet
239 674 m 1
 308 550 l 2
 312 543 317 532 317 524 c 0
 317 515 309 508 300 508 c 0
 292 508 282 513 265 528 c 2
 144 633 l 1
 146 644 l 1
 154 653 183 676 219 676 c 0
 224 676 235 675 239 674 c 1
462 115 m 2
 462 85 472 62 526 59 c 1
 527 28 l 1
 436 16 412 3 386 -12 c 1
 352 -12 l 1
 355 35 l 1
 308 5 263 -10 226 -10 c 0
 110 -10 87 58 87 128 c 2
 87 352 l 2
 87 382 81.4 398.5 58 400 c 2
 27 402 l 1
 24 404 l 1
 24 434 l 1
 29 436 l 1
 29 436 108 434 140 434 c 0
 154 434 198 436 198 436 c 1
 198 436 197 391 197 354 c 2
 197 142 l 2
 197 58 230 40 251 40 c 0
 273 40 315 45 352 77 c 1
 352 352 l 2
 352 384 342 400 324 400 c 1
 293 402 l 1
 289 404 l 1
 289 434 l 1
 293 436 l 1
 293 436 377 434 404 434 c 0
 425 434 464 436 464 436 c 1
 464 436 462 394.5 462 354 c 2
 462 115 l 2
EndSplineSet
Substitution2: "LinLibertine-'smcp' Gemeine nach Kapitaelchen 1" ugrave.sc
AlternateSubs2: "LinLibertine-'aalt' Alle Alternativen zeigen 1" ugrave.sc
EndChar

StartChar: uacute
Encoding: 250 250 39
Width: 550
VWidth: 999
Flags: HW
HStem: -10 50<215.254 312.397> 28 31<479.262 526> 402 34<29 58 293 346.026>
VStem: 87 110<56.8091 398.969> 352 110<69.9839 399.25>
LayerCount: 2
Fore
SplineSet
309 674 m 1
 312 675 320 676 325 676 c 0
 355 676 374 662 382 652 c 1
 392 629 l 1
 272 521 l 2
 258 509 244 505 234 505 c 0
 226 505 218 513 218 519 c 0
 218 525 220 534 226 543 c 2
 309 674 l 1
462 115 m 2
 462 85 472 62 526 59 c 1
 527 28 l 1
 436 16 412 3 386 -12 c 1
 352 -12 l 1
 355 35 l 1
 308 5 263 -10 226 -10 c 0
 110 -10 87 58 87 128 c 2
 87 352 l 2
 87 382 81.4 398.5 58 400 c 2
 27 402 l 1
 24 404 l 1
 24 434 l 1
 29 436 l 1
 29 436 108 434 140 434 c 0
 154 434 198 436 198 436 c 1
 198 436 197 391 197 354 c 2
 197 142 l 2
 197 58 230 40 251 40 c 0
 273 40 315 45 352 77 c 1
 352 352 l 2
 352 384 342 400 324 400 c 1
 293 402 l 1
 289 404 l 1
 289 434 l 1
 293 436 l 1
 293 436 377 434 404 434 c 0
 425 434 464 436 464 436 c 1
 464 436 462 394.5 462 354 c 2
 462 115 l 2
EndSplineSet
Substitution2: "LinLibertine-'smcp' Gemeine nach Kapitaelchen 1" uacute.sc
AlternateSubs2: "LinLibertine-'aalt' Alle Alternativen zeigen 1" uacute.sc
EndChar

StartChar: ucircumflex
Encoding: 251 251 40
Width: 550
VWidth: 999
Flags: HW
HStem: -10 50<215.254 312.397> 28 31<479.262 526> 402 34<29 58 293 346.026>
VStem: 87 110<56.8091 398.969> 352 110<69.9839 399.25>
LayerCount: 2
Fore
SplineSet
285 649 m 1
 315 600 353 556 390 515 c 1
 365 496 l 1
 322 522 293 542 258 579 c 1
 220 540 192 522 152 496 c 1
 127 515 l 1
 163 556 203 601 233 649 c 1
 285 649 l 1
462 115 m 2
 462 85 472 62 526 59 c 1
 527 28 l 1
 436 16 412 3 386 -12 c 1
 352 -12 l 1
 355 35 l 1
 308 5 263 -10 226 -10 c 0
 110 -10 87 58 87 128 c 2
 87 352 l 2
 87 382 81.4 398.5 58 400 c 2
 27 402 l 1
 24 404 l 1
 24 434 l 1
 29 436 l 1
 29 436 108 434 140 434 c 0
 154 434 198 436 198 436 c 1
 198 436 197 391 197 354 c 2
 197 142 l 2
 197 58 230 40 251 40 c 0
 273 40 315 45 352 77 c 1
 352 352 l 2
 352 384 342 400 324 400 c 1
 293 402 l 1
 289 404 l 1
 289 434 l 1
 293 436 l 1
 293 436 377 434 404 434 c 0
 425 434 464 436 464 436 c 1
 464 436 462 394.5 462 354 c 2
 462 115 l 2
EndSplineSet
Substitution2: "LinLibertine-'smcp' Gemeine nach Kapitaelchen 1" ucircumflex.sc
AlternateSubs2: "LinLibertine-'aalt' Alle Alternativen zeigen 1" ucircumflex.sc
EndChar

StartChar: ebreve
Encoding: 277 277 41
Width: 461
VWidth: 999
Flags: HW
HStem: -10 56<218.732 346.305> 245 40<154 316> 402 42<199.114 288.493> 498 62<172.853 307.87>
VStem: 34 115<124.669 245 285 306.603> 105 32<604.278 639.062> 316 115<259 363.973> 344 31<605.121 639.161>
LayerCount: 2
Fore
SplineSet
133 653 m 1
 135 599 178 559 241 559 c 0
 288 559 345 589 348 653 c 1
 380 638 l 1
 370 533 292 495 241 495 c 0
 160 495 107 557 100 638 c 1
 133 653 l 1
154 285 m 1
 314 285 l 1
 316 287 316 290 316 296 c 0
 316 376 275 402 248 402 c 0
 227 402 168 387 154 285 c 1
397 109 m 1
 422 88 l 1
 385 13 315 -10 246 -10 c 0
 94 -10 34 88 34 198 c 0
 34 351 144 444 249 444 c 0
 396 444 431 351 431 266 c 0
 431 252 416 245 392 245 c 2
 149 245 l 1
 149 240 149 226 149 219 c 0
 149 121 207 46 285 46 c 0
 323 46 360 64 397 109 c 1
EndSplineSet
EndChar

StartChar: Edotaccent
Encoding: 278 278 42
Width: 562
VWidth: 999
Flags: HW
HStem: 0 33<27 94.1445> 0 46<224.232 442.935> 323 42<224 361.625> 427 20<383 415> 600 46<224.232 421.482> 613 33<27 94.1445> 681 120<245.745 338.255>
VStem: 101 123<46.578 323 365 599.422> 232 120<694.745 787.255> 372 36<251.814 315.565 372.621 436.233> 474 40<482.425 531.807> 499 43<118.211 170.628>
LayerCount: 2
Fore
SplineSet
230 741 m 0
 230 775 258 803 292 803 c 0
 326 803 354 775 354 741 c 0
 354 707 326 679 292 679 c 0
 258 679 230 707 230 741 c 0
27 0 m 1
 24 2 l 1
 24 24 l 2
 24 30 28 33 32 33 c 2
 46 33 l 2
 86 33 101 45 101 77 c 2
 101 569 l 2
 101 601 86 613 46 613 c 2
 32 613 l 2
 28 613 24 616 24 621 c 2
 24 644 l 1
 27 646 l 1
 493 646 l 1
 497 588 504 535 514 484 c 1
 474 475 l 1
 460 526 435 600 368 600 c 2
 238 600 l 2
 229 600 224 592 224 571 c 2
 224 365 l 1
 337 365 l 2
 362 365 366 396 372 436 c 0
 372 440 378 447 388 447 c 2
 409 447 l 1
 415 437 l 1
 413 421 408 381 408 344 c 0
 408 308 413 268 415 251 c 1
 409 242 l 1
 388 242 l 2
 378 242 372 248 372 252 c 0
 366 293 362 323 337 323 c 2
 224 323 l 1
 224 75 l 2
 224 52 229 46 238 46 c 2
 391 46 l 2
 446 46 482 105 499 179 c 1
 542 169 l 1
 532 116 522 54 515 0 c 1
 27 0 l 1
EndSplineSet
Position2: "'cpsp' Versalabstaende 1" dx=2 dy=0 dh=5 dv=0
EndChar

StartChar: edotaccent
Encoding: 279 279 43
Width: 461
VWidth: 999
Flags: HW
HStem: -10 56<218.732 346.305> 245 40<154 316> 402 42<199.114 288.493> 512 120<195.745 288.255>
VStem: 34 115<124.669 245 285 306.603> 182 120<525.745 618.255> 316 115<259 363.973>
LayerCount: 2
Fore
SplineSet
180 572 m 0
 180 606 208 634 242 634 c 0
 276 634 304 606 304 572 c 0
 304 538 276 510 242 510 c 0
 208 510 180 538 180 572 c 0
154 285 m 1
 314 285 l 1
 316 287 316 290 316 296 c 0
 316 376 275 402 248 402 c 0
 227 402 168 387 154 285 c 1
397 109 m 1
 422 88 l 1
 385 13 315 -10 246 -10 c 0
 94 -10 34 88 34 198 c 0
 34 351 144 444 249 444 c 0
 396 444 431 351 431 266 c 0
 431 252 416 245 392 245 c 2
 149 245 l 1
 149 240 149 226 149 219 c 0
 149 121 207 46 285 46 c 0
 323 46 360 64 397 109 c 1
EndSplineSet
EndChar

StartChar: Eogonek
Encoding: 280 280 44
Width: 562
VWidth: 999
Flags: HW
HStem: -224 39<385.181 468.941> 0 25<454.256 490.88> 0 33<27 94.1445> 0 46<224.232 442.935> 323 42<224 361.625> 427 20<383 415> 600 46<224.232 421.482> 613 33<27 94.1445>
VStem: 101 123<46.578 323 365 599.422> 311 60<-173.091 -74.5789> 372 36<251.814 315.565 372.621 436.233> 474 40<482.425 531.807> 499 43<118.211 170.628>
LayerCount: 2
Fore
SplineSet
404 -224 m 0
 351 -224 311 -193 311 -139 c 0
 311 -91.5 351 -33.4 411.2 0 c 1
 27 0 l 1
 24 2 l 1
 24 24 l 2
 24 30 28 33 32 33 c 2
 46 33 l 2
 86 33 101 45 101 77 c 2
 101 569 l 2
 101 601 86 613 46 613 c 2
 32 613 l 2
 28 613 24 616 24 621 c 2
 24 644 l 1
 27 646 l 1
 493 646 l 1
 497 588 504 535 514 484 c 1
 474 475 l 1
 460 526 435 600 368 600 c 2
 238 600 l 2
 229 600 224 592 224 571 c 2
 224 365 l 1
 337 365 l 2
 362 365 366 396 372 436 c 0
 372 440 378 447 388 447 c 2
 409 447 l 1
 415 437 l 1
 413 421 408 381 408 344 c 0
 408 308 413 268 415 251 c 1
 409 242 l 1
 388 242 l 2
 378 242 372 248 372 252 c 0
 366 293 362 323 337 323 c 2
 224 323 l 1
 224 75 l 2
 224 52 229 46 238 46 c 2
 391 46 l 2
 446 46 482 105 499 179 c 1
 542 169 l 1
 532 116 522 54 515 0 c 1
 506 0 l 2
 426 0 371 -75 371 -126 c 0
 371 -158 393 -185 429 -185 c 0
 459 -185 479 -170 499 -149 c 1
 514 -157 l 1
 490 -204 440 -224 404 -224 c 0
EndSplineSet
Substitution2: "LinLibertine-'c2sc' Versale nach Kapitaelchen 1" eogonek.sc
Position2: "'cpsp' Versalabstaende 1" dx=2 dy=0 dh=5 dv=0
EndChar

StartChar: eogonek
Encoding: 281 281 45
Width: 461
VWidth: 999
Flags: HW
HStem: -218 40<269.1 348.306> -10 56<218.732 346.305> 245 40<154 316> 402 42<199.114 288.493>
VStem: 34 115<124.669 245 285 306.603> 184 72<-166.748 -67.9608> 316 115<259 363.973>
LayerCount: 2
Fore
SplineSet
154 285 m 1
 314 285 l 1
 316 287 316 290 316 296 c 0
 316 376 275 402 248 402 c 0
 227 402 168 387 154 285 c 1
397 109 m 1
 422 88 l 1
 400.7 44.8 368.4 18.8 331.7 4.6 c 1
 292.6 -31.4 256 -70.1 256 -126 c 0
 256 -152 280 -178 311 -178 c 0
 328 -178 346 -164 367 -140 c 1
 389 -156 l 1
 361 -197 326 -218 287 -218 c 0
 231 -218 184 -187 184 -132 c 0
 184 -88.1 217.9 -45.3 258.4 -9.7 c 1
 254.3 -9.9 250.1 -10 246 -10 c 0
 94 -10 34 88 34 198 c 0
 34 351 144 444 249 444 c 0
 396 444 431 351 431 266 c 0
 431 252 416 245 392 245 c 2
 149 245 l 1
 149 240 149 226 149 219 c 0
 149 121 207 46 285 46 c 0
 323 46 360 64 397 109 c 1
EndSplineSet
Substitution2: "LinLibertine-'smcp' Gemeine nach Kapitaelchen 1" eogonek.sc
AlternateSubs2: "LinLibertine-'aalt' Alle Alternativen zeigen 1" eogonek.sc
EndChar

StartChar: Ecaron
Encoding: 282 282 46
Width: 562
VWidth: 999
Flags: HW
HStem: 0 33<27 94.1445> 0 46<224.232 442.935> 323 42<224 361.625> 427 20<383 415> 600 46<224.232 421.482> 613 33<27 94.1445>
VStem: 101 123<46.578 323 365 599.422> 372 36<251.814 315.565 372.621 436.233> 474 40<482.425 531.807> 499 43<118.211 170.628>
LayerCount: 2
Fore
SplineSet
268 697 m 1
 238 734 203 764 167 792 c 1
 183 812 l 1
 222 795 256 776 289 751 c 1
 326 777 358 796 396 812 c 1
 411 792 l 1
 373 763 341 731 311 697 c 1
 268 697 l 1
27 0 m 1
 24 2 l 1
 24 24 l 2
 24 30 28 33 32 33 c 2
 46 33 l 2
 86 33 101 45 101 77 c 2
 101 569 l 2
 101 601 86 613 46 613 c 2
 32 613 l 2
 28 613 24 616 24 621 c 2
 24 644 l 1
 27 646 l 1
 493 646 l 1
 497 588 504 535 514 484 c 1
 474 475 l 1
 460 526 435 600 368 600 c 2
 238 600 l 2
 229 600 224 592 224 571 c 2
 224 365 l 1
 337 365 l 2
 362 365 366 396 372 436 c 0
 372 440 378 447 388 447 c 2
 409 447 l 1
 415 437 l 1
 413 421 408 381 408 344 c 0
 408 308 413 268 415 251 c 1
 409 242 l 1
 388 242 l 2
 378 242 372 248 372 252 c 0
 366 293 362 323 337 323 c 2
 224 323 l 1
 224 75 l 2
 224 52 229 46 238 46 c 2
 391 46 l 2
 446 46 482 105 499 179 c 1
 542 169 l 1
 532 116 522 54 515 0 c 1
 27 0 l 1
EndSplineSet
Substitution2: "LinLibertine-'c2sc' Versale nach Kapitaelchen 1" ecaron.sc
Position2: "'cpsp' Versalabstaende 1" dx=2 dy=0 dh=5 dv=0
EndChar

StartChar: ecaron
Encoding: 283 283 47
Width: 461
VWidth: 999
Flags: HW
HStem: -10 56<218.732 346.305> 245 40<154 316> 402 42<199.114 288.493>
VStem: 34 115<124.669 245 285 306.603> 316 115<259 363.973>
LayerCount: 2
Fore
SplineSet
261 497 m 1
 211 497 l 1
 182 543 144 586 109 626 c 1
 133 644 l 1
 172 617 198 598 235 560 c 1
 269 596 299 617 338 644 c 1
 362 626 l 1
 326 586 290 544 261 497 c 1
154 285 m 1
 314 285 l 1
 316 287 316 290 316 296 c 0
 316 376 275 402 248 402 c 0
 227 402 168 387 154 285 c 1
397 109 m 1
 422 88 l 1
 385 13 315 -10 246 -10 c 0
 94 -10 34 88 34 198 c 0
 34 351 144 444 249 444 c 0
 396 444 431 351 431 266 c 0
 431 252 416 245 392 245 c 2
 149 245 l 1
 149 240 149 226 149 219 c 0
 149 121 207 46 285 46 c 0
 323 46 360 64 397 109 c 1
EndSplineSet
Substitution2: "LinLibertine-'smcp' Gemeine nach Kapitaelchen 1" ecaron.sc
AlternateSubs2: "LinLibertine-'aalt' Alle Alternativen zeigen 1" ecaron.sc
EndChar

StartChar: Gcircumflex
Encoding: 284 284 48
Width: 727
VWidth: 999
Flags: HW
HStem: -10 44<306.541 502.262> 272 34<440 520.715 652.798 706> 437 21<571 624> 617 41<300.747 473.546>
VStem: 29 130<202 430.82> 532 117<85.3282 262.125> 585 39<443.564 488.517>
LayerCount: 2
Fore
SplineSet
385 805 m 1
 415 769 450 738 486 711 c 1
 470 690 l 1
 431 708 397 727 364 752 c 1
 327 725 295 707 257 690 c 1
 243 711 l 1
 280 739 311 771 342 805 c 1
 385 805 l 1
649 229 m 2
 649 114 l 2
 649 99 653 92 661 85 c 1
 591 26 512 -10 386 -10 c 0
 173 -10 29 134 29 308 c 0
 29 528 205 658 383 658 c 0
 518 658 551 614 602 614 c 1
 605 556 614 500 624 445 c 1
 585 437 l 1
 557 531 509 617 382 617 c 0
 261 617 159 498 159 327 c 0
 159 176 243 34 404 34 c 0
 447 34 498 46 532 74 c 1
 532 229 l 2
 532 260 500 272 460 272 c 2
 446 272 l 2
 442 272 438 275 438 281 c 2
 438 304 l 1
 440 306 l 1
 440 306 537 304 576 304 c 0
 612 304 706 306 706 306 c 1
 708 304 l 1
 708 281 l 2
 708 275 705 272 700 272 c 2
 694 272 l 2
 653 272 649 256 649 229 c 2
EndSplineSet
Position2: "'cpsp' Versalabstaende 1" dx=2 dy=0 dh=5 dv=0
EndChar

StartChar: gcircumflex
Encoding: 285 285 49
Width: 508
VWidth: 999
Flags: HW
HStem: -238 42<178.622 331.027> -12 68<200.45 373.262> 135 37<205.129 289.171> 409 35<196.474 280.87> 424 43<370.607 460>
VStem: 38 94<-154.282 -55.8943> 62 106<210.3 365.373> 71 84<55.4643 131.752> 316 108<211.187 370.331> 406 91<-121.914 -39.1241>
LayerCount: 2
Fore
SplineSet
268 648 m 1
 298 599 336 555 373 514 c 1
 348 495 l 1
 305 521 276 541 241 578 c 1
 203 539 175 521 135 495 c 1
 110 514 l 1
 146 555 186 600 216 648 c 1
 268 648 l 1
312 284 m 0
 312 363 280 409 233 409 c 0
 194 409 164 375 164 301 c 0
 164 250 184 172 246 172 c 0
 272 172 312 188 312 284 c 0
183 -15 m 0
 171 -15 160 -15 150 -11 c 1
 129 -33 128 -62 128 -96 c 0
 128 -167 203 -196 231 -196 c 0
 306 -196 402 -156 402 -81 c 0
 402 -15 301 -12 256 -12 c 0
 247 -12 238 -13 225 -14 c 0
 210 -15 194 -15 183 -15 c 0
447 383 m 0
 422 383 414 399 410 412 c 1
 407 418 404 424 395 424 c 0
 385 424 374 416 366 406 c 1
 400 378 420 343 420 287 c 0
 420 189 335 135 241 135 c 0
 210 135 178.5 140 157.5 150 c 1
 152.5 138 151 117 151 101 c 0
 151 61 178 49 196 49 c 0
 205 49 252 56 290 56 c 0
 453 56 493 -17 493 -55 c 0
 493 -165 342 -238 203 -238 c 0
 121 -238 34 -205 34 -116 c 0
 34 -77 63 -34 115 1 c 1
 87 18 67 42 67 74 c 0
 67 105 89 138.5 119 166.5 c 1
 82 192 58 243 58 292 c 0
 58 385 146 444 242 444 c 0
 287 444 318 435 336 425 c 1
 365 451 410 467 437 467 c 0
 475 467 491 442 491 423 c 0
 491 399 475 383 447 383 c 0
EndSplineSet
EndChar

StartChar: Gbreve
Encoding: 286 286 50
Width: 727
VWidth: 999
Flags: HW
HStem: -10 44<306.541 502.262> 272 34<440 520.715 652.798 706> 437 21<571 624> 617 41<300.747 473.546> 693 52<292.738 450.296> 786 20<236 268 476.5 507>
VStem: 29 130<202 430.82> 236 28<781.047 806> 480 27<780.76 806> 532 117<85.3282 262.125> 585 39<443.564 488.517>
LayerCount: 2
Fore
SplineSet
507 806 m 1
 501 735 438 693 372 693 c 0
 299 693 241 736 236 806 c 1
 264 806 l 1
 272 767 319 745 372 745 c 0
 421 745 473 767 480 806 c 1
 507 806 l 1
649 229 m 2
 649 114 l 2
 649 99 653 92 661 85 c 1
 591 26 512 -10 386 -10 c 0
 173 -10 29 134 29 308 c 0
 29 528 205 658 383 658 c 0
 518 658 551 614 602 614 c 1
 605 556 614 500 624 445 c 1
 585 437 l 1
 557 531 509 617 382 617 c 0
 261 617 159 498 159 327 c 0
 159 176 243 34 404 34 c 0
 447 34 498 46 532 74 c 1
 532 229 l 2
 532 260 500 272 460 272 c 2
 446 272 l 2
 442 272 438 275 438 281 c 2
 438 304 l 1
 440 306 l 1
 440 306 537 304 576 304 c 0
 612 304 706 306 706 306 c 1
 708 304 l 1
 708 281 l 2
 708 275 705 272 700 272 c 2
 694 272 l 2
 653 272 649 256 649 229 c 2
EndSplineSet
Substitution2: "LinLibertine-'c2sc' Versale nach Kapitaelchen 1" gbreve.sc
Position2: "'cpsp' Versalabstaende 1" dx=2 dy=0 dh=5 dv=0
EndChar

StartChar: gbreve
Encoding: 287 287 51
Width: 508
VWidth: 999
Flags: HW
HStem: -238 42<178.622 331.027> -12 68<200.45 373.262> 135 37<205.129 289.171> 409 35<196.474 280.87> 424 43<370.607 460> 494 62<164.853 299.87>
VStem: 38 94<-154.282 -55.8943> 62 106<210.3 365.373> 71 84<55.4643 131.752> 97 32<600.278 635.062> 316 108<211.187 370.331> 336 31<601.121 635.161> 406 91<-121.914 -39.1241>
LayerCount: 2
Fore
SplineSet
125 649 m 1
 127 595 170 555 233 555 c 0
 280 555 337 585 340 649 c 1
 372 634 l 1
 362 529 284 491 233 491 c 0
 152 491 99 553 92 634 c 1
 125 649 l 1
312 284 m 0
 312 363 280 409 233 409 c 0
 194 409 164 375 164 301 c 0
 164 250 184 172 246 172 c 0
 272 172 312 188 312 284 c 0
183 -15 m 0
 171 -15 160 -15 150 -11 c 1
 129 -33 128 -62 128 -96 c 0
 128 -167 203 -196 231 -196 c 0
 306 -196 402 -156 402 -81 c 0
 402 -15 301 -12 256 -12 c 0
 247 -12 238 -13 225 -14 c 0
 210 -15 194 -15 183 -15 c 0
447 383 m 0
 422 383 414 399 410 412 c 1
 407 418 404 424 395 424 c 0
 385 424 374 416 366 406 c 1
 400 378 420 343 420 287 c 0
 420 189 335 135 241 135 c 0
 210 135 178.5 140 157.5 150 c 1
 152.5 138 151 117 151 101 c 0
 151 61 178 49 196 49 c 0
 205 49 252 56 290 56 c 0
 453 56 493 -17 493 -55 c 0
 493 -165 342 -238 203 -238 c 0
 121 -238 34 -205 34 -116 c 0
 34 -77 63 -34 115 1 c 1
 87 18 67 42 67 74 c 0
 67 105 89 138.5 119 166.5 c 1
 82 192 58 243 58 292 c 0
 58 385 146 444 242 444 c 0
 287 444 318 435 336 425 c 1
 365 451 410 467 437 467 c 0
 475 467 491 442 491 423 c 0
 491 399 475 383 447 383 c 0
EndSplineSet
Substitution2: "LinLibertine-'smcp' Gemeine nach Kapitaelchen 1" gbreve.sc
AlternateSubs2: "LinLibertine-'aalt' Alle Alternativen zeigen 1" gbreve.sc
EndChar

StartChar: Gdotaccent
Encoding: 288 288 52
Width: 727
VWidth: 999
Flags: HW
HStem: -10 44<306.541 502.262> 272 34<440 520.715 652.798 706> 437 21<571 624> 617 41<300.747 473.546> 694 120<340.745 433.255>
VStem: 29 130<202 430.82> 327 120<707.745 800.255> 532 117<85.3282 262.125> 585 39<443.564 488.517>
LayerCount: 2
Fore
SplineSet
325 754 m 0
 325 788 353 816 387 816 c 0
 421 816 449 788 449 754 c 0
 449 720 421 692 387 692 c 0
 353 692 325 720 325 754 c 0
649 229 m 2
 649 114 l 2
 649 99 653 92 661 85 c 1
 591 26 512 -10 386 -10 c 0
 173 -10 29 134 29 308 c 0
 29 528 205 658 383 658 c 0
 518 658 551 614 602 614 c 1
 605 556 614 500 624 445 c 1
 585 437 l 1
 557 531 509 617 382 617 c 0
 261 617 159 498 159 327 c 0
 159 176 243 34 404 34 c 0
 447 34 498 46 532 74 c 1
 532 229 l 2
 532 260 500 272 460 272 c 2
 446 272 l 2
 442 272 438 275 438 281 c 2
 438 304 l 1
 440 306 l 1
 440 306 537 304 576 304 c 0
 612 304 706 306 706 306 c 1
 708 304 l 1
 708 281 l 2
 708 275 705 272 700 272 c 2
 694 272 l 2
 653 272 649 256 649 229 c 2
EndSplineSet
Position2: "'cpsp' Versalabstaende 1" dx=2 dy=0 dh=5 dv=0
EndChar

StartChar: gdotaccent
Encoding: 289 289 53
Width: 508
VWidth: 999
Flags: HW
HStem: -238 42<178.622 331.027> -12 68<200.45 373.262> 135 37<205.129 289.171> 409 35<196.474 280.87> 424 43<370.607 460> 511 120<183.745 276.255>
VStem: 38 94<-154.282 -55.8943> 62 106<210.3 365.373> 71 84<55.4643 131.752> 170 120<524.745 617.255> 316 108<211.187 370.331> 406 91<-121.914 -39.1241>
LayerCount: 2
Fore
SplineSet
168 571 m 0
 168 605 196 633 230 633 c 0
 264 633 292 605 292 571 c 0
 292 537 264 509 230 509 c 0
 196 509 168 537 168 571 c 0
312 284 m 0
 312 363 280 409 233 409 c 0
 194 409 164 375 164 301 c 0
 164 250 184 172 246 172 c 0
 272 172 312 188 312 284 c 0
183 -15 m 0
 171 -15 160 -15 150 -11 c 1
 129 -33 128 -62 128 -96 c 0
 128 -167 203 -196 231 -196 c 0
 306 -196 402 -156 402 -81 c 0
 402 -15 301 -12 256 -12 c 0
 247 -12 238 -13 225 -14 c 0
 210 -15 194 -15 183 -15 c 0
447 383 m 0
 422 383 414 399 410 412 c 1
 407 418 404 424 395 424 c 0
 385 424 374 416 366 406 c 1
 400 378 420 343 420 287 c 0
 420 189 335 135 241 135 c 0
 210 135 178.5 140 157.5 150 c 1
 152.5 138 151 117 151 101 c 0
 151 61 178 49 196 49 c 0
 205 49 252 56 290 56 c 0
 453 56 493 -17 493 -55 c 0
 493 -165 342 -238 203 -238 c 0
 121 -238 34 -205 34 -116 c 0
 34 -77 63 -34 115 1 c 1
 87 18 67 42 67 74 c 0
 67 105 89 138.5 119 166.5 c 1
 82 192 58 243 58 292 c 0
 58 385 146 444 242 444 c 0
 287 444 318 435 336 425 c 1
 365 451 410 467 437 467 c 0
 475 467 491 442 491 423 c 0
 491 399 475 383 447 383 c 0
EndSplineSet
EndChar

StartChar: Gcommaaccent
Encoding: 290 290 54
Width: 727
VWidth: 999
Flags: HW
HStem: -231 17<330 351.215> -134 81<329.998 402.485> -10 44<306.541 502.262> 272 34<440 520.715 652.798 706> 437 21<571 624> 617 41<300.747 473.546>
VStem: 29 130<202 430.82> 405 32<-177.598 -107.5> 532 117<85.3282 262.125> 585 39<443.564 488.517>
LayerCount: 2
Fore
SplineSet
375 -53 m 0
 414 -53 437 -90 437 -125 c 0
 437 -151 420 -227 330 -231 c 1
 326 -214 l 1
 402 -199 405 -141 405 -135 c 0
 405 -131 404 -128 403 -125 c 1
 392 -131 382 -134 374 -134 c 0
 333 -134 324 -109 324 -93 c 0
 324 -77 339 -53 375 -53 c 0
649 229 m 2
 649 114 l 2
 649 99 653 92 661 85 c 1
 591 26 512 -10 386 -10 c 0
 173 -10 29 134 29 308 c 0
 29 528 205 658 383 658 c 0
 518 658 551 614 602 614 c 1
 605 556 614 500 624 445 c 1
 585 437 l 1
 557 531 509 617 382 617 c 0
 261 617 159 498 159 327 c 0
 159 176 243 34 404 34 c 0
 447 34 498 46 532 74 c 1
 532 229 l 2
 532 260 500 272 460 272 c 2
 446 272 l 2
 442 272 438 275 438 281 c 2
 438 304 l 1
 440 306 l 1
 440 306 537 304 576 304 c 0
 612 304 706 306 706 306 c 1
 708 304 l 1
 708 281 l 2
 708 275 705 272 700 272 c 2
 694 272 l 2
 653 272 649 256 649 229 c 2
EndSplineSet
Position2: "'cpsp' Versalabstaende 1" dx=2 dy=0 dh=5 dv=0
EndChar

StartChar: gcommaaccent
Encoding: 291 291 55
Width: 508
VWidth: 999
Flags: HW
HStem: -238 42<178.622 331.027> -12 68<200.45 373.262> 135 37<205.129 289.171> 409 35<196.474 280.87> 424 43<370.607 460> 511 82<199.561 272.708> 673 17<251.498 273>
VStem: 38 94<-154.282 -55.8943> 62 106<210.3 365.373> 71 84<55.4643 131.752> 166 32<584 635.93> 316 108<211.187 370.331> 406 91<-121.914 -39.1241>
LayerCount: 2
Fore
SplineSet
228 511 m 0
 189 511 166 548 166 584 c 0
 166 610 183 686 273 690 c 1
 277 673 l 1
 200 658 198 598 198 594 c 0
 198 590 199 587 199 584 c 1
 211 590 221 593 229 593 c 0
 269 593 279 568 279 551 c 0
 279 535 263 511 228 511 c 0
312 284 m 0
 312 363 280 409 233 409 c 0
 194 409 164 375 164 301 c 0
 164 250 184 172 246 172 c 0
 272 172 312 188 312 284 c 0
183 -15 m 0
 171 -15 160 -15 150 -11 c 1
 129 -33 128 -62 128 -96 c 0
 128 -167 203 -196 231 -196 c 0
 306 -196 402 -156 402 -81 c 0
 402 -15 301 -12 256 -12 c 0
 247 -12 238 -13 225 -14 c 0
 210 -15 194 -15 183 -15 c 0
447 383 m 0
 422 383 414 399 410 412 c 1
 407 418 404 424 395 424 c 0
 385 424 374 416 366 406 c 1
 400 378 420 343 420 287 c 0
 420 189 335 135 241 135 c 0
 210 135 178.5 140 157.5 150 c 1
 152.5 138 151 117 151 101 c 0
 151 61 178 49 196 49 c 0
 205 49 252 56 290 56 c 0
 453 56 493 -17 493 -55 c 0
 493 -165 342 -238 203 -238 c 0
 121 -238 34 -205 34 -116 c 0
 34 -77 63 -34 115 1 c 1
 87 18 67 42 67 74 c 0
 67 105 89 138.5 119 166.5 c 1
 82 192 58 243 58 292 c 0
 58 385 146 444 242 444 c 0
 287 444 318 435 336 425 c 1
 365 451 410 467 437 467 c 0
 475 467 491 442 491 423 c 0
 491 399 475 383 447 383 c 0
EndSplineSet
EndChar

StartChar: Hcircumflex
Encoding: 292 292 56
Width: 723
VWidth: 999
Flags: HW
HStem: -2 34<24 92.7241 229.184 297 427 495.724 632.184 700> 321 46<222 502> 613 34<24 92.7241 229.184 297 427 495.724 632.184 700>
VStem: 99 123<37.5094 321 367 607.491> 502 123<37.5094 321 367 607.491>
LayerCount: 2
Fore
SplineSet
502 569 m 2
 502 601 487 613 447 613 c 2
 433 613 l 2
 429 613 425 616 425 621 c 2
 425 645 l 1
 427 647 l 1
 427 647 524 645 563 645 c 0
 599 645 700 647 700 647 c 1
 702 645 l 1
 702 621 l 2
 702 616 699 613 694 613 c 2
 680 613 l 2
 639 613 625 597 625 569 c 2
 625 76 l 2
 625 48 639 32 680 32 c 2
 694 32 l 2
 699 32 702 29 702 23 c 2
 702 0 l 1
 700 -2 l 1
 700 -2 599 0 563 0 c 0
 524 0 427 -2 427 -2 c 1
 425 0 l 1
 425 23 l 2
 425 29 429 32 433 32 c 2
 447 32 l 2
 487 32 502 44 502 76 c 2
 502 321 l 1
 222 321 l 1
 222 76 l 2
 222 48 236 32 277 32 c 2
 291 32 l 2
 296 32 299 29 299 23 c 2
 299 0 l 1
 297 -2 l 1
 297 -2 196 0 160 0 c 0
 121 0 24 -2 24 -2 c 1
 22 0 l 1
 22 23 l 2
 22 29 26 32 30 32 c 2
 44 32 l 2
 84 32 99 44 99 76 c 2
 99 569 l 2
 99 601 84 613 44 613 c 2
 30 613 l 2
 26 613 22 616 22 621 c 2
 22 645 l 1
 24 647 l 1
 24 647 121 645 160 645 c 0
 196 645 297 647 297 647 c 1
 299 645 l 1
 299 621 l 2
 299 616 296 613 291 613 c 2
 277 613 l 2
 236 613 222 597 222 569 c 2
 222 367 l 1
 502 367 l 1
 502 569 l 2
368 803 m 1
 398 767 433 736 469 709 c 1
 453 688 l 1
 414 706 380 725 347 750 c 1
 310 723 278 705 240 688 c 1
 226 709 l 1
 263 737 294 769 325 803 c 1
 368 803 l 1
EndSplineSet
Position2: "'cpsp' Versalabstaende 1" dx=2 dy=0 dh=5 dv=0
EndChar

StartChar: hcircumflex
Encoding: 293 293 57
Width: 550
VWidth: 999
Flags: HW
HStem: -2 34<19 37 517 534> 390 55<268.267 393> 638 34<17.016 55> 678 20<169.465 186.5>
VStem: 85 110<43.2797 355.227 381 635.227> 358 110<43.1478 384.199>
LayerCount: 2
Fore
SplineSet
286 832 m 1
 316 796 351 765 387 738 c 1
 371 717 l 1
 332 735 298 754 265 779 c 1
 228 752 196 734 158 717 c 1
 144 738 l 1
 181 766 212 798 243 832 c 1
 286 832 l 1
468 77 m 2
 468 49 484.4 39.9 517 34 c 2
 528 32 l 2
 531.9 31.3 536 29 536 23 c 2
 536 0 l 1
 534 -2 l 1
 534 -2 450 0 411 0 c 0
 376 0 297 -2 297 -2 c 1
 295 0 l 1
 295 23 l 2
 295 29 298.1 31.2 303 32 c 2
 310 34 l 2
 340.8 42.8 358 49 358 77 c 2
 358 295 l 2
 358 373 348 390 308 390 c 0
 290 390 241 374 195 341 c 1
 195 77 l 2
 195 49 212.1 43.1 244 34 c 2
 251 32 l 2
 254.9 31.3 259 29 259 23 c 2
 259 0 l 1
 257 -2 l 1
 257 -2 177 0 138 0 c 0
 103 0 19 -2 19 -2 c 1
 17 0 l 1
 17 23 l 2
 17 29 20.1 31.2 25 32 c 2
 37 34 l 2
 68.6 39.3 85 49 85 77 c 2
 85 563 l 2
 85 628 75 636 55 636 c 1
 23 638 l 2
 19.8 638.2 17.3 640 17 643 c 2
 14 672 l 1
 54.5 675 156.9 688 182 698 c 1
 191 698 198 695 198 688 c 2
 198 688 195 648 195 583 c 2
 195 381 l 1
 250 422 313 445 350 445 c 0
 436 445 468 389 468 284 c 2
 468 77 l 2
EndSplineSet
EndChar

StartChar: Hbar
Encoding: 294 294 58
Width: 723
VWidth: 999
Flags: HW
HStem: -2 34<24 92.7241 229.184 297 427 495.724 632.184 700> 321 46<222 502> 510 39<41 656> 613 34<24 92.7241 229.184 297 427 495.724 632.184 700>
VStem: 99 123<37.5094 321 367 607.491> 502 123<37.5094 321 367 607.491>
LayerCount: 2
Fore
SplineSet
502 569 m 2
 502 601 487 613 447 613 c 2
 433 613 l 2
 429 613 425 616 425 621 c 2
 425 645 l 1
 427 647 l 1
 427 647 524 645 563 645 c 0
 599 645 700 647 700 647 c 1
 702 645 l 1
 702 621 l 2
 702 616 699 613 694 613 c 2
 680 613 l 2
 639 613 625 597 625 569 c 2
 625 549 l 1
 656 549 l 1
 656 510 l 1
 625 510 l 1
 625 76 l 2
 625 48 639 32 680 32 c 2
 694 32 l 2
 699 32 702 29 702 23 c 2
 702 0 l 1
 700 -2 l 1
 700 -2 599 0 563 0 c 0
 524 0 427 -2 427 -2 c 1
 425 0 l 1
 425 23 l 2
 425 29 429 32 433 32 c 2
 447 32 l 2
 487 32 502 44 502 76 c 2
 502 321 l 1
 222 321 l 1
 222 76 l 2
 222 48 236 32 277 32 c 2
 291 32 l 2
 296 32 299 29 299 23 c 2
 299 0 l 1
 297 -2 l 1
 297 -2 196 0 160 0 c 0
 121 0 24 -2 24 -2 c 1
 22 0 l 1
 22 23 l 2
 22 29 26 32 30 32 c 2
 44 32 l 2
 84 32 99 44 99 76 c 2
 99 510 l 1
 41 510 l 1
 41 549 l 1
 99 549 l 1
 99 569 l 2
 99 601 84 613 44 613 c 2
 30 613 l 2
 26 613 22 616 22 621 c 2
 22 645 l 1
 24 647 l 1
 24 647 121 645 160 645 c 0
 196 645 297 647 297 647 c 1
 299 645 l 1
 299 621 l 2
 299 616 296 613 291 613 c 2
 277 613 l 2
 236 613 222 597 222 569 c 2
 222 549 l 1
 502 549 l 1
 502 569 l 2
502 510 m 1
 222 510 l 1
 222 367 l 1
 502 367 l 1
 502 510 l 1
EndSplineSet
Position2: "'cpsp' Versalabstaende 1" dx=2 dy=0 dh=5 dv=0
EndChar

StartChar: hbar
Encoding: 295 295 59
Width: 550
VWidth: 999
Flags: HW
HStem: -2 34<19 37 517 534> 390 55<268.267 393> 530 39<26 341> 638 34<17.016 55> 678 20<169.465 186.5>
VStem: 85 110<43.2797 355.227 381 635.227> 358 110<43.1478 384.199>
LayerCount: 2
Fore
SplineSet
468 77 m 2
 468 49 484.4 39.9 517 34 c 2
 528 32 l 2
 531.9 31.3 536 29 536 23 c 2
 536 0 l 1
 534 -2 l 1
 534 -2 450 0 411 0 c 0
 376 0 297 -2 297 -2 c 1
 295 0 l 1
 295 23 l 2
 295 29 298.1 31.2 303 32 c 2
 310 34 l 2
 340.8 42.8 358 49 358 77 c 2
 358 295 l 2
 358 373 348 390 308 390 c 0
 290 390 241 374 195 341 c 1
 195 77 l 2
 195 49 212.1 43.1 244 34 c 2
 251 32 l 2
 254.9 31.3 259 29 259 23 c 2
 259 0 l 1
 257 -2 l 1
 257 -2 177 0 138 0 c 0
 103 0 19 -2 19 -2 c 1
 17 0 l 1
 17 23 l 2
 17 29 20.1 31.2 25 32 c 2
 37 34 l 2
 68.6 39.3 85 49 85 77 c 2
 85 530 l 1
 26 530 l 1
 26 569 l 1
 85 569 l 1
 84.4 628.5 74.4 636 55 636 c 1
 23 638 l 2
 19.8 638.2 17.3 640 17 643 c 2
 14 672 l 1
 54.5 675 156.9 688 182 698 c 1
 191 698 198 695 198 688 c 2
 198 688 195 648 195 583 c 2
 195 569 l 1
 341 569 l 1
 341 530 l 1
 195 530 l 1
 195 381 l 1
 250 422 313 445 350 445 c 0
 436 445 468 389 468 284 c 2
 468 77 l 2
EndSplineSet
EndChar

StartChar: Itilde
Encoding: 296 296 60
Width: 319
VWidth: 999
Flags: HW
HStem: -2 34<24 92.7241 228.184 296> 613 34<24 92.7241 228.184 296> 687 58<176 259.543> 741 59<57.7435 144.285>
VStem: 22 25<695.76 721.045> 99 122<37.5094 607.491> 273 26<767.869 793.692>
LayerCount: 2
Fore
SplineSet
228 745 m 0
 250 745 263 754 277 803 c 1
 305 793 l 1
 292 725 262 685 214 685 c 0
 191 685 169 700 149 715 c 1
 129 728 109 741 91 741 c 0
 64 741 53 726 42 688 c 1
 16 696 l 1
 30 764 54 802 99 802 c 0
 130 802 153 786 173 770 c 0
 191 756 208 745 228 745 c 0
221 76 m 2
 221 48 235 32 276 32 c 2
 290 32 l 2
 295 32 298 29 298 23 c 2
 298 0 l 1
 296 -2 l 1
 296 -2 196 0 160 0 c 0
 121 0 24 -2 24 -2 c 1
 22 0 l 1
 22 23 l 2
 22 29 26 32 30 32 c 2
 44 32 l 2
 84 32 99 44 99 76 c 2
 99 569 l 2
 99 601 84 613 44 613 c 2
 30 613 l 2
 26 613 22 616 22 621 c 2
 22 645 l 1
 24 647 l 1
 24 647 121 645 160 645 c 0
 196 645 296 647 296 647 c 1
 298 645 l 1
 298 621 l 2
 298 616 295 613 290 613 c 2
 276 613 l 2
 235 613 221 597 221 569 c 2
 221 76 l 2
EndSplineSet
Position2: "'cpsp' Versalabstaende 1" dx=2 dy=0 dh=5 dv=0
EndChar

StartChar: itilde
Encoding: 297 297 61
Width: 286
VWidth: 999
Flags: HW
HStem: -2 34<37 54 258 274> 383 34<38 79> 427 20<191.25 208.219> 516 58<150.8 225.989> 570 59<44.3691 122.257>
VStem: 12.2 22.5<524.76 550.045> 101 110<41.5278 379> 238.1 23.4<596.869 622.692>
LayerCount: 2
Fore
SplineSet
197.6 574 m 0
 217.4 574 229.1 583 241.7 632 c 1
 266.9 622 l 1
 255.2 554 228.2 514 185 514 c 0
 164.3 514 144.5 529 126.5 544 c 1
 108.5 557 90.5 570 74.3 570 c 0
 50 570 40.1 555 30.2 517 c 1
 6.8 525 l 1
 19.4 593 41 631 81.5 631 c 0
 109.4 631 130.1 615 148.1 599 c 0
 164.3 585 179.6 574 197.6 574 c 0
211 321.3 m 2
 211 77 l 2
 211 49 228.4 39.9 258 34 c 2
 268 32 l 2
 271.9 31.1 276 29 276 23 c 2
 276 0 l 1
 274 -2 l 1
 274 -2 193 0 154 0 c 0
 118 0 37 -2 37 -2 c 1
 35 0 l 1
 35 23 l 2
 35 29 38.1 31.3 42 32 c 2
 54 34 l 2
 85 39.2 101 49 101 77 c 2
 101 321 l 2
 101 371 93.4 377.6 79 379 c 2
 38 383 l 1
 36 417 l 1
 105.5 426.5 175.5 437 207 447 c 0
 209.4 447 214 446.4 214 444 c 2
 214 444 211 371.3 211 321.3 c 2
EndSplineSet
EndChar

StartChar: Imacron
Encoding: 298 298 62
Width: 319
VWidth: 999
Flags: HW
HStem: -2 34<24 92.7241 228.184 296> 613 34<24 92.7241 228.184 296> 731 48<10.8231 309.922>
VStem: 9 303<731.402 778.772> 99 122<37.5094 607.491>
LayerCount: 2
Fore
SplineSet
292 730 m 2
 18 730 l 2
 7 730 3 739 3 748 c 0
 3 760 15 780 28 780 c 2
 304 780 l 2
 314 780 318 771 318 763 c 0
 318 750 306 730 292 730 c 2
221 76 m 2
 221 48 235 32 276 32 c 2
 290 32 l 2
 295 32 298 29 298 23 c 2
 298 0 l 1
 296 -2 l 1
 296 -2 196 0 160 0 c 0
 121 0 24 -2 24 -2 c 1
 22 0 l 1
 22 23 l 2
 22 29 26 32 30 32 c 2
 44 32 l 2
 84 32 99 44 99 76 c 2
 99 569 l 2
 99 601 84 613 44 613 c 2
 30 613 l 2
 26 613 22 616 22 621 c 2
 22 645 l 1
 24 647 l 1
 24 647 121 645 160 645 c 0
 196 645 296 647 296 647 c 1
 298 645 l 1
 298 621 l 2
 298 616 295 613 290 613 c 2
 276 613 l 2
 235 613 221 597 221 569 c 2
 221 76 l 2
EndSplineSet
Position2: "'cpsp' Versalabstaende 1" dx=2 dy=0 dh=5 dv=0
EndChar

StartChar: imacron
Encoding: 299 299 63
Width: 286
VWidth: 999
Flags: HW
HStem: -2 34<37 54 258 274> 383 34<38 79> 427 20<191.25 208.219> 536 48<0.140752 269.33>
VStem: -1.5 272.7<536.402 583.772> 101 110<41.5278 379>
LayerCount: 2
Fore
SplineSet
253.2 535 m 2
 6.6 535 l 2
 -3.3 535 -6.9 544 -6.9 553 c 0
 -6.9 565 3.9 585 15.6 585 c 2
 264 585 l 2
 273 585 276.6 576 276.6 568 c 0
 276.6 555 265.8 535 253.2 535 c 2
211 321.3 m 2
 211 77 l 2
 211 49 228.4 39.9 258 34 c 2
 268 32 l 2
 271.9 31.1 276 29 276 23 c 2
 276 0 l 1
 274 -2 l 1
 274 -2 193 0 154 0 c 0
 118 0 37 -2 37 -2 c 1
 35 0 l 1
 35 23 l 2
 35 29 38.1 31.3 42 32 c 2
 54 34 l 2
 85 39.2 101 49 101 77 c 2
 101 321 l 2
 101 371 93.4 377.6 79 379 c 2
 38 383 l 1
 36 417 l 1
 105.5 426.5 175.5 437 207 447 c 0
 209.4 447 214 446.4 214 444 c 2
 214 444 211 371.3 211 321.3 c 2
EndSplineSet
EndChar

StartChar: Ibreve
Encoding: 300 300 64
Width: 319
VWidth: 999
Flags: HW
HStem: -2 34<24 92.7241 228.184 296> 613 34<24 92.7241 228.184 296> 692 52<69.7383 227.296> 785 20<13 45 253.5 284>
VStem: 13 28<780.047 805> 99 122<37.5094 607.491> 257 27<779.76 805>
LayerCount: 2
Fore
SplineSet
284 805 m 1
 278 734 215 692 149 692 c 0
 76 692 18 735 13 805 c 1
 41 805 l 1
 49 766 96 744 149 744 c 0
 198 744 250 766 257 805 c 1
 284 805 l 1
221 76 m 2
 221 48 235 32 276 32 c 2
 290 32 l 2
 295 32 298 29 298 23 c 2
 298 0 l 1
 296 -2 l 1
 296 -2 196 0 160 0 c 0
 121 0 24 -2 24 -2 c 1
 22 0 l 1
 22 23 l 2
 22 29 26 32 30 32 c 2
 44 32 l 2
 84 32 99 44 99 76 c 2
 99 569 l 2
 99 601 84 613 44 613 c 2
 30 613 l 2
 26 613 22 616 22 621 c 2
 22 645 l 1
 24 647 l 1
 24 647 121 645 160 645 c 0
 196 645 296 647 296 647 c 1
 298 645 l 1
 298 621 l 2
 298 616 295 613 290 613 c 2
 276 613 l 2
 235 613 221 597 221 569 c 2
 221 76 l 2
EndSplineSet
Position2: "'cpsp' Versalabstaende 1" dx=2 dy=0 dh=5 dv=0
EndChar

StartChar: ibreve
Encoding: 301 301 65
Width: 286
VWidth: 999
Flags: HW
HStem: -2 34<37 54 258 274> 383 34<38 79> 427 20<191.25 208.219> 500 62<75.7674 197.283>
VStem: 14.7 28.8<606.278 641.062> 101 110<41.5278 379> 229.8 27.9<607.121 641.161>
LayerCount: 2
Fore
SplineSet
39.9 655 m 1
 41.7 601 80.4 561 137.1 561 c 0
 179.4 561 230.7 591 233.4 655 c 1
 262.2 640 l 1
 253.2 535 183 497 137.1 497 c 0
 64.2 497 16.5 559 10.2 640 c 1
 39.9 655 l 1
211 321.3 m 2
 211 77 l 2
 211 49 228.4 39.9 258 34 c 2
 268 32 l 2
 271.9 31.1 276 29 276 23 c 2
 276 0 l 1
 274 -2 l 1
 274 -2 193 0 154 0 c 0
 118 0 37 -2 37 -2 c 1
 35 0 l 1
 35 23 l 2
 35 29 38.1 31.3 42 32 c 2
 54 34 l 2
 85 39.2 101 49 101 77 c 2
 101 321 l 2
 101 371 93.4 377.6 79 379 c 2
 38 383 l 1
 36 417 l 1
 105.5 426.5 175.5 437 207 447 c 0
 209.4 447 214 446.4 214 444 c 2
 214 444 211 371.3 211 321.3 c 2
EndSplineSet
EndChar

StartChar: Iogonek
Encoding: 302 302 66
Width: 319
VWidth: 999
Flags: HW
HStem: -225 39<153.181 237.134> -2 34<24 92.7241 228.184 296> -1 25<222.256 258.88> 613 34<24 92.7241 228.184 296>
VStem: 79 60<-174.091 -75.5789> 99 122<37.5094 607.491>
LayerCount: 2
Fore
SplineSet
172 -225 m 0
 119 -225 79 -194 79 -140 c 0
 79 -92.1 119.7 -33.3 180.8 -0.1 c 1
 172.7 0 165.6 0 160 0 c 0
 121 0 24 -2 24 -2 c 1
 22 0 l 1
 22 23 l 2
 22 29 26 32 30 32 c 2
 44 32 l 2
 84 32 99 44 99 76 c 2
 99 569 l 2
 99 601 84 613 44 613 c 2
 30 613 l 2
 26 613 22 616 22 621 c 2
 22 645 l 1
 24 647 l 1
 24 647 121 645 160 645 c 0
 196 645 296 647 296 647 c 1
 298 645 l 1
 298 621 l 2
 298 616 295 613 290 613 c 2
 276 613 l 2
 235 613 221 597 221 569 c 2
 221 76 l 2
 221 48 235 32 276 32 c 2
 290 32 l 2
 295 32 298 29 298 23 c 2
 298 0 l 1
 296 -2 l 1
 296 -2 282.7 -1.7 264 -1.4 c 1
 189.5 -7.3 139 -78.2 139 -127 c 0
 139 -159 161 -186 197 -186 c 0
 227 -186 248 -171 267 -150 c 1
 282 -158 l 1
 258 -205 208 -225 172 -225 c 0
EndSplineSet
Position2: "'cpsp' Versalabstaende 1" dx=2 dy=0 dh=5 dv=0
EndChar

StartChar: iogonek
Encoding: 303 303 67
Width: 286
VWidth: 999
Flags: HW
HStem: -225 39<121.213 203.704> -2 34<37 54 258 274> -1 25<188.395 224.88> 387 30<38 79> 427 20<191.25 208.219> 511 120<108.745 201.255>
VStem: 46 60<-174.091 -75.5789> 101 110<41.5278 383 522.108 619.892>
LayerCount: 2
Fore
SplineSet
139 -225 m 0
 85 -225 46 -194 46 -140 c 0
 46 -92 86.3 -33.2 147.2 -0 c 1
 108.7 -0.2 37 -2 37 -2 c 2
 35 0 l 1
 35 23 l 2
 35 29 38.1 31.3 42 32 c 2
 54 34 l 2
 85 39.2 101 49 101 77 c 2
 101 321 l 2
 101 371 93 382 79 383 c 2
 38 387 l 1
 36 417 l 1
 105.5 426.5 175.5 437 207 447 c 0
 209.4 447 214 446.4 214 444 c 2
 214 444 211 371.3 211 321.3 c 2
 211 77 l 2
 211 49 228.4 39.9 258 34 c 2
 268 32 l 2
 271.9 31.1 276 29 276 23 c 2
 276 0 l 1
 274 -2 l 1
 274 -2 256.8 -1.6 234.5 -1.1 c 1
 157.5 -4.4 106 -77.2 106 -127 c 0
 106 -159 128 -186 164 -186 c 0
 194 -186 214 -171 233 -150 c 1
 249 -158 l 1
 225 -205 174 -225 139 -225 c 0
95 571 m 0
 95 604 122 631 155 631 c 0
 188 631 215 604 215 571 c 0
 215 538 188 511 155 511 c 0
 122 511 95 538 95 571 c 0
EndSplineSet
EndChar

StartChar: Idotaccent
Encoding: 304 304 68
Width: 319
VWidth: 999
Flags: HW
HStem: -2 34<24 92.7241 228.184 296> 613 34<24 92.7241 228.184 296> 691 120<111.745 204.255>
VStem: 98 120<704.745 797.255> 99 122<37.5094 607.491>
LayerCount: 2
Fore
SplineSet
96 751 m 0
 96 785 124 813 158 813 c 0
 192 813 220 785 220 751 c 0
 220 717 192 689 158 689 c 0
 124 689 96 717 96 751 c 0
221 76 m 2
 221 48 235 32 276 32 c 2
 290 32 l 2
 295 32 298 29 298 23 c 2
 298 0 l 1
 296 -2 l 1
 296 -2 196 0 160 0 c 0
 121 0 24 -2 24 -2 c 1
 22 0 l 1
 22 23 l 2
 22 29 26 32 30 32 c 2
 44 32 l 2
 84 32 99 44 99 76 c 2
 99 569 l 2
 99 601 84 613 44 613 c 2
 30 613 l 2
 26 613 22 616 22 621 c 2
 22 645 l 1
 24 647 l 1
 24 647 121 645 160 645 c 0
 196 645 296 647 296 647 c 1
 298 645 l 1
 298 621 l 2
 298 616 295 613 290 613 c 2
 276 613 l 2
 235 613 221 597 221 569 c 2
 221 76 l 2
EndSplineSet
Substitution2: "LinLibertine-'c2sc' Versale nach Kapitaelchen 1" idotaccent.sc
Position2: "'cpsp' Versalabstaende 1" dx=2 dy=0 dh=5 dv=0
EndChar

StartChar: afii10057
Encoding: 1032 1032 69
Width: 421
VWidth: 999
Flags: HW
HStem: -12 45<128.368 189.227> 618 27<104 186.714 340.114 407>
VStem: 27 97<34.3298 111.783> 208 122<79.5665 604.618>
LayerCount: 2
Fore
SplineSet
152 33 m 0
 201 33 208 88 208 181 c 2
 208 559 l 2
 208 589 186 618 146 618 c 2
 110 618 l 2
 105 618 102 621 102 626 c 2
 102 645 l 1
 104 646 l 1
 104 646 249 645 288 645 c 0
 323 645 407 646 407 646 c 1
 409 645 l 1
 409 626 l 2
 409 621 406 618 401 618 c 2
 384 618 l 2
 343 618 330 602 330 574 c 2
 330 203 l 2
 330 24 236 -12 173 -12 c 0
 108 -12 27 23 27 67 c 0
 27 91 39 121 72 121 c 0
 104 121 121 98 124 74 c 0
 126 57 130 33 152 33 c 0
EndSplineSet
EndChar

StartChar: afii10061
Encoding: 1036 1036 70
Width: 602
VWidth: 999
Flags: HW
HStem: -2 34<24 92.7241 228.184 296> 0 33<542.263 589> 320 48<205 297.793> 585 66<442.159 511.033> 613 34<24 92.7241 228.184 296>
VStem: 99 122<37.5094 607.491>
LayerCount: 2
Fore
SplineSet
427 820 m 1
 489 768 l 1
 345 710 l 2
 324 701 311 698 302 698 c 0
 293 698 288 703 288 713 c 0
 288 720 290 725 303 734 c 2
 427 820 l 1
221 76 m 2
 221 48 235 32 276 32 c 2
 290 32 l 2
 295 32 298 29 298 23 c 2
 298 0 l 1
 296 -2 l 1
 296 -2 196 0 160 0 c 0
 121 0 24 -2 24 -2 c 1
 22 0 l 1
 22 23 l 2
 22 29 26 32 30 32 c 2
 44 32 l 2
 84 32 99 44 99 76 c 2
 99 569 l 2
 99 601 84 613 44 613 c 2
 30 613 l 2
 26 613 22 616 22 621 c 2
 22 645 l 1
 24 647 l 1
 24 647 121 645 160 645 c 0
 196 645 296 647 296 647 c 1
 298 645 l 1
 298 621 l 2
 298 616 295 613 290 613 c 2
 276 613 l 2
 235 613 221 597 221 569 c 2
 221 368.1 l 1
 251.4 368.6 286.7 371.2 307 383 c 0
 360 416 370 488 377 544 c 0
 385 602 443 651 506 651 c 0
 554 651 585 624 585 601 c 0
 585 564 560 554 541 554 c 0
 529 554 515 559 507 567 c 1
 498 578 486 585 475 585 c 0
 454 585 436 562 431 533 c 0
 421 470 405 368 333 343 c 1
 396 343 414 296 438 236 c 0
 490 103 541 33 574 33 c 2
 583 33 l 2
 587 33 590 30 590 24 c 2
 590 1 l 1
 589 -1 l 1
 503 0 l 2
 431 1 402 70 364 180 c 0
 329.9 276.7 313.7 315.9 221 319.7 c 1
 221 76 l 2
EndSplineSet
LCarets2: 1 0 
EndChar

StartChar: uni040D
Encoding: 1037 1037 71
Width: 783
VWidth: 999
Flags: HW
HStem: -1 34<20 99.155 235.539 315 468 548.095 683.276 765> 613 32<20 99.4609 236.442 315 468 547.537 685.451 764>
VStem: 106 123<38.5094 78 146 607.764> 555 122<38.2361 493 561 607.252>
DStem2: 229 146 229 78 0.617738 0.786384<0 474.258>
LayerCount: 2
Fore
SplineSet
298 818 m 1
 419 734 l 2
 430 726 434 720 434 713 c 0
 434 703 429 698 419 698 c 0
 411 698 398 701 376 710 c 2
 222 773 l 1
 298 818 l 1
677 569 m 2
 677 76 l 2
 677 45 692 33 732 33 c 2
 758 33 l 2
 763 33 767 30 767 24 c 2
 767 1 l 1
 765 -1 l 1
 765 -1 660 1 621 1 c 0
 585 1 468 -1 468 -1 c 1
 466 1 l 1
 466 24 l 2
 466 30 469 33 474 33 c 2
 500 33 l 2
 542 33 555 48 555 76 c 2
 555 493 l 1
 229 78 l 1
 229 77 l 2
 229 46 243 33 283 33 c 2
 310 33 l 2
 313 33 317 30 317 24 c 2
 317 1 l 1
 315 -1 l 1
 315 -1 208 1 169 1 c 0
 134 1 20 -1 20 -1 c 1
 18 1 l 1
 18 24 l 2
 18 30 21 33 25 33 c 2
 52 33 l 2
 93 33 106 49 106 77 c 2
 106 570 l 2
 106 601 92 613 52 613 c 2
 25 613 l 2
 21 613 18 616 18 621 c 2
 18 645 l 1
 20 646 l 1
 20 646 127 644 167 644 c 0
 202 644 315 646 315 646 c 1
 317 645 l 1
 317 621 l 2
 317 616 314 613 310 613 c 2
 283 613 l 2
 242 613 229 598 229 570 c 2
 229 146 l 1
 555 561 l 1
 555 569 l 2
 555 600 540 613 500 613 c 2
 474 613 l 2
 470 613 466 616 466 621 c 2
 466 645 l 1
 468 646 l 1
 468 646 578 644 617 644 c 0
 653 644 764 647 764 647 c 1
 766 645 l 1
 766 622 l 2
 766 616 763 613 758 613 c 2
 732 613 l 2
 691 613 677 597 677 569 c 2
EndSplineSet
LCarets2: 1 0 
EndChar

StartChar: afii10062
Encoding: 1038 1038 72
Width: 621
VWidth: 999
Flags: HW
HStem: -22 64<180.643 263.693> 613 32<1 59.1675 206.362 277 412 484.667 556.138 620> 697 31<283.536 374.309>
VStem: 204 70<735.681 802.162> 383 70<734.774 802.125>
DStem2: 212 575 88 559 0.419188 -0.907899<-30.5778 352.637> 293 115 383 161 0.361446 0.932393<-71.674 0 153.097 525.366>
LayerCount: 2
Fore
SplineSet
453 774 m 0
 453 722 391 697 328 697 c 0
 262 697 204 721 204 773 c 0
 204 795 216 804 243 804 c 0
 264 804 274 788 274 773 c 0
 274 771 273 766 273 765 c 0
 273 745 296 728 329 728 c 0
 359 728 384 742 384 764 c 0
 384 765 383 772 383 773 c 0
 383 788 392 804 415 804 c 0
 441 804 453 794 453 774 c 0
216 42 m 0
 246 42 265 50 293 115 c 1
 88 559 l 2
 79 579 59 613 10 613 c 0
 4 613 0 616 0 621 c 2
 0 645 l 1
 1 646 l 1
 1 646 64 645 105 645 c 0
 155 645 277 646 277 646 c 1
 279 645 l 1
 279 621 l 2
 279 616 276 613 272 613 c 2
 234 613 l 2
 201 613 201 602 212 575 c 1
 358 254 l 1
 479 575 l 2
 493 610 487 613 446 613 c 2
 416 613 l 2
 413 613 410 616 410 621 c 2
 410 645 l 1
 412 646 l 1
 412 646 498 645 540 645 c 0
 572 645 620 646 620 646 c 1
 622 645 l 1
 622 621 l 2
 622 615 615 613 611 613 c 0
 565 613 555 606 540 566 c 2
 383 161 l 2
 340 52 285 -22 195 -22 c 0
 135 -22 84 8 84 40 c 0
 84 68 97 88 129 88 c 0
 154 88 170 77 179 65 c 1
 187 56 201 42 216 42 c 0
EndSplineSet
LCarets2: 1 0 
EndChar

StartChar: afii10020
Encoding: 1043 1043 73
Width: 511
VWidth: 999
Flags: HW
HStem: -1 34<24 93.4759 228.845 296> 599 47<226.022 406.689> 613 33<26 97.6381>
VStem: 100 122<38.5094 596.457> 473 39<471.385 516.618>
LayerCount: 2
Fore
SplineSet
100 77 m 2
 100 573 l 2
 100 605 94 613 70 613 c 2
 38 613 l 2
 26 613 22 617 22 625 c 2
 22 643 l 1
 26 646 l 1
 488 646 l 1
 490 589 501 526 512 473 c 1
 473 464 l 1
 457 525 421 599 342 599 c 2
 256 599 l 2
 235 599 222 583 222 553 c 2
 222 77 l 2
 222 49 235 33 276 33 c 2
 291 33 l 2
 295 33 298 30 298 24 c 2
 298 1 l 1
 296 -1 l 1
 296 -1 196 1 161 1 c 0
 122 1 24 -1 24 -1 c 1
 22 1 l 1
 22 24 l 2
 22 30 26 33 31 33 c 2
 45 33 l 2
 84 33 100 45 100 77 c 2
EndSplineSet
EndChar

StartChar: afii10021
Encoding: 1044 1044 74
Width: 696
VWidth: 999
Flags: HW
HStem: 0 44<203.009 462.408> 600 46<287.63 462.754> 611 35<149 219.411 590.322 660>
VStem: 34 43<-141 -76.4499> 464 122<44.8806 598.625> 620 43<-141 -83.4829>
LayerCount: 2
Fore
SplineSet
112 52 m 0
 136 80 156 145 188 301 c 1
 210 415 222 512 222 576 c 0
 222 600 213 611 187 611 c 2
 157 611 l 2
 152 611 149 616 149 620 c 2
 149 637 l 2
 149 641 155 646 162 646 c 2
 655 646 l 2
 658 646 660 642 660 639 c 2
 660 620 l 2
 660 614 656 611 652 611 c 2
 623 611 l 2
 591 611 586 595 586 560 c 2
 586 83 l 2
 586 46 609 33 626 33 c 0
 648 33 656 20 656 8 c 2
 663 -141 l 1
 620 -141 l 1
 608 -85 567 0 487 0 c 2
 202 0 l 2
 118 0 88 -89 77 -141 c 1
 34 -141 l 1
 41 8 l 2
 41 20 52 33 62 33 c 0
 82 33 95 33 112 52 c 0
426 600 m 2
 324 600 l 2
 297 600 286 586 284 561 c 0
 276 459 262 361 249 293 c 0
 227 176 203 82 203 61 c 0
 203 49 215 44 230 44 c 2
 427 44 l 2
 451 44 464 47 464 83 c 2
 464 561 l 2
 464 591 458 600 426 600 c 2
EndSplineSet
EndChar

StartChar: afii10024
Encoding: 1046 1046 75
Width: 897
VWidth: 999
Flags: HW
HStem: -2 34<313 381.724 517.184 585> -1 34<9 55.737 842.263 889> 320 48<300.207 393 505 597.069> 585 66<86.2285 155.465 741.912 811.03> 613 34<313 381.724 517.184 585>
VStem: 388 122<37.5094 607.491>
LayerCount: 2
Fore
SplineSet
889 -1 m 1
 803 0 l 2
 731 1 702 70 664 180 c 1
 627.6 280.4 611.5 318.8 510 320 c 1
 510 76 l 2
 510 48 524 32 565 32 c 2
 579 32 l 2
 584 32 587 29 587 23 c 2
 587 0 l 1
 585 -2 l 1
 585 -2 485 0 449 0 c 0
 410 0 313 -2 313 -2 c 1
 311 0 l 1
 311 23 l 2
 311 29 315 32 319 32 c 2
 333 32 l 2
 373 32 388 44 388 76 c 2
 388 320 l 1
 285.5 318.8 269.4 280.4 234 180 c 0
 195 70 167 1 95 0 c 2
 9 -1 l 1
 7 1 l 1
 7 24 l 2
 7 30 11 33 15 33 c 2
 24 33 l 2
 57 33 108 103 160 236 c 0
 184 296 202 345 264 345 c 1
 192 371 176 470 167 533 c 0
 162 562 144 585 123 585 c 0
 111 585 100 578 90 567 c 0
 83 559 69 554 57 554 c 0
 38 554 13 564 13 601 c 0
 13 624 44 651 91 651 c 0
 154 651 213 602 220 544 c 1
 228 488 238 416 291 383 c 0
 313.8 369.7 354.8 368.1 388 368 c 1
 388 569 l 2
 388 601 373 613 333 613 c 2
 319 613 l 2
 315 613 311 616 311 621 c 2
 311 645 l 1
 313 647 l 1
 313 647 410 645 449 645 c 0
 485 645 585 647 585 647 c 1
 587 645 l 1
 587 621 l 2
 587 616 584 613 579 613 c 2
 565 613 l 2
 524 613 510 597 510 569 c 2
 510 368 l 1
 542.4 368.1 584.1 369.7 606 383 c 0
 660 416 670 488 677 544 c 0
 685 602 743 651 806 651 c 0
 854 651 885 624 885 601 c 0
 885 564 859 554 840 554 c 0
 829 554 815 559 807 567 c 1
 798 578 786 585 774 585 c 0
 754 585 735 562 731 533 c 0
 721 470 705 371 633 345 c 1
 695 345 714 296 738 236 c 0
 790 103 841 33 874 33 c 2
 883 33 l 2
 887 33 890 30 890 24 c 2
 890 1 l 1
 889 -1 l 1
EndSplineSet
EndChar

StartChar: afii10025
Encoding: 1047 1047 76
Width: 573
VWidth: 999
Flags: HW
HStem: -12 42<166.549 331.064> 335 39<160.004 305.936> 624 38<176.762 323.445>
VStem: 30 104<67.2217 151.592> 66 39<463 553.349> 367 119<450.826 581.599> 395 132<103.835 267.959>
LayerCount: 2
Fore
SplineSet
242 30 m 0
 312 30 395 56 395 176 c 0
 395 227 376 335 259 335 c 2
 176 335 l 2
 165 335 160 342 160 354 c 0
 160 365 165 374 176 374 c 2
 223 374 l 2
 342 374 367 451 367 506 c 0
 367 579 323 624 266 624 c 0
 132 624 105 538 105 463 c 1
 66 463 l 1
 71 646 l 1
 201 646 229 662 270 662 c 0
 389 662 486 618 486 522 c 0
 486 435 388 367 371 360 c 1
 441 340 527 299 527 192 c 0
 527 50 397 -12 259 -12 c 0
 178 -12 107 19 76 43 c 0
 49 64 30 91 30 118 c 0
 30 144 47 165 70 165 c 0
 98 165 124 152 134 120 c 0
 158 48 166 30 242 30 c 0
EndSplineSet
EndChar

StartChar: afii10026
Encoding: 1048 1048 77
Width: 783
VWidth: 999
Flags: HW
HStem: -1 34<20 99.155 235.539 315 468 548.095 683.276 765> 613 32<20 99.4609 236.442 315 468 547.537 685.451 764>
VStem: 106 123<38.5094 78 146 607.764> 555 122<38.2361 493 561 607.252>
DStem2: 229 146 229 78 0.617738 0.786384<0 474.258>
LayerCount: 2
Fore
SplineSet
677 569 m 2
 677 76 l 2
 677 45 692 33 732 33 c 2
 758 33 l 2
 763 33 767 30 767 24 c 2
 767 1 l 1
 765 -1 l 1
 765 -1 660 1 621 1 c 0
 585 1 468 -1 468 -1 c 1
 466 1 l 1
 466 24 l 2
 466 30 469 33 474 33 c 2
 500 33 l 2
 542 33 555 48 555 76 c 2
 555 493 l 1
 229 78 l 1
 229 77 l 2
 229 46 243 33 283 33 c 2
 310 33 l 2
 313 33 317 30 317 24 c 2
 317 1 l 1
 315 -1 l 1
 315 -1 208 1 169 1 c 0
 134 1 20 -1 20 -1 c 1
 18 1 l 1
 18 24 l 2
 18 30 21 33 25 33 c 2
 52 33 l 2
 93 33 106 49 106 77 c 2
 106 570 l 2
 106 601 92 613 52 613 c 2
 25 613 l 2
 21 613 18 616 18 621 c 2
 18 645 l 1
 20 646 l 1
 20 646 127 644 167 644 c 0
 202 644 315 646 315 646 c 1
 317 645 l 1
 317 621 l 2
 317 616 314 613 310 613 c 2
 283 613 l 2
 242 613 229 598 229 570 c 2
 229 146 l 1
 555 561 l 1
 555 569 l 2
 555 600 540 613 500 613 c 2
 474 613 l 2
 470 613 466 616 466 621 c 2
 466 645 l 1
 468 646 l 1
 468 646 578 644 617 644 c 0
 653 644 764 647 764 647 c 1
 766 645 l 1
 766 622 l 2
 766 616 763 613 758 613 c 2
 732 613 l 2
 691 613 677 597 677 569 c 2
EndSplineSet
EndChar

StartChar: afii10027
Encoding: 1049 1049 78
Width: 783
VWidth: 999
Flags: HW
HStem: -1 34<20 99.155 235.539 315 468 548.095 683.276 765> 613 32<20 99.4609 236.442 315 468 547.537 685.451 764> 697 31<349.536 440.309>
VStem: 106 123<38.5094 78 146 607.764> 270 70<735.681 802.162> 449 70<734.774 802.125> 555 122<38.2361 493 561 607.252>
DStem2: 229 146 229 78 0.617738 0.786384<0 474.258>
LayerCount: 2
Fore
SplineSet
519 774 m 0
 519 722 457 697 394 697 c 0
 328 697 270 721 270 773 c 0
 270 795 282 804 309 804 c 0
 330 804 340 788 340 773 c 0
 340 771 339 766 339 765 c 0
 339 745 362 728 395 728 c 0
 425 728 450 742 450 764 c 0
 450 765 449 772 449 773 c 0
 449 788 458 804 481 804 c 0
 507 804 519 794 519 774 c 0
677 569 m 2
 677 76 l 2
 677 45 692 33 732 33 c 2
 758 33 l 2
 763 33 767 30 767 24 c 2
 767 1 l 1
 765 -1 l 1
 765 -1 660 1 621 1 c 0
 585 1 468 -1 468 -1 c 1
 466 1 l 1
 466 24 l 2
 466 30 469 33 474 33 c 2
 500 33 l 2
 542 33 555 48 555 76 c 2
 555 493 l 1
 229 78 l 1
 229 77 l 2
 229 46 243 33 283 33 c 2
 310 33 l 2
 313 33 317 30 317 24 c 2
 317 1 l 1
 315 -1 l 1
 315 -1 208 1 169 1 c 0
 134 1 20 -1 20 -1 c 1
 18 1 l 1
 18 24 l 2
 18 30 21 33 25 33 c 2
 52 33 l 2
 93 33 106 49 106 77 c 2
 106 570 l 2
 106 601 92 613 52 613 c 2
 25 613 l 2
 21 613 18 616 18 621 c 2
 18 645 l 1
 20 646 l 1
 20 646 127 644 167 644 c 0
 202 644 315 646 315 646 c 1
 317 645 l 1
 317 621 l 2
 317 616 314 613 310 613 c 2
 283 613 l 2
 242 613 229 598 229 570 c 2
 229 146 l 1
 555 561 l 1
 555 569 l 2
 555 600 540 613 500 613 c 2
 474 613 l 2
 470 613 466 616 466 621 c 2
 466 645 l 1
 468 646 l 1
 468 646 578 644 617 644 c 0
 653 644 764 647 764 647 c 1
 766 645 l 1
 766 622 l 2
 766 616 763 613 758 613 c 2
 732 613 l 2
 691 613 677 597 677 569 c 2
EndSplineSet
LCarets2: 1 0 
EndChar

StartChar: afii10033
Encoding: 1055 1055 79
Width: 750
VWidth: 999
Flags: HW
HStem: -1 34<19 98.8165 234.855 311 440 514.816 650.855 731> 600 45<229.654 519.608> 613 32<19 99.2757 653.794 731>
VStem: 106 122<38.748 598.335> 522 122<38.748 597.91>
LayerCount: 2
Fore
SplineSet
522 77 m 2
 522 555 l 2
 522 583 517 600 485 600 c 2
 264 600 l 2
 233 600 228 588 228 555 c 2
 228 77 l 2
 228 46 243 33 283 33 c 2
 304 33 l 2
 309 33 312 30 312 24 c 2
 312 1 l 1
 311 -1 l 1
 311 -1 206 1 167 1 c 0
 131 1 19 -1 19 -1 c 1
 17 1 l 1
 17 24 l 2
 17 30 20 33 25 33 c 2
 51 33 l 2
 92 33 106 49 106 77 c 2
 106 569 l 2
 106 606 86 613 55 613 c 2
 25 613 l 2
 19 613 17 617 17 621 c 2
 17 645 l 1
 19 646 l 1
 26 646 149 645 163 645 c 0
 225 644 301 643 372 643 c 0
 434 643 505 644 577 645 c 0
 583 645 729 646 731 646 c 2
 733 645 l 1
 733 621 l 2
 733 617 730 613 725 613 c 2
 696 613 l 1
 668 612 644 600 644 569 c 2
 644 77 l 2
 644 46 659 33 699 33 c 2
 725 33 l 2
 729 33 733 30 733 24 c 2
 733 1 l 1
 731 -1 l 1
 731 -1 620 1 581 1 c 0
 545 1 440 -1 440 -1 c 1
 438 1 l 1
 438 24 l 2
 438 30 441 33 446 33 c 2
 467 33 l 2
 508 33 522 49 522 77 c 2
EndSplineSet
EndChar

StartChar: afii10034
Encoding: 1056 1056 80
Width: 550
VWidth: 999
Flags: HW
HStem: -2 34<24 44 281 306> 279 40<221 346.677> 611 36<24 93.1927> 613 41<126.947 352.681>
VStem: 99 122<44.5532 282 319.949 606.701> 406 127<391.868 561.741>
LayerCount: 2
Fore
SplineSet
221 558 m 2
 221 322 l 1
 235 320 256 319 271 319 c 0
 353 319 406 363 406 467 c 0
 406 589 339 613 281 613 c 0
 228 613 221 593 221 558 c 2
99 89 m 2
 99 560 l 2
 99 595 87 610 65 611 c 2
 33 613 l 2
 25 613 22 617 22 621 c 2
 22 645 l 1
 24 647 l 1
 83 647 208 654 289 654 c 0
 490 654 533 548 533 484 c 0
 533 388 473 279 276 279 c 0
 252 279 235 280 221 282 c 1
 221 89 l 2
 221 51 241.2 38.2 281 34 c 2
 300 32 l 2
 306 31.4 308 29 308 23 c 2
 308 0 l 1
 306 -2 l 1
 269 -1 198 0 160 0 c 0
 122 0 61 -1 24 -2 c 1
 22 0 l 1
 22 23 l 2
 22 29 26.1 31.4 30 32 c 2
 44 34 l 2
 84.7 39.8 99 51 99 89 c 2
EndSplineSet
EndChar

StartChar: afii10035
Encoding: 1057 1057 81
Width: 666
VWidth: 999
Flags: HW
HStem: -10 44<290.062 474.801> 437 21<558.5 612> 617 41<295.135 462.38>
VStem: 34 130<195.747 434.804> 574 38<443.526 484.717>
LayerCount: 2
Fore
SplineSet
371 -10 m 0
 143 -10 34 154 34 315 c 0
 34 512 187 658 372 658 c 0
 505 658 539 614 590 614 c 1
 594 556 602 500 612 445 c 1
 574 437 l 1
 543 532 500 617 372 617 c 0
 275 617 164 532 164 334 c 0
 164 192 231 34 370 34 c 0
 451 34 524 66 601 153 c 1
 631 129 l 1
 563 39 477 -10 371 -10 c 0
EndSplineSet
EndChar

StartChar: afii10036
Encoding: 1058 1058 82
Width: 597
VWidth: 999
Flags: HW
HStem: -2 34<151 230.816 366.855 447> 599 46<70.4923 235.855 362.438 526.846>
VStem: 8 39<518.103 570.778> 30 36<645.204 669> 238 122<37.748 595.906> 532 36<647.479 669> 550 40<518.125 570.778>
LayerCount: 2
Fore
SplineSet
87 645 m 2
 510 645 l 2
 531 645 532 663 532 669 c 1
 568 673 l 1
 572 624 579 572 590 519 c 1
 550 514 l 1
 530 594 517 599 462 599 c 2
 408 599 l 2
 372 599 360 590 360 557 c 2
 360 76 l 2
 360 45 375 32 415 32 c 2
 441 32 l 2
 445 32 449 29 449 23 c 2
 449 0 l 1
 447 -2 l 1
 447 -2 328 0 289 0 c 0
 253 0 151 -2 151 -2 c 1
 149 0 l 1
 149 23 l 2
 149 29 152 32 157 32 c 2
 183 32 l 2
 224 32 238 48 238 76 c 2
 238 560 l 2
 238 590 226 599 189 599 c 2
 136 599 l 2
 81 599 67 594 47 514 c 1
 8 519 l 1
 19 572 26 624 30 673 c 1
 66 669 l 1
 66 663 66 645 87 645 c 2
EndSplineSet
EndChar

StartChar: afii10037
Encoding: 1059 1059 83
Width: 621
VWidth: 999
Flags: HW
HStem: -22 64<180.643 263.693> 613 32<1 59.1675 206.362 277 412 484.667 556.138 620>
DStem2: 212 575 88 559 0.419188 -0.907899<-30.5778 352.637> 293 115 383 161 0.361446 0.932393<-71.674 0 153.097 525.366>
LayerCount: 2
Fore
SplineSet
216 42 m 0
 246 42 265 50 293 115 c 1
 88 559 l 2
 79 579 59 613 10 613 c 0
 4 613 0 616 0 621 c 2
 0 645 l 1
 1 646 l 1
 1 646 64 645 105 645 c 0
 155 645 277 646 277 646 c 1
 279 645 l 1
 279 621 l 2
 279 616 276 613 272 613 c 2
 234 613 l 2
 201 613 201 602 212 575 c 1
 358 254 l 1
 479 575 l 2
 493 610 487 613 446 613 c 2
 416 613 l 2
 413 613 410 616 410 621 c 2
 410 645 l 1
 412 646 l 1
 412 646 498 645 540 645 c 0
 572 645 620 646 620 646 c 1
 622 645 l 1
 622 621 l 2
 622 615 615 613 611 613 c 0
 565 613 555 606 540 566 c 2
 383 161 l 2
 340 52 285 -22 195 -22 c 0
 135 -22 84 8 84 40 c 0
 84 68 97 88 129 88 c 0
 154 88 170 77 179 65 c 1
 187 56 201 42 216 42 c 0
EndSplineSet
EndChar

StartChar: afii10039
Encoding: 1061 1061 84
Width: 708
VWidth: 999
Flags: HW
HStem: -2 34<6 77.2637 175.139 221 431 479.696 642.975 703> 613 32<24 81.6763 243.172 295 464 510.913 615.064 682>
DStem2: 253 572 129 549 0.578967 -0.815351<-30.4141 207.826 286.619 564.202> 388 412 565 552 0.640675 0.767812<-16.6551 209.908>
LayerCount: 2
Fore
SplineSet
24 620 m 2
 24 645 l 1
 29 646 l 1
 55 646 119 645 130 645 c 0
 135 645 260 646 291 646 c 1
 291 646 294 645 295 645 c 1
 295 620 l 2
 295 615 293 613 290 613 c 0
 239 613 233 603 253 572 c 2
 360 414 l 2
 373 396 375 397 388 412 c 0
 428 461 479 524 506 572 c 0
 526 609 492 613 469 613 c 0
 466 613 462 615 462 620 c 2
 462 645 l 1
 464 646 l 1
 486 646 573 645 584 645 c 0
 589 645 664 646 682 646 c 1
 684 645 l 1
 684 620 l 2
 684 617 684 613 675 613 c 0
 624 613 594 586 565 552 c 2
 421 383 l 2
 403 362 404 358 438 312 c 2
 591 102 l 2
 619 63 653 32 697 32 c 0
 702 32 704 28 704 24 c 2
 704 0 l 1
 703 -2 l 1
 675 -1 609 0 597 0 c 0
 591 0 431 -2 431 -2 c 1
 428 0 l 1
 428 25 l 2
 428 29 431 32 434 32 c 0
 494 32 492 38 467 73 c 2
 345 246 l 2
 324 277 321 277 307 258 c 0
 263 201 219 136 183 77 c 0
 158 35 195 32 218 32 c 0
 222 32 224 28 224 24 c 2
 224 0 l 1
 221 -2 l 1
 221 -2 104 0 90 0 c 0
 85 0 6 -2 6 -2 c 1
 5 0 l 1
 5 25 l 2
 5 30 10 32 16 32 c 0
 75 32 100 65 131 104 c 2
 277 291 l 1
 294 311 293 316 273 344 c 2
 129 549 l 2
 90 605 52 613 35 613 c 0
 28 613 24 615 24 620 c 2
EndSplineSet
EndChar

StartChar: afii10040
Encoding: 1062 1062 85
Width: 722
VWidth: 487
Flags: HW
HStem: -1 34<20 88.5142> 0 42<215.974 501.971> 613 32<19 88.6542 217.213 286 433 501.091 628.883 697>
VStem: 92 122<43.533 611.651> 504 122<44.0875 611.234> 662 41<-136 -78.8302>
LayerCount: 2
Fore
SplineSet
525 0 m 2
 525 0 306 0 166 0 c 2
 20 -1 l 1
 17 1 l 1
 17 22 l 2
 17 28 21 33 26 33 c 2
 52 33 l 2
 84 33 92 40 92 80 c 2
 92 567 l 2
 92 606 86 613 52 613 c 2
 22 613 l 2
 19 613 17 614 17 618 c 2
 17 645 l 1
 19 646 l 1
 159 645 l 1
 286 646 l 1
 288 645 l 1
 288 618 l 2
 288 615 286 613 283 613 c 2
 253 613 l 2
 221 613 214 607 214 567 c 2
 214 88 l 2
 214 47 222 42 253 42 c 2
 465 42 l 2
 501 42 504 57 504 89 c 2
 504 567 l 2
 504 599 503 613 465 613 c 2
 436 613 l 2
 432 613 430 614 430 618 c 2
 430 645 l 1
 433 646 l 1
 552 645 l 1
 697 646 l 1
 700 645 l 1
 700 623 l 2
 700 620 698 613 694 613 c 2
 665 613 l 1
 628 612 626 601 626 567 c 2
 626 82 l 2
 626 57 643 33 667 33 c 0
 692 33 696 21 697 13 c 2
 703 -136 l 1
 662 -136 l 1
 647 -65 603 0 525 0 c 2
EndSplineSet
EndChar

StartChar: afii10041
Encoding: 1063 1063 86
Width: 687
VWidth: 999
Flags: HW
HStem: -1 34<386 466.5 595.051 666> 248 63<243.549 386.648> 613 33<29 94.6501 221.253 287 396 467.719 594.197 666>
VStem: 97 122<333.393 611.375> 470 122<34.8668 314 344.538 611.828>
LayerCount: 2
Fore
SplineSet
430 33 m 2
 466 33 470 46 470 80 c 2
 470 314 l 1
 397 263 329 248 271 248 c 0
 157 248 97 327 97 426 c 2
 97 572 l 2
 97 606 92 613 53 613 c 2
 36 613 l 2
 31 613 29 615 29 619 c 2
 29 646 l 1
 178 645 l 1
 287 646 l 1
 287 618 l 2
 287 615 285 613 281 613 c 2
 263 613 l 2
 221 613 219 603 219 572 c 2
 219 420 l 2
 219 338 241 311 313 311 c 0
 342 311 406 315 470 357 c 1
 470 571 l 2
 470 605 466 613 430 613 c 2
 400 613 l 2
 397 613 396 614 396 618 c 2
 396 646 l 1
 552 644 l 1
 666 646 l 1
 666 619 l 2
 666 615 664 613 661 613 c 2
 631 613 l 2
 597 613 592 608 592 571 c 2
 592 80 l 2
 592 43 597 33 631 33 c 2
 661 33 l 2
 664 33 666 30 666 27 c 2
 666 -1 l 1
 552 1 l 1
 386 -1 l 1
 386 27 l 2
 386 31 387 33 391 33 c 2
 430 33 l 2
EndSplineSet
EndChar

StartChar: afii10042
Encoding: 1064 1064 87
Width: 1087
VWidth: 487
Flags: HW
HStem: -1 34<34 103.253 984.033 1054> 2 40<230.584 479.921 606.71 856.864> 613 32<19 98.5971 237.067 313 397 474.538 612.451 690 774 851.597 989.451 1068>
VStem: 106 123<43.9395 607.491> 482 122<43.6743 607.252> 859 122<43.3821 607.252>
LayerCount: 2
Fore
SplineSet
981 569 m 2
 981 75 l 2
 981 40 990 33 1021 33 c 2
 1051 33 l 2
 1054 33 1056 31 1056 28 c 2
 1056 1 l 1
 1054 -1 l 1
 939 2 l 1
 221 2 l 1
 34 -1 l 1
 32 1 l 1
 32 28 l 2
 32 31 34 33 37 33 c 2
 67 33 l 2
 101 33 106 41 106 80 c 2
 106 569 l 2
 106 600 91 613 52 613 c 2
 25 613 l 2
 21 613 17 616 17 621 c 2
 17 645 l 1
 19 646 l 1
 19 646 127 645 167 645 c 0
 202 645 313 646 313 646 c 1
 315 645 l 1
 315 621 l 2
 315 616 312 613 307 613 c 2
 283 613 l 2
 242 613 229 597 229 569 c 2
 229 88 l 2
 229 56 229 42 268 42 c 2
 448 42 l 2
 479 42 482 57 482 88 c 2
 482 569 l 2
 482 600 467 613 427 613 c 2
 403 613 l 2
 399 613 395 616 395 621 c 2
 395 645 l 1
 397 646 l 1
 397 646 503 645 542 645 c 0
 578 645 668 646 668 646 c 1
 690 645 l 1
 690 621 l 2
 690 616 688 613 683 613 c 2
 659 613 l 2
 618 613 604 597 604 569 c 2
 604 88 l 2
 604 58 608 42 641 42 c 2
 820 42 l 2
 853 42 859 49 859 88 c 2
 859 569 l 2
 859 600 844 613 805 613 c 2
 781 613 l 2
 776 613 772 616 772 621 c 2
 772 645 l 1
 774 646 l 1
 774 646 880 645 919 645 c 0
 955 645 1068 646 1068 646 c 1
 1070 645 l 1
 1070 621 l 2
 1070 616 1067 613 1062 613 c 2
 1036 613 l 2
 995 613 981 597 981 569 c 2
EndSplineSet
EndChar

StartChar: afii10043
Encoding: 1065 1065 88
Width: 1089
VWidth: 487
Flags: HW
HStem: 0 31<34 103.32> 1 40<231.307 479.648 606.781 856.754> 613 32<19 98.5971 237.067 313 397 474.538 612.451 688 774 851.597 989.451 1068>
VStem: 106 123<43.2559 607.491> 482 122<43.5908 607.252> 859 122<42.9083 607.252> 1014 44<-141 -88.5684>
LayerCount: 2
Fore
SplineSet
229 569 m 2
 229 88 l 2
 229 58 231 41 268 41 c 2
 440 41 l 2
 478 41 482 52 482 88 c 2
 482 569 l 2
 482 600 467 613 427 613 c 2
 403 613 l 2
 399 613 395 616 395 621 c 2
 395 645 l 1
 397 646 l 1
 397 646 509 645 548 645 c 0
 584 645 688 646 688 646 c 1
 690 645 l 1
 690 621 l 2
 690 616 688 613 683 613 c 2
 659 613 l 2
 618 613 604 597 604 569 c 2
 604 88 l 2
 604 52 609 41 652 41 c 2
 820 41 l 2
 855 41 859 52 859 88 c 2
 859 569 l 2
 859 600 844 613 805 613 c 2
 781 613 l 2
 776 613 772 616 772 621 c 2
 772 645 l 1
 774 646 l 1
 774 646 884 645 923 645 c 0
 958 645 1068 646 1068 646 c 1
 1070 645 l 1
 1070 621 l 2
 1070 616 1067 613 1062 613 c 2
 1036 613 l 2
 995 613 981 597 981 569 c 2
 981 85 l 2
 981 46 1006 33 1021 33 c 0
 1039 33 1051 23 1052 6 c 2
 1058 -141 l 1
 1014 -141 l 1
 1007 -97 944 1 858 1 c 2
 188 1 l 1
 34 -1 l 1
 32 0 l 1
 32 26 l 2
 32 30 34 31 37 31 c 2
 67 31 l 2
 100 31 106 35 106 74 c 2
 106 569 l 2
 106 600 91 613 52 613 c 2
 25 613 l 2
 21 613 17 616 17 621 c 2
 17 645 l 1
 19 646 l 1
 19 646 134 645 173 645 c 0
 208 645 313 646 313 646 c 1
 315 645 l 1
 315 621 l 2
 315 616 312 613 307 613 c 2
 283 613 l 2
 242 613 229 597 229 569 c 2
EndSplineSet
EndChar

StartChar: afii10044
Encoding: 1066 1066 89
Width: 780
VWidth: 999
Flags: HW
HStem: -1 35<178 258.408 393.048 541.239> 331 44<387 557.861> 602 44<130.709 261.935> 613 33<394.803 474>
VStem: 26 47<473.255 529.979> 265 122<39.0136 331 375 599.078> 613 131<97.6675 271.008>
LayerCount: 2
Fore
SplineSet
387 331 m 1
 387 84 l 2
 387 51 392 34 447 34 c 0
 599 34 613 121 613 183 c 0
 613 243 603 331 475 331 c 2
 387 331 l 1
324 645 m 2
 360 645 474 646 474 646 c 1
 476 645 l 1
 476 621 l 2
 476 616 473 613 468 613 c 2
 442 613 l 2
 401 613 387 597 387 569 c 2
 387 375 l 1
 448 375 l 2
 693 375 744 272 744 183 c 0
 744 16 566 -1 445 -1 c 0
 409 -1 357 1 328 1 c 0
 292 1 178 -1 178 -1 c 1
 176 1 l 1
 176 24 l 2
 176 30 179 33 184 33 c 2
 210 33 l 2
 251 33 265 49 265 77 c 2
 265 559 l 2
 265 586 254 602 226 602 c 2
 181 602 l 2
 115 602 82 512 73 469 c 1
 26 474 l 1
 35 530 40 584 42 646 c 1
 265 646 l 1
 324 645 l 2
EndSplineSet
EndChar

StartChar: afii10045
Encoding: 1067 1067 90
Width: 908
VWidth: 999
Flags: HW
HStem: -1 34<612 680.724 816.184 884> -1 35<19 99.4082 234.048 379.573> 331 45<228 397.119> 613 32<19 97.5488 235.462 315> 614 34<612 680.724 816.184 884>
VStem: 106 122<39.0136 331 376 607.252> 454 127<93.6435 279.371> 687 122<38.5094 608.491>
LayerCount: 2
Fore
SplineSet
809 77 m 2
 809 49 823 33 864 33 c 2
 878 33 l 2
 883 33 886 30 886 24 c 2
 886 1 l 1
 884 -1 l 1
 884 -1 784 1 748 1 c 0
 709 1 612 -1 612 -1 c 1
 610 1 l 1
 610 24 l 2
 610 30 614 33 618 33 c 2
 632 33 l 2
 672 33 687 45 687 77 c 2
 687 570 l 2
 687 602 672 614 632 614 c 2
 618 614 l 2
 614 614 610 617 610 622 c 2
 610 646 l 1
 612 648 l 1
 612 648 709 646 748 646 c 0
 784 646 884 648 884 648 c 1
 886 646 l 1
 886 622 l 2
 886 617 883 614 878 614 c 2
 864 614 l 2
 823 614 809 598 809 570 c 2
 809 77 l 2
106 569 m 2
 106 597 92 613 51 613 c 2
 25 613 l 2
 20 613 17 616 17 621 c 2
 17 645 l 1
 19 646 l 1
 19 646 130 645 166 645 c 0
 205 645 315 646 315 646 c 1
 317 645 l 1
 317 621 l 2
 317 616 313 613 309 613 c 2
 283 613 l 2
 243 613 228 600 228 569 c 2
 228 376 l 1
 306 376 l 2
 551 376 581 272 581 183 c 0
 581 16 424 -1 303 -1 c 0
 267 -1 195 1 166 1 c 0
 137 1 19 -1 19 -1 c 1
 17 1 l 1
 17 24 l 2
 17 30 20 33 25 33 c 2
 51 33 l 2
 92 33 106 49 106 77 c 2
 106 569 l 2
228 331 m 1
 228 84 l 2
 228 51 233 34 288 34 c 0
 439 34 454 121 454 183 c 0
 454 243 444 331 315 331 c 2
 228 331 l 1
EndSplineSet
EndChar

StartChar: afii10046
Encoding: 1068 1068 91
Width: 617
VWidth: 999
Flags: HW
HStem: -1 35<19 99.4082 234.048 379.573> 331 45<228 397.119> 613 32<19 97.5488 235.462 315>
VStem: 106 122<39.0136 331 376 607.252> 454 127<93.6435 279.371>
LayerCount: 2
Fore
SplineSet
106 569 m 2
 106 597 92 613 51 613 c 2
 25 613 l 2
 20 613 17 616 17 621 c 2
 17 645 l 1
 19 646 l 1
 19 646 130 645 166 645 c 0
 205 645 315 646 315 646 c 1
 317 645 l 1
 317 621 l 2
 317 616 313 613 309 613 c 2
 283 613 l 2
 243 613 228 600 228 569 c 2
 228 376 l 1
 306 376 l 2
 551 376 581 272 581 183 c 0
 581 16 424 -1 303 -1 c 0
 267 -1 195 1 166 1 c 0
 137 1 19 -1 19 -1 c 1
 17 1 l 1
 17 24 l 2
 17 30 20 33 25 33 c 2
 51 33 l 2
 92 33 106 49 106 77 c 2
 106 569 l 2
228 331 m 1
 228 84 l 2
 228 51 233 34 288 34 c 0
 439 34 454 121 454 183 c 0
 454 243 444 331 315 331 c 2
 228 331 l 1
EndSplineSet
EndChar

StartChar: afii10047
Encoding: 1069 1069 92
Width: 625
VWidth: 999
Flags: HW
HStem: -12 38<199.301 353.574> 273 66<307.887 449.597> 311 59<161.217 283.679> 616 42<190.147 341.059>
VStem: 42 39<457.282 500.885> 54 89<77.2543 155.168> 451 131<196.438 295 341.365 467.623>
LayerCount: 2
Fore
SplineSet
451 295 m 1
 406 273 371 273 360 273 c 0
 298 273 255 311 196 311 c 0
 158 311 142 295 134 295 c 0
 130 295 125 303 125 312 c 0
 125 336 188 370 247 370 c 0
 313 370 342 339 400 339 c 0
 419 339 436 342 451 346 c 1
 442 550 351 616 271 616 c 0
 176 616 106 540 81 454 c 1
 42 458 l 1
 53 511 61 558 63 613 c 1
 121 616 174 658 279 658 c 0
 444 658 582 550 582 333 c 0
 582 113 445 -12 275 -12 c 0
 189 -12 133 19 102 43 c 0
 75 64 54 95 54 122 c 0
 54 148 70 165 88 165 c 0
 117 165 132 152 143 120 c 0
 167 48 214 26 286 26 c 0
 409 26 449 161 451 295 c 1
EndSplineSet
EndChar

StartChar: afii10048
Encoding: 1070 1070 93
Width: 937
VWidth: 999
Flags: HW
HStem: -12 39<554.854 687.491> -1 34<24 92.7241 228.184 296> 300 49<221 317> 613 32<24 91.5375 229.451 296> 619 39<533.072 673.166>
VStem: 99 122<38.5094 300 349 607.491> 317 126<178.838 300 349 443.243> 771 127<190.805 458.298>
LayerCount: 2
Fore
SplineSet
593 619 m 0
 509 619 443 537 443 327 c 0
 443 135 516 27 624 27 c 0
 727 27 771 131 771 310 c 0
 771 518 718 619 593 619 c 0
221 77 m 2
 221 49 235 33 276 33 c 2
 290 33 l 2
 295 33 298 30 298 24 c 2
 298 1 l 1
 296 -1 l 1
 296 -1 196 1 160 1 c 0
 121 1 24 -1 24 -1 c 1
 22 1 l 1
 22 24 l 2
 22 30 26 33 30 33 c 2
 44 33 l 2
 84 33 99 45 99 77 c 2
 99 569 l 2
 99 601 84 613 44 613 c 2
 30 613 l 2
 26 613 22 616 22 621 c 2
 22 645 l 1
 24 646 l 1
 24 646 121 645 160 645 c 0
 196 645 296 646 296 646 c 1
 298 645 l 1
 298 621 l 2
 298 616 295 613 290 613 c 2
 276 613 l 2
 235 613 221 597 221 569 c 2
 221 349 l 1
 318 349 l 1
 333 526 450 658 605 658 c 0
 772 658 898 527 898 329 c 0
 898 129 784 -12 606 -12 c 0
 448 -12 321 109 317 300 c 1
 221 300 l 1
 221 77 l 2
EndSplineSet
EndChar

StartChar: afii10049
Encoding: 1071 1071 94
Width: 612
VWidth: 999
Flags: HW
HStem: -1 34<11 57.5665 296 376.155 511.524 593> 320 48<298.94 383> 606 40<215.181 381.843> 613 33<510.485 596>
VStem: 69 108<410.473 564.69> 383 122<38.2361 320 368 602.434>
LayerCount: 2
Fore
SplineSet
383 320 m 1
 277 320 283 282 247 180 c 0
 208 70 179 1 107 0 c 2
 11 -1 l 1
 10 1 l 1
 10 24 l 2
 10 30 13 33 17 33 c 2
 26 33 l 2
 59 33 109 103 162 236 c 0
 178 277 192 311 218 329 c 1
 150 339 69 385 69 487 c 0
 69 556 113 646 299 646 c 0
 334 646 415 645 447 645 c 0
 479 645 596 646 596 646 c 1
 596 620 l 2
 596 616 594 613 588 613 c 2
 559 613 l 2
 517 613 505 603 505 569 c 2
 505 76 l 2
 505 45 521 33 560 33 c 2
 586 33 l 2
 591 33 595 30 595 24 c 2
 595 1 l 1
 593 -1 l 1
 593 -1 486 1 447 1 c 0
 411 1 296 -1 296 -1 c 1
 294 1 l 1
 294 24 l 2
 294 30 297 33 302 33 c 2
 329 33 l 2
 370 33 383 48 383 76 c 2
 383 320 l 1
383 570 m 2
 383 603 379 606 292 606 c 0
 236 606 177 595 177 502 c 0
 177 396 223 368 306 368 c 2
 383 368 l 1
 383 570 l 2
EndSplineSet
EndChar

StartChar: afii10089
Encoding: 1095 1095 95
Width: 581
VWidth: 999
Flags: HW
HStem: -1 34<310 367.151 483.217 540> 146 40<195.202 332.641> 402 34<18 67.6078 184.253 241 310 366.902 483.294 550>
VStem: 71 110<211.872 400.259> 370 110<34.624 189 212.403 400.488>
LayerCount: 2
Fore
SplineSet
370 354 m 2
 370 393 365 402 330 402 c 2
 314 402 l 2
 311 402 309 403 309 407 c 2
 309 434 l 1
 310 436 l 1
 420 434 l 1
 550 436 l 1
 552 434 l 1
 552 407 l 2
 552 404 550 402 546 402 c 2
 521 402 l 2
 487 402 480 395 480 354 c 2
 480 81 l 2
 480 43 484 33 521 33 c 2
 537 33 l 2
 541 33 542 31 542 28 c 2
 542 1 l 1
 540 -1 l 1
 540 -1 449 1 412 1 c 0
 372 1 310 -1 310 -1 c 1
 308 1 l 1
 308 27 l 2
 308 31 310 33 313 33 c 2
 330 33 l 2
 366 33 370 42 370 81 c 2
 370 189 l 1
 331 160 299 146 239 146 c 0
 141 146 71 191 71 297 c 2
 71 355 l 2
 71 393 65 402 30 402 c 2
 22 402 l 2
 19 402 17 403 17 407 c 2
 17 434 l 1
 18 436 l 1
 121 433 l 1
 241 436 l 1
 242 434 l 1
 242 408 l 2
 242 404 240 402 236 402 c 2
 221 402 l 2
 188 402 181 392 181 360 c 2
 181 293 l 2
 181 215 188 186 250 186 c 0
 299 186 338 198 370 229 c 1
 370 354 l 2
EndSplineSet
EndChar

StartChar: afii10090
Encoding: 1096 1096 96
Width: 923
VWidth: 999
Flags: HW
HStem: -1 34<43 102.064 816.857 890> 0 41<215.46 401.772 517.304 702.1> 402 34<33 100.608 215.968 277 340 400.902 517.294 583 636 701.902 817.932 880>
VStem: 104 109<43.0804 400.422> 404 110<43.0065 400.488> 705 110<43.4492 400.499>
LayerCount: 2
Fore
SplineSet
815 355 m 2
 815 74 l 2
 815 34 822 33 856 33 c 2
 886 33 l 2
 890 33 892 30 892 27 c 2
 892 1 l 1
 890 -1 l 1
 758 0 l 1
 154 0 l 1
 43 -1 l 1
 42 1 l 1
 42 28 l 2
 42 31 43 33 47 33 c 2
 63 33 l 2
 98 33 104 36 104 75 c 2
 104 355 l 2
 104 393 98 402 63 402 c 2
 37 402 l 2
 34 402 32 403 32 407 c 2
 32 434 l 1
 33 436 l 1
 154 433 l 1
 277 436 l 1
 279 434 l 1
 279 408 l 2
 279 404 277 402 273 402 c 2
 254 402 l 2
 220 402 213 396 213 355 c 2
 213 90 l 2
 213 50 219 41 254 41 c 2
 364 41 l 2
 399 41 404 52 404 89 c 2
 404 354 l 2
 404 393 399 402 364 402 c 2
 344 402 l 2
 341 402 339 403 339 407 c 2
 339 434 l 1
 340 436 l 1
 454 434 l 1
 583 436 l 1
 584 434 l 1
 584 407 l 2
 584 404 583 402 579 402 c 2
 555 402 l 2
 521 402 514 395 514 354 c 2
 514 90 l 2
 514 48 526 41 555 41 c 2
 665 41 l 2
 702 41 705 59 705 90 c 2
 705 355 l 2
 705 393 700 402 665 402 c 2
 640 402 l 2
 637 402 635 403 635 407 c 2
 635 434 l 1
 636 436 l 1
 755 433 l 1
 880 436 l 1
 882 434 l 1
 882 408 l 2
 882 404 880 402 876 402 c 2
 855 402 l 2
 822 402 815 396 815 355 c 2
EndSplineSet
EndChar

StartChar: afii10091
Encoding: 1097 1097 97
Width: 917
VWidth: 999
Flags: HW
HStem: -1 34<43 101.812> 0 40<215.46 401.502 517.304 702.1> 402 34<33 100.608 215.968 277 340 400.902 517.294 583 636 701.902 817.932 880>
VStem: 104 109<42.1362 400.422> 404 110<41.8323 400.488> 705 110<42.9362 400.499> 843 43<-128 -68.6074>
LayerCount: 2
Fore
SplineSet
815 355 m 2
 815 79 l 2
 815 54 828 33 851 33 c 0
 865 33 879 26 880 8 c 2
 886 -128 l 1
 843 -128 l 1
 831 -79 804 0 724 0 c 2
 155 0 l 1
 43 -1 l 1
 42 1 l 1
 42 27 l 2
 42 31 43 33 47 33 c 2
 63 33 l 2
 98 33 104 37 104 75 c 2
 104 355 l 2
 104 393 98 402 63 402 c 2
 37 402 l 2
 34 402 32 403 32 407 c 2
 32 434 l 1
 33 436 l 1
 154 433 l 1
 277 436 l 1
 279 434 l 1
 279 408 l 2
 279 404 277 402 273 402 c 2
 254 402 l 2
 220 402 213 396 213 355 c 2
 213 88 l 2
 213 49 219 40 254 40 c 2
 364 40 l 2
 399 40 404 51 404 88 c 2
 404 354 l 2
 404 393 399 402 364 402 c 2
 344 402 l 2
 341 402 339 403 339 407 c 2
 339 434 l 1
 340 436 l 1
 454 434 l 1
 583 436 l 1
 584 434 l 1
 584 407 l 2
 584 404 583 402 579 402 c 2
 555 402 l 2
 521 402 514 395 514 354 c 2
 514 88 l 2
 514 46 526 40 555 40 c 2
 665 41 l 2
 702 41 705 56 705 89 c 2
 705 355 l 2
 705 393 700 402 665 402 c 2
 640 402 l 2
 637 402 635 403 635 407 c 2
 635 434 l 1
 636 436 l 1
 755 433 l 1
 880 436 l 1
 882 434 l 1
 882 408 l 2
 882 404 880 402 876 402 c 2
 855 402 l 2
 822 402 815 396 815 355 c 2
EndSplineSet
EndChar

StartChar: afii10092
Encoding: 1098 1098 98
Width: 590
VWidth: 999
Flags: HW
HStem: -1 34<128 190.926 315.978 425.383> 224 37<306 429.16> 393 41<96.8817 193.94> 402 34<308.281 380>
VStem: 26 35<279 343.414> 196 110<42.1465 224 261 392.378> 449 110<64.672 203.325>
LayerCount: 2
Fore
SplineSet
196 77 m 2
 196 347 l 2
 196 384 189 393 167 393 c 0
 85 393 78 357 61 275 c 1
 26 280 l 1
 33 326 37 377 38 435 c 1
 251 434 l 1
 380 436 l 1
 382 434 l 1
 382 406 l 2
 382 402 380 402 377 402 c 2
 346 402 l 2
 310 402 306 394 306 359 c 2
 306 261 l 1
 372 261 l 2
 468 261 559 230 559 136 c 0
 559 52 488 0 376 0 c 2
 249 1 l 2
 213 1 128 -1 128 -1 c 1
 126 1 l 1
 126 24 l 2
 126 30 129 33 134 33 c 2
 153 33 l 2
 187 33 196 48 196 77 c 2
449 126 m 0
 449 179 444 224 373 224 c 2
 306 224 l 1
 306 83 l 2
 306 47 323 36 369 36 c 0
 419 36 449 44 449 126 c 0
EndSplineSet
EndChar

StartChar: afii10093
Encoding: 1099 1099 99
Width: 749
VWidth: 999
Flags: HW
HStem: -1 34<38 100.926 223.805 335.983 475 537.648 658.352 721> 224 37<216 339.16> 401 34<38 100.926 221.352 284> 402 34<475 537.648 658.352 721>
VStem: 106 110<40.9339 224 261 397.844> 359 110<64.672 203.325> 543 110<36.1563 398.688>
LayerCount: 2
Fore
SplineSet
543 358 m 2
 543 386 533 402 500 402 c 2
 481 402 l 2
 476 402 473 405 473 410 c 2
 473 434 l 1
 475 436 l 1
 475 436 560 434 596 434 c 0
 635 434 721 436 721 436 c 1
 723 434 l 1
 723 410 l 2
 723 405 719 402 715 402 c 2
 696 402 l 2
 663 402 653 386 653 358 c 2
 653 77 l 2
 653 48 663 33 696 33 c 2
 715 33 l 2
 719 33 723 30 723 24 c 2
 723 1 l 1
 721 -1 l 1
 721 -1 635 1 596 1 c 0
 560 1 475 -1 475 -1 c 1
 473 1 l 1
 473 24 l 2
 473 30 476 33 481 33 c 2
 500 33 l 2
 533 33 543 48 543 77 c 2
 543 358 l 2
359 126 m 0
 359 179 354 224 283 224 c 2
 216 224 l 1
 216 79 l 2
 216 43 233 36 279 36 c 0
 329 36 359 44 359 126 c 0
106 77 m 2
 106 357 l 2
 106 386 97 401 63 401 c 2
 44 401 l 2
 39 401 36 404 36 410 c 2
 36 433 l 1
 38 435 l 1
 38 435 124 433 159 433 c 0
 198 433 284 435 284 435 c 1
 286 433 l 1
 286 410 l 2
 286 404 282 401 278 401 c 2
 259 401 l 2
 226 401 216 386 216 357 c 2
 216 261 l 1
 282 261 l 2
 378 261 469 230 469 136 c 0
 469 52 398 0 287 0 c 2
 159 1 l 2
 124 1 38 -1 38 -1 c 1
 36 1 l 1
 36 24 l 2
 36 30 39 33 44 33 c 2
 63 33 l 2
 97 33 106 48 106 77 c 2
EndSplineSet
EndChar

StartChar: afii10094
Encoding: 1100 1100 100
Width: 500
VWidth: 999
Flags: HW
HStem: -1 34<38 100.926 223.805 335.983> 224 37<216 339.16> 401 34<38 100.926 221.352 284>
VStem: 106 110<40.9339 224 261 397.844> 359 110<64.672 203.325>
LayerCount: 2
Fore
SplineSet
359 126 m 0
 359 179 354 224 283 224 c 2
 216 224 l 1
 216 79 l 2
 216 43 233 36 279 36 c 0
 329 36 359 44 359 126 c 0
106 77 m 2
 106 357 l 2
 106 386 97 401 63 401 c 2
 44 401 l 2
 39 401 36 404 36 410 c 2
 36 433 l 1
 38 435 l 1
 38 435 124 433 159 433 c 0
 198 433 284 435 284 435 c 1
 286 433 l 1
 286 410 l 2
 286 404 282 401 278 401 c 2
 259 401 l 2
 226 401 216 386 216 357 c 2
 216 261 l 1
 282 261 l 2
 378 261 469 230 469 136 c 0
 469 52 398 0 287 0 c 2
 159 1 l 2
 124 1 38 -1 38 -1 c 1
 36 1 l 1
 36 24 l 2
 36 30 39 33 44 33 c 2
 63 33 l 2
 97 33 106 48 106 77 c 2
EndSplineSet
EndChar

StartChar: afii10095
Encoding: 1101 1101 101
Width: 452
VWidth: 999
Flags: HW
HStem: -12 35<135.21 247.128> 180 49<160.832 296.342> 207 41<92.6331 188.46> 406 36<125.918 245.651>
VStem: 37 77<40.7447 108.21> 40 35<296.2 346.239> 297 111<121.734 199 229.057 318.451>
LayerCount: 2
Fore
SplineSet
297 231 m 1
 295 304 283 406 191 406 c 0
 110 406 89 354 75 293 c 1
 40 297 l 1
 46 341 49 375 51 430 c 1
 121 430 129 442 201 442 c 0
 324 442 408 335 408 225 c 0
 408 68 293 -12 187 -12 c 0
 104 -12 37 32 37 84 c 0
 37 98 53 113 71 113 c 0
 82 113 109 109 114 76 c 0
 120 42 151 23 193 23 c 0
 284 23 296 122 297 199 c 1
 277 189 252 180 228 180 c 0
 184 180 155 207 120 207 c 0
 108 207 98 202 90 202 c 0
 84 202 83 211 83 215 c 0
 83 230 128 248 171 248 c 0
 216 248 233 229 271 229 c 0
 281 229 289 230 297 231 c 1
EndSplineSet
EndChar

StartChar: afii10096
Encoding: 1102 1102 102
Width: 774
VWidth: 999
Flags: HW
HStem: -10 43<491.623 588.559> -1 34<29 91.6475 212.352 275> 402 34<29 91.6475 212.352 275> 403 41<472.16 567.482>
VStem: 97 110<36.1563 398.688> 200 119<196 240> 311.3 115.9<119.406 317.729> 624.8 115<118.762 320.282>
LayerCount: 2
Fore
SplineSet
97 358 m 2
 97 386 87 402 54 402 c 2
 35 402 l 2
 30 402 27 405 27 410 c 2
 27 434 l 1
 29 436 l 1
 29 436 114 434 150 434 c 0
 189 434 275 436 275 436 c 1
 277 434 l 1
 277 410 l 2
 277 405 273 402 269 402 c 2
 250 402 l 2
 217 402 207 386 207 358 c 2
 207 240 l 1
 312.9 240 l 1
 324.4 359.8 399.6 444 526 444 c 0
 680.8 444 739.8 321 739.8 216 c 0
 739.8 115 672.2 -10 525 -10 c 0
 390.3 -10 316.7 96.1 311.6 196 c 1
 207 196 l 1
 207 77 l 2
 207 48 217 33 250 33 c 2
 269 33 l 2
 273 33 277 30 277 24 c 2
 277 1 l 1
 275 -1 l 1
 275 -1 189 1 150 1 c 0
 114 1 29 -1 29 -1 c 1
 27 1 l 1
 27 24 l 2
 27 30 30 33 35 33 c 2
 54 33 l 2
 87 33 97 48 97 77 c 2
 97 358 l 2
516.5 403 m 0
 455.7 403 427.2 314 427.2 229 c 0
 427.2 155 462.3 33 540.2 33 c 0
 574.4 33 624.8 57 624.8 184 c 0
 624.8 327 581.1 403 516.5 403 c 0
EndSplineSet
EndChar

StartChar: afii10097
Encoding: 1103 1103 103
Width: 479
VWidth: 999
Flags: HW
HStem: -1 34<19 64.1167 231 284.833 389.366 450> 195 40<220.82 287> 204 31<163 174> 402 33<171.489 285.05 382.047 448>
VStem: 42 110<251.526 368.984> 287 92<38.896 195 235 399.272>
LayerCount: 2
Fore
SplineSet
287 235 m 1
 287 366 l 2
 287 398 280 402 241 402 c 0
 154 402 152 368 152 321 c 0
 152 271 163 235 219 235 c 2
 287 235 l 1
109 136 m 0
 125 177 146 198 174 204 c 1
 119 204 42 239 42 310 c 0
 42 384 132 435 206 435 c 2
 283 435 l 1
 343 434 l 1
 448 436 l 1
 450 434 l 1
 450 405 l 2
 450 403 449 402 446 402 c 2
 421 402 l 2
 396 402 379 393 379 372 c 2
 379 81 l 2
 379 55 399 33 418 33 c 2
 439 33 l 2
 447 33 450 25 450 24 c 2
 450 -1 l 1
 450 -1 384 1 341 1 c 0
 298 1 231 -1 231 -1 c 1
 231 26 l 2
 231 30 233 33 237 33 c 2
 251 33 l 2
 285 33 287 42 287 81 c 2
 287 195 l 1
 259 195 l 2
 220 195 196 145 175 84 c 1
 162 43 132 0 100 0 c 2
 19 -1 l 1
 16 1 l 1
 16 20 l 2
 16 27 22 28 26 28 c 2
 34 28 l 2
 63 28 95 98 109 136 c 0
EndSplineSet
EndChar

StartChar: uni04AE
Encoding: 1198 1198 104
Width: 541
Flags: HW
HStem: -1 36<154 228.839 358.336 435> 611 36<-9 41.811 186.001 236 379 429.999 514.645 584>
VStem: 232 123<36.304 280>
DStem2: 313 377 235 280 0.502568 -0.864537<-258.021 0> 313 377 353 292 0.468767 0.883322<0 253.301>
LayerCount: 2
Fore
SplineSet
232 75 m 2
 232 282 l 1
 235 280 l 1
 179 376 123 473 67 569 c 0
 54 592 47 604 42 607 c 0
 38 609 32 611 25 611 c 2
 10 611 l 1
 1 612 -19 615 -19 622 c 2
 -19 638 l 1
 -9 647 l 1
 -9 647 96 645 109 645 c 0
 115 645 236 647 236 647 c 1
 246 638 l 1
 246 623 l 2
 246 617 237 611 218 611 c 2
 189 611 l 2
 187 611 186 608 186 602 c 0
 186 594 189 585 195 575 c 0
 240 500 268 454 313 377 c 1
 350 443 386 509 421 575 c 0
 427 586 430 595 430 602 c 0
 430 609 429 611 426 611 c 2
 396 611 l 1
 374 613 370 618 370 622 c 2
 370 638 l 1
 379 647 l 1
 379 647 471 645 484 645 c 0
 492 645 584 647 584 647 c 1
 593 638 l 1
 593 623 l 2
 593 614 582 611 562 611 c 2
 541 611 l 2
 526 611 517 600 500 569 c 2
 353 292 l 1
 355 293 l 1
 355 75 l 2
 355 47 365 35 388 35 c 2
 414 35 l 2
 430 35 444 31 444 23 c 2
 444 8 l 1
 435 -1 l 1
 435 -1 334 1 296 1 c 0
 261 1 154 -1 154 -1 c 1
 145 8 l 1
 145 23 l 2
 145 31 156 35 174 35 c 2
 200 35 l 2
 224 35 232 50 232 75 c 2
EndSplineSet
EndChar

StartChar: uni04C0
Encoding: 1216 1216 105
Width: 317
VWidth: 999
Flags: HW
HStem: -2 34<36 104.724 240.184 308> 613 34<36 104.724 240.184 308>
VStem: 111 122<37.5094 607.491>
LayerCount: 2
Fore
SplineSet
233 76 m 2
 233 48 247 32 288 32 c 2
 302 32 l 2
 307 32 310 29 310 23 c 2
 310 0 l 1
 308 -2 l 1
 308 -2 208 0 172 0 c 0
 133 0 36 -2 36 -2 c 1
 34 0 l 1
 34 23 l 2
 34 29 38 32 42 32 c 2
 56 32 l 2
 96 32 111 44 111 76 c 2
 111 569 l 2
 111 601 96 613 56 613 c 2
 42 613 l 2
 38 613 34 616 34 621 c 2
 34 645 l 1
 36 647 l 1
 36 647 133 645 172 645 c 0
 208 645 308 647 308 647 c 1
 310 645 l 1
 310 621 l 2
 310 616 307 613 302 613 c 2
 288 613 l 2
 247 613 233 597 233 569 c 2
 233 76 l 2
EndSplineSet
EndChar

StartChar: uni04D0
Encoding: 1232 1232 106
Width: 699
VWidth: 999
Flags: HW
HStem: -1 34<10 60.0229 142.897 211 414 482.841 622.594 692> 241 47<234.168 403> 638 20<348.5 364.5> 698 31<313.536 404.309>
VStem: 234 70<736.681 803.162> 413 70<735.774 803.125>
DStem2: 89 91 148 79 0.384126 0.923281<-23.1403 196.063 246.684 479.281> 399 627 320 514 0.352654 -0.935754<77.8806 318.631 368.607 561.264>
LayerCount: 2
Fore
SplineSet
483 775 m 0
 483 723 421 698 358 698 c 0
 292 698 234 722 234 774 c 0
 234 796 246 805 273 805 c 0
 294 805 304 789 304 774 c 0
 304 772 303 767 303 766 c 0
 303 746 326 729 359 729 c 0
 389 729 414 743 414 765 c 0
 414 766 413 773 413 774 c 0
 413 789 422 805 445 805 c 0
 471 805 483 795 483 775 c 0
253 288 m 2
 403 288 l 1
 320 514 l 1
 234 300 l 1
 234 291 235 288 253 288 c 2
148 79 m 2
 137 50 136 33 195 33 c 0
 211 33 216 31 216 23 c 2
 216 3 l 1
 211 -1 l 1
 211 -1 119 1 95 1 c 0
 70 1 10 -1 10 -1 c 1
 2 2 l 1
 2 23 l 2
 2 33 10 33 22 33 c 0
 42 33 72 50 89 91 c 2
 312 627 l 2
 322 651 343 658 354 658 c 0
 375 658 391 648 399 627 c 2
 601 91 l 2
 615 54 629 33 654 33 c 2
 682 33 l 2
 697 33 697 31 697 23 c 2
 697 3 l 1
 692 -1 l 1
 692 -1 596 1 558 1 c 0
 522 1 414 -1 414 -1 c 1
 406 4 l 1
 406 23 l 2
 406 31 414 33 432 33 c 2
 459 33 l 2
 476 33 484 44 484 59 c 0
 484 64 484 70 482 73 c 2
 420 241 l 1
 236 241 l 2
 216 241 211 240 205 227 c 2
 148 79 l 2
EndSplineSet
LCarets2: 1 0 
EndChar

StartChar: uni04D1
Encoding: 1233 1233 107
Width: 476
VWidth: 999
Flags: HW
HStem: -10 55<110.871 229.853 351 447.215> 406 38<148.426 256.61> 489 31<188.971 263.548>
VStem: 36 105<56.7004 159.155> 48 93<295.994 379.736> 105 73<526.632 605.612> 274 73<526.548 606.547> 282 108<69.6589 219 257 374.929>
DStem2: 210 236 225 202 0.96 0.28<-70.2096 64.36>
LayerCount: 2
Fore
SplineSet
347 577 m 0
 347 522 289 489 225 489 c 0
 160 489 105 522 105 576 c 0
 105 594 121 609 144 609 c 0
 166 609 178 595 178 579 c 0
 178 577 177 574 177 571 c 0
 176 568 176 565 176 563 c 0
 176 541 196 520 226 520 c 0
 255 520 276 540 276 562 c 0
 276 565 276 568 275 571 c 0
 274 573 274 576 274 578 c 0
 274 595 290 609 309 609 c 0
 333 609 347 596 347 577 c 0
281 48 m 1
 242.5 14.5 198 -10 156 -10 c 0
 69 -10 36 26 36 95 c 0
 36 174 106.9 205.9 210 236 c 2
 282 257 l 1
 282 384 254 406 212 406 c 0
 174 406 141 393 141 371 c 0
 141 351 147 340 147 328 c 0
 147 314 123 290 95 290 c 0
 59 290 48 306 48 332 c 0
 48 392 153 444 226 444 c 0
 308 444 390 415 390 271 c 2
 390 126 l 2
 390 80 391 42 430 42 c 0
 454.2 42 455.2 58 461 58 c 0
 465 58 474 45 474 38 c 0
 474 33 436 -10 381 -10 c 0
 321 -10 295 9.5 283 48 c 1
 281 48 l 1
282 85 m 1
 282 219 l 1
 225 202 l 2
 154.7 181 141 151 141 110 c 0
 141 75 156 45 204 45 c 0
 222 45 257 65 282 85 c 1
EndSplineSet
LCarets2: 1 0 
EndChar

StartChar: uni04D2
Encoding: 1234 1234 108
Width: 699
VWidth: 999
Flags: HW
HStem: -1 34<10 60.0229 142.897 211 414 482.841 622.594 692> 241 47<234.168 403> 638 20<348.5 364.5> 703 107<235.97 322.324 416.676 503.03>
VStem: 225 108<714.388 798.537> 406 108<714.388 798.537>
DStem2: 89 91 148 79 0.384126 0.923281<-23.1403 196.063 246.684 479.281> 399 627 320 514 0.352654 -0.935754<77.8806 318.631 368.607 561.264>
LayerCount: 2
Fore
SplineSet
406 756 m 0
 406 786 430 810 460 810 c 0
 489 810 514 786 514 756 c 0
 514 727 489 703 460 703 c 0
 430 703 406 727 406 756 c 0
225 756 m 0
 225 786 250 810 279 810 c 0
 309 810 333 786 333 756 c 0
 333 727 309 703 279 703 c 0
 250 703 225 727 225 756 c 0
253 288 m 2
 403 288 l 1
 320 514 l 1
 234 300 l 1
 234 291 235 288 253 288 c 2
148 79 m 2
 137 50 136 33 195 33 c 0
 211 33 216 31 216 23 c 2
 216 3 l 1
 211 -1 l 1
 211 -1 119 1 95 1 c 0
 70 1 10 -1 10 -1 c 1
 2 2 l 1
 2 23 l 2
 2 33 10 33 22 33 c 0
 42 33 72 50 89 91 c 2
 312 627 l 2
 322 651 343 658 354 658 c 0
 375 658 391 648 399 627 c 2
 601 91 l 2
 615 54 629 33 654 33 c 2
 682 33 l 2
 697 33 697 31 697 23 c 2
 697 3 l 1
 692 -1 l 1
 692 -1 596 1 558 1 c 0
 522 1 414 -1 414 -1 c 1
 406 4 l 1
 406 23 l 2
 406 31 414 33 432 33 c 2
 459 33 l 2
 476 33 484 44 484 59 c 0
 484 64 484 70 482 73 c 2
 420 241 l 1
 236 241 l 2
 216 241 211 240 205 227 c 2
 148 79 l 2
EndSplineSet
LCarets2: 1 0 
EndChar

StartChar: uni04D3
Encoding: 1235 1235 109
Width: 476
VWidth: 999
Flags: HW
HStem: -10 55<110.871 229.853 351 447.215> 406 38<148.426 256.61> 518 107<91.9699 178.324 272.676 359.03>
VStem: 36 105<56.7004 159.155> 48 93<295.994 379.736> 81 108<529.388 613.537> 262 108<529.388 613.537> 282 108<69.6589 219 257 374.929>
DStem2: 210 236 225 202 0.96 0.28<-70.2096 64.36>
LayerCount: 2
Fore
SplineSet
262 571 m 0
 262 601 286 625 316 625 c 0
 345 625 370 601 370 571 c 0
 370 542 345 518 316 518 c 0
 286 518 262 542 262 571 c 0
81 571 m 0
 81 601 106 625 135 625 c 0
 165 625 189 601 189 571 c 0
 189 542 165 518 135 518 c 0
 106 518 81 542 81 571 c 0
281 48 m 1
 242.5 14.5 198 -10 156 -10 c 0
 69 -10 36 26 36 95 c 0
 36 174 106.9 205.9 210 236 c 2
 282 257 l 1
 282 384 254 406 212 406 c 0
 174 406 141 393 141 371 c 0
 141 351 147 340 147 328 c 0
 147 314 123 290 95 290 c 0
 59 290 48 306 48 332 c 0
 48 392 153 444 226 444 c 0
 308 444 390 415 390 271 c 2
 390 126 l 2
 390 80 391 42 430 42 c 0
 454.2 42 455.2 58 461 58 c 0
 465 58 474 45 474 38 c 0
 474 33 436 -10 381 -10 c 0
 321 -10 295 9.5 283 48 c 1
 281 48 l 1
282 85 m 1
 282 219 l 1
 225 202 l 2
 154.7 181 141 151 141 110 c 0
 141 75 156 45 204 45 c 0
 222 45 257 65 282 85 c 1
EndSplineSet
LCarets2: 1 0 
EndChar

StartChar: uni04D4
Encoding: 1236 1236 110
Width: 910
VWidth: 999
Flags: HW
HStem: -1 34<4 81.5469 161.374 218 362 442.155> 1 46<571.232 790.184> 266 39<291 449> 324 42<571 708.75> 428 20<730 762> 601 45<571.232 768.482> 613 33<296 356.281>
VStem: 449 122<47.4756 266 305 324 366 558.22> 719 36<252.814 316.565 373.435 437.232> 821 40<483.425 532.807> 846 44<116.362 171.591>
DStem2: 95 70 165 68 0.465821 0.884879<8.60003 255.421 299.247 590.236>
LayerCount: 2
Fore
SplineSet
291 305 m 1
 449 305 l 1
 449 545 l 2
 449 571 437 578 420 546 c 2
 291 305 l 1
516 1 m 1
 362 -1 l 1
 360 1 l 1
 360 23 l 2
 360 29 363 33 368 33 c 2
 395 33 l 2
 436 33 449 49 449 77 c 2
 449 266 l 1
 271 266 l 1
 165 68 l 2
 149 39 180 33 214 33 c 0
 218 33 220 29 220 27 c 2
 220 1 l 1
 218 -1 l 1
 218 -1 143 1 104 1 c 0
 69 1 4 -1 4 -1 c 1
 2 1 l 1
 2 25 l 2
 2 30 6 33 12 33 c 2
 35 33 l 2
 63 33 76 35 95 70 c 2
 354 562 l 2
 373 599 348 613 302 613 c 0
 296 613 294 616 294 620 c 2
 294 645 l 1
 296 646 l 1
 517 646 l 1
 840 646 l 1
 844 589 852 536 861 485 c 1
 821 476 l 1
 807 527 782 601 715 601 c 2
 585 601 l 2
 576 601 571 593 571 572 c 2
 571 366 l 1
 685 366 l 2
 709 366 713 396 719 437 c 0
 719 441 725 448 735 448 c 2
 756 448 l 1
 762 438 l 1
 760 422 755 381 755 345 c 0
 755 309 760 269 762 252 c 1
 756 243 l 1
 735 243 l 2
 725 243 719 249 719 253 c 0
 713 294 709 324 685 324 c 2
 571 324 l 1
 571 76 l 2
 571 53 576 47 585 47 c 2
 738 47 l 2
 793 47 830 106 846 180 c 1
 890 170 l 1
 879 117 870 55 862 1 c 1
 516 1 l 1
EndSplineSet
EndChar

StartChar: uni04D5
Encoding: 1237 1237 111
Width: 715
VWidth: 999
Flags: HW
HStem: -12 50<170.4 265.865 476.5 578.383> 209 44<222.016 301> 399 45<457.148 555.404> 407 37<161.99 261.109>
VStem: 47 104<57.8405 157.134> 58 97<311.521 385.652> 301 105<117.991 209 260 335.245> 574 104<295.592 383.979>
LayerCount: 2
Fore
SplineSet
506 399 m 0
 454 399 417 339 408 260 c 1
 515 267 574 285 574 339 c 0
 574 378 541 399 506 399 c 0
288 103 m 0
 293 118 300 162 301 209 c 1
 206 197 151 156 151 111 c 0
 151 70 181 38 217 38 c 0
 248 38 270 51 288 103 c 0
230 444 m 0
 280 444 333 436 368 384 c 1
 398 423 455 445 513 444 c 1
 636 444 678 394 678 342 c 0
 678 257 591 221 406 217 c 1
 407 116 463 44 524 44 c 0
 566 44 598 67 633 109 c 1
 673 85 l 1
 644 31 589 -12 511 -12 c 0
 429 -12 391 21 352 70 c 1
 321 16 264 -12 202 -12 c 0
 127 -12 47 10 47 89 c 0
 47 179 134 239 301 253 c 1
 301 358 265 407 218 407 c 0
 181 407 155 393 155 371 c 0
 155 351 162 340 162 328 c 0
 162 314 153 287 108 287 c 0
 73 287 58 313 58 339 c 0
 58 399 158 444 230 444 c 0
EndSplineSet
EndChar

StartChar: uni04D6
Encoding: 1238 1238 112
Width: 562
VWidth: 999
Flags: HW
HStem: 0 33<27 94.1445> 0 46<224.232 442.935> 323 42<224 361.625> 427 20<383 415> 600 46<224.232 421.482> 613 33<27 94.1445> 698 31<228.536 319.309>
VStem: 101 123<46.578 323 365 599.422> 149 70<736.681 803.162> 328 70<735.774 803.125> 372 36<251.814 315.565 372.621 436.233> 474 40<482.425 531.807> 499 43<118.211 170.628>
LayerCount: 2
Fore
SplineSet
398 775 m 0
 398 723 336 698 273 698 c 0
 207 698 149 722 149 774 c 0
 149 796 161 805 188 805 c 0
 209 805 219 789 219 774 c 0
 219 772 218 767 218 766 c 0
 218 746 241 729 274 729 c 0
 304 729 329 743 329 765 c 0
 329 766 328 773 328 774 c 0
 328 789 337 805 360 805 c 0
 386 805 398 795 398 775 c 0
27 0 m 1
 24 2 l 1
 24 24 l 2
 24 30 28 33 32 33 c 2
 46 33 l 2
 86 33 101 45 101 77 c 2
 101 569 l 2
 101 601 86 613 46 613 c 2
 32 613 l 2
 28 613 24 616 24 621 c 2
 24 644 l 1
 27 646 l 1
 493 646 l 1
 497 588 504 535 514 484 c 1
 474 475 l 1
 460 526 435 600 368 600 c 2
 238 600 l 2
 229 600 224 592 224 571 c 2
 224 365 l 1
 337 365 l 2
 362 365 366 396 372 436 c 0
 372 440 378 447 388 447 c 2
 409 447 l 1
 415 437 l 1
 413 421 408 381 408 344 c 0
 408 308 413 268 415 251 c 1
 409 242 l 1
 388 242 l 2
 378 242 372 248 372 252 c 0
 366 293 362 323 337 323 c 2
 224 323 l 1
 224 75 l 2
 224 52 229 46 238 46 c 2
 391 46 l 2
 446 46 482 105 499 179 c 1
 542 169 l 1
 532 116 522 54 515 0 c 1
 27 0 l 1
EndSplineSet
LCarets2: 1 0 
EndChar

StartChar: uni04D7
Encoding: 1239 1239 113
Width: 461
VWidth: 999
Flags: HW
HStem: -10 56<218.732 346.305> 245 40<154 316> 402 42<199.114 288.493> 489 31<201.971 276.548>
VStem: 34 115<124.669 245 285 306.603> 118 73<526.632 605.612> 287 73<526.548 606.547> 316 115<259 363.973>
LayerCount: 2
Fore
SplineSet
360 577 m 0
 360 522 302 489 238 489 c 0
 173 489 118 522 118 576 c 0
 118 594 134 609 157 609 c 0
 179 609 191 595 191 579 c 0
 191 577 190 574 190 571 c 0
 189 568 189 565 189 563 c 0
 189 541 209 520 239 520 c 0
 268 520 289 540 289 562 c 0
 289 565 289 568 288 571 c 0
 287 573 287 576 287 578 c 0
 287 595 303 609 322 609 c 0
 346 609 360 596 360 577 c 0
154 285 m 1
 314 285 l 1
 316 287 316 290 316 296 c 0
 316 376 275 402 248 402 c 0
 227 402 168 387 154 285 c 1
397 109 m 1
 422 88 l 1
 385 13 315 -10 246 -10 c 0
 94 -10 34 88 34 198 c 0
 34 351 144 444 249 444 c 0
 396 444 431 351 431 266 c 0
 431 252 416 245 392 245 c 2
 149 245 l 1
 149 240 149 226 149 219 c 0
 149 121 207 46 285 46 c 0
 323 46 360 64 397 109 c 1
EndSplineSet
LCarets2: 1 0 
EndChar

StartChar: uni04D8
Encoding: 1240 1240 114
Width: 692
VWidth: 999
Flags: HW
HStem: -12 41<271.879 417.179> 213 52<163 523> 617 41<239.681 396.442>
VStem: 534 132<228.384 438.088>
LayerCount: 2
Fore
SplineSet
523 213 m 1
 163 213 l 1
 195 90 266 29 350 29 c 0
 439 29 504 118 523 213 c 1
115 503 m 1
 75 545 l 1
 156 620 216 658 336 658 c 0
 564 658 666 485 666 327 c 0
 666 131 547 -12 343 -12 c 0
 137 -12 52 120 40 265 c 1
 533 265 l 1
 534 274 534 287 534 297 c 0
 534 479 442 617 322 617 c 0
 242 617 176 561 115 503 c 1
EndSplineSet
EndChar

StartChar: afii10846
Encoding: 1241 1241 115
Width: 461
VWidth: 999
Flags: HW
HStem: -11 42<172.507 261.886> 148 40<145 307> 387 56<114.695 242.268>
VStem: 30 115<69.027 174> 312 115<126.397 148 188 308.331>
LayerCount: 2
Fore
SplineSet
307 148 m 1
 147 148 l 1
 145 146 145 143 145 137 c 0
 145 57 186 31 213 31 c 0
 234 31 293 46 307 148 c 1
64 324 m 1
 39 345 l 1
 76 420 146 443 215 443 c 0
 367 443 427 345 427 235 c 0
 427 82 317 -11 212 -11 c 0
 65 -11 30 82 30 167 c 0
 30 181 45 188 69 188 c 2
 312 188 l 1
 312 193 312 207 312 214 c 0
 312 312 254 387 176 387 c 0
 138 387 101 369 64 324 c 1
EndSplineSet
EndChar

StartChar: uni04DA
Encoding: 1242 1242 116
Width: 692
VWidth: 999
Flags: HW
HStem: -12 41<271.879 417.179> 213 52<163 523> 617 41<239.681 396.442> 695 107<188.676 274.685 376.676 463.03>
VStem: 178 107<705.609 791.324> 366 108<706.388 790.537> 534 132<228.384 438.088>
LayerCount: 2
Fore
SplineSet
178 748 m 0
 178 778 202 802 232 802 c 0
 262 802 285 778 285 748 c 0
 285 718 262 695 232 695 c 0
 202 695 178 718 178 748 c 0
366 748 m 0
 366 778 390 802 420 802 c 0
 450 802 473 778 473 748 c 0
 473 718 450 695 420 695 c 0
 390 695 366 718 366 748 c 0
523 213 m 1
 163 213 l 1
 195 90 266 29 350 29 c 0
 439 29 504 118 523 213 c 1
115 503 m 1
 75 545 l 1
 156 620 216 658 336 658 c 0
 564 658 666 485 666 327 c 0
 666 131 547 -12 343 -12 c 0
 137 -12 52 120 40 265 c 1
 533 265 l 1
 534 274 534 287 534 297 c 0
 534 479 442 617 322 617 c 0
 242 617 176 561 115 503 c 1
EndSplineSet
LCarets2: 1 0 
EndChar

StartChar: uni04DB
Encoding: 1243 1243 117
Width: 461
VWidth: 999
Flags: HW
HStem: -11 42<172.507 261.886> 148 40<145 307> 387 56<114.695 242.268> 518 107<79.9699 166.324 260.676 347.03>
VStem: 30 115<69.027 174> 69 108<529.388 613.537> 250 108<529.388 613.537> 312 115<126.397 148 188 308.331>
LayerCount: 2
Fore
SplineSet
250 571 m 0
 250 601 274 625 304 625 c 0
 333 625 358 601 358 571 c 0
 358 542 333 518 304 518 c 0
 274 518 250 542 250 571 c 0
69 571 m 0
 69 601 94 625 123 625 c 0
 153 625 177 601 177 571 c 0
 177 542 153 518 123 518 c 0
 94 518 69 542 69 571 c 0
307 148 m 1
 147 148 l 1
 145 146 145 143 145 137 c 0
 145 57 186 31 213 31 c 0
 234 31 293 46 307 148 c 1
64 324 m 1
 39 345 l 1
 76 420 146 443 215 443 c 0
 367 443 427 345 427 235 c 0
 427 82 317 -11 212 -11 c 0
 65 -11 30 82 30 167 c 0
 30 181 45 188 69 188 c 2
 312 188 l 1
 312 193 312 207 312 214 c 0
 312 312 254 387 176 387 c 0
 138 387 101 369 64 324 c 1
EndSplineSet
LCarets2: 1 0 
EndChar

StartChar: uni04E0
Encoding: 1248 1248 118
Width: 632
VWidth: 999
Flags: HW
HStem: -208 48<239.267 370.096> 600 46<156.06 435>
VStem: 57 56<468.375 534.227> 464 132<-45.3333 153.188>
DStem2: 238 243 398 289 0.483142 0.875542<117.578 407.747>
LayerCount: 2
Fore
SplineSet
532 646 m 2
 568 646 582 639 582 629 c 0
 582 622 571 603 562 586 c 2
 398 289 l 1
 534 257 596 161 596 54 c 0
 596 -85 476 -208 285 -208 c 0
 198 -208 35 -172 35 -105 c 0
 35 -80 51 -52 101 -52 c 0
 137 -52 172 -67 187 -88 c 0
 216 -129 263 -160 303 -160 c 0
 380 -160 464 -71 464 45 c 0
 464 200 365 252 304 252 c 0
 292 252 282 252 238 243 c 1
 435 600 l 1
 198 600 l 1
 142 599 117 509 113 464 c 1
 57 469 l 1
 79 674 l 1
 116 666 115 662 124 659 c 0
 142 652 160 646 168 646 c 2
 532 646 l 2
EndSplineSet
EndChar

StartChar: uni04E1
Encoding: 1249 1249 119
Width: 450
VWidth: 999
Flags: HW
HStem: -227 37<160.355 250.096> 386 47<121 269>
VStem: 316 117<-114.702 49.9858>
DStem2: 110 98 254 156 0.483318 0.875445<120.374 328.976>
LayerCount: 2
Fore
SplineSet
123 440 m 0
 123 435 122 433 121 433 c 2
 348 433 l 2
 382 433 394 428 394 416 c 0
 394 413 389 402 381 386 c 2
 254 156 l 1
 368 138 433 69 433 -30 c 0
 433 -127 350 -227 193 -227 c 0
 90 -227 21 -186 21 -151 c 0
 21 -134 34 -117 71 -117 c 0
 105 -117 127 -124 141 -147 c 0
 153 -168 175 -190 202 -190 c 0
 244 -190 316 -145 316 -31 c 0
 316 51 260 112 194 112 c 0
 179 112 151 107 110 98 c 1
 269 386 l 1
 151 386 l 2
 132 386 113 373 93 287 c 1
 40 293 l 1
 73 454 l 1
 124 446 l 1
 123 444 123 441 123 440 c 0
EndSplineSet
EndChar

StartChar: uni04E6
Encoding: 1254 1254 120
Width: 730
VWidth: 999
Flags: HW
HStem: -10 41<303.11 453.742> 617 41<284.435 429.841> 695 107<209.676 295.685 397.676 484.03>
VStem: 37 131<190.561 438.95> 199 107<705.609 791.324> 387 108<706.388 790.537> 562 132<199.461 449.883>
LayerCount: 2
Fore
SplineSet
199 748 m 0
 199 778 223 802 253 802 c 0
 283 802 306 778 306 748 c 0
 306 718 283 695 253 695 c 0
 223 695 199 718 199 748 c 0
387 748 m 0
 387 778 411 802 441 802 c 0
 471 802 494 778 494 748 c 0
 494 718 471 695 441 695 c 0
 411 695 387 718 387 748 c 0
351 617 m 0
 266 617 168 532 168 328 c 0
 168 140 266 31 384 31 c 0
 485 31 562 136 562 310 c 0
 562 513 464 617 351 617 c 0
694 329 m 0
 694 129 566 -10 364 -10 c 0
 182 -10 37 113 37 311 c 0
 37 507 173 658 363 658 c 0
 540 658 694 528 694 329 c 0
EndSplineSet
LCarets2: 1 0 
EndChar

StartChar: uni04E7
Encoding: 1255 1255 121
Width: 519
VWidth: 999
Flags: HW
HStem: -10 43<223.814 325.852> 403 41<203.326 303.665> 519 107<122.97 209.324 303.676 390.03>
VStem: 34 122<119.406 317.729> 112 108<530.388 614.537> 293 108<530.388 614.537> 364 121<118.762 320.282>
LayerCount: 2
Fore
SplineSet
250 403 m 0
 186 403 156 314 156 229 c 0
 156 155 193 33 275 33 c 0
 311 33 364 57 364 184 c 0
 364 327 318 403 250 403 c 0
34 207 m 0
 34 344 115 444 260 444 c 0
 423 444 485 321 485 216 c 0
 485 115 414 -10 259 -10 c 0
 112 -10 34 104 34 207 c 0
293 572 m 0
 293 602 317 626 347 626 c 0
 376 626 401 602 401 572 c 0
 401 543 376 519 347 519 c 0
 317 519 293 543 293 572 c 0
112 572 m 0
 112 602 137 626 166 626 c 0
 196 626 220 602 220 572 c 0
 220 543 196 519 166 519 c 0
 137 519 112 543 112 572 c 0
EndSplineSet
LCarets2: 1 0 
EndChar

StartChar: uni04E8
Encoding: 1256 1256 122
Width: 730
VWidth: 999
Flags: HW
HStem: -10 41<303.11 453.742> 265 58<379.47 528.369> 311 58<169.37 336.519> 617 41<284.435 429.841>
VStem: 37 131<190.561 438.95> 95 15<267.333 271.216> 562 132<199.461 449.883>
LayerCount: 2
Fore
SplineSet
694 329 m 0
 694 129 566 -10 364 -10 c 0
 182 -10 37 113 37 311 c 0
 37 507 173 658 363 658 c 0
 540 658 694 528 694 329 c 0
560.5 352.6 m 1
 547.7 527.5 455.8 617 351 617 c 0
 268.7 617 174.3 537.3 168.3 347.2 c 1
 202.5 362.2 241 369 267 369 c 0
 366 369 396 323 459 323 c 0
 487.7 323 528.5 333.3 560.5 352.6 c 1
562 308.3 m 1
 522 275.5 476.3 265 441 265 c 0
 349 265 325 311 250 311 c 0
 229.7 311 197.9 308.9 168.7 300 c 1
 177.9 129.2 272 31 384 31 c 0
 484.7 31 561.5 135.3 562 308.3 c 1
EndSplineSet
EndChar

StartChar: uni04E9
Encoding: 1257 1257 123
Width: 519
VWidth: 999
Flags: HW
HStem: -10 43<223.814 325.852> 176 54<224.827 349.161> 207 45<148.343 245.732> 403 41<203.326 303.665>
VStem: 34 122<119.406 317.729> 364 121<118.762 320.282>
AnchorPoint: "unten_punkt" 246 -107 basechar 0
AnchorPoint: "top_punkt" 244 550 basechar 0
AnchorPoint: "top_akzent" 236 645 basechar 0
LayerCount: 2
Fore
SplineSet
34 207 m 0
 34 344 115 444 260 444 c 0
 423 444 485 321 485 216 c 0
 485 115 414 -10 259 -10 c 0
 112 -10 34 104 34 207 c 0
363.6 206.7 m 1
 342.9 192.6 312.2 176 285 176 c 0
 246 176 215 207 184 207 c 0
 178.1 207 167.2 204.4 157.5 202 c 1
 165.1 128.7 202.4 33 275 33 c 0
 311 33 364 57 364 184 c 0
 364 191.8 363.9 199.3 363.6 206.7 c 1
361.5 239 m 1
 351 346.4 308.7 403 250 403 c 0
 187.3 403 157.2 317.7 156 234.3 c 1
 177 244.1 207.1 252 230 252 c 0
 270 252 290 230 324 230 c 0
 337.3 230 350.2 234 361.5 239 c 1
EndSplineSet
EndChar

StartChar: uni04EA
Encoding: 1258 1258 124
Width: 730
VWidth: 999
Flags: HW
HStem: -10 41<303.11 453.742> 265 58<379.47 528.369> 311 58<169.37 336.519> 617 41<284.435 429.841> 697 107<226.676 312.685 414.676 501.03>
VStem: 37 131<190.561 438.95> 95 15<267.333 271.216> 216 107<707.609 793.324> 404 108<708.388 792.537> 562 132<199.461 449.883>
LayerCount: 2
Fore
SplineSet
216 750 m 0
 216 780 240 804 270 804 c 0
 300 804 323 780 323 750 c 0
 323 720 300 697 270 697 c 0
 240 697 216 720 216 750 c 0
404 750 m 0
 404 780 428 804 458 804 c 0
 488 804 511 780 511 750 c 0
 511 720 488 697 458 697 c 0
 428 697 404 720 404 750 c 0
694 329 m 0
 694 129 566 -10 364 -10 c 0
 182 -10 37 113 37 311 c 0
 37 507 173 658 363 658 c 0
 540 658 694 528 694 329 c 0
560.5 352.6 m 1
 547.7 527.5 455.8 617 351 617 c 0
 268.7 617 174.3 537.3 168.3 347.2 c 1
 202.5 362.2 241 369 267 369 c 0
 366 369 396 323 459 323 c 0
 487.7 323 528.5 333.3 560.5 352.6 c 1
562 308.3 m 1
 522 275.5 476.3 265 441 265 c 0
 349 265 325 311 250 311 c 0
 229.7 311 197.9 308.9 168.7 300 c 1
 177.9 129.2 272 31 384 31 c 0
 484.7 31 561.5 135.3 562 308.3 c 1
EndSplineSet
LCarets2: 1 0 
EndChar

StartChar: uni04EB
Encoding: 1259 1259 125
Width: 519
VWidth: 999
Flags: HW
HStem: -10 43<223.814 325.852> 176 54<224.827 349.161> 207 45<148.343 245.732> 403 41<203.326 303.665> 518 107<124.97 211.324 305.676 392.03>
VStem: 34 122<119.406 317.729> 114 108<529.388 613.537> 295 108<529.388 613.537> 364 121<118.762 320.282>
LayerCount: 2
Fore
SplineSet
34 207 m 0
 34 344 115 444 260 444 c 0
 423 444 485 321 485 216 c 0
 485 115 414 -10 259 -10 c 0
 112 -10 34 104 34 207 c 0
295 571 m 0
 295 601 319 625 349 625 c 0
 378 625 403 601 403 571 c 0
 403 542 378 518 349 518 c 0
 319 518 295 542 295 571 c 0
114 571 m 0
 114 601 139 625 168 625 c 0
 198 625 222 601 222 571 c 0
 222 542 198 518 168 518 c 0
 139 518 114 542 114 571 c 0
363.6 206.7 m 1
 342.9 192.6 312.2 176 285 176 c 0
 246 176 215 207 184 207 c 0
 178.1 207 167.2 204.4 157.5 202 c 1
 165.1 128.7 202.4 33 275 33 c 0
 311 33 364 57 364 184 c 0
 364 191.8 363.9 199.3 363.6 206.7 c 1
361.5 239 m 1
 351 346.4 308.7 403 250 403 c 0
 187.3 403 157.2 317.7 156 234.3 c 1
 177 244.1 207.1 252 230 252 c 0
 270 252 290 230 324 230 c 0
 337.3 230 350.2 234 361.5 239 c 1
EndSplineSet
LCarets2: 1 0 
EndChar

StartChar: uni04EF
Encoding: 1263 1263 126
Width: 533
VWidth: 999
Flags: HW
HStem: -232.2 65.3<98.4399 174.076> 402 34<13 65.4406 195.582 240 340 384.791 462.58 516> 536 48<130.823 429.922>
VStem: 129 303<536.402 583.772>
DStem2: 199 357 92 336 0.37552 -0.926814<-34.5285 268.481> 215 -61 266 -71 0.373718 0.927542<-120.484 52.1765 182.748 398.364>
LayerCount: 2
Fore
SplineSet
432 341 m 2
 266 -71 l 2
 232 -155 189.3 -232.2 109.1 -232.2 c 0
 87.7 -232.2 33.2 -219.4 33.2 -177.7 c 0
 33.2 -143.5 63.1 -126.3 92 -126.3 c 0
 108.1 -126.3 127.4 -140.2 133.8 -149.8 c 0
 140.2 -159.4 145.5 -166.9 153 -166.9 c 0
 160.5 -166.9 186 -138 215 -61 c 2
 233 -12 l 1
 92 336 l 2
 72 386 60 402 20 402 c 0
 14 402 10 404 10 409 c 2
 10 434 l 1
 13 436 l 1
 13 436 77.7 434 119 434 c 0
 166.2 434 240 436 240 436 c 1
 244 434 l 1
 244 410 l 2
 244 403 238 402 236 402 c 0
 196 402 188 388 199 357 c 2
 292 105 l 1
 326 188 366 297 384 355 c 0
 396 391 375 402 344 402 c 0
 339 402 336 406 336 409 c 2
 336 433 l 1
 340 436 l 1
 340 436 408.3 434 452 434 c 0
 477 434 516 436 516 436 c 1
 518 434 l 1
 518 411 l 2
 518 406 513 402 507 402 c 0
 478 402 449 383 432 341 c 2
412 535 m 2
 138 535 l 2
 127 535 123 544 123 553 c 0
 123 565 135 585 148 585 c 2
 424 585 l 2
 434 585 438 576 438 568 c 0
 438 555 426 535 412 535 c 2
EndSplineSet
LCarets2: 1 0 
EndChar

StartChar: uni04F1
Encoding: 1265 1265 127
Width: 533
VWidth: 999
Flags: HW
HStem: -232.2 65.3<98.4399 174.076> 402 34<13 65.4406 195.582 240 340 384.791 462.58 516> 518 107<157.97 244.324 338.676 425.03>
VStem: 147 108<529.388 613.537> 328 108<529.388 613.537>
DStem2: 199 357 92 336 0.37552 -0.926814<-34.5285 268.481> 215 -61 266 -71 0.373718 0.927542<-120.484 52.1765 182.748 398.364>
LayerCount: 2
Fore
SplineSet
432 341 m 2
 266 -71 l 2
 232 -155 189.3 -232.2 109.1 -232.2 c 0
 87.7 -232.2 33.2 -219.4 33.2 -177.7 c 0
 33.2 -143.5 63.1 -126.3 92 -126.3 c 0
 108.1 -126.3 127.4 -140.2 133.8 -149.8 c 0
 140.2 -159.4 145.5 -166.9 153 -166.9 c 0
 160.5 -166.9 186 -138 215 -61 c 2
 233 -12 l 1
 92 336 l 2
 72 386 60 402 20 402 c 0
 14 402 10 404 10 409 c 2
 10 434 l 1
 13 436 l 1
 13 436 77.7 434 119 434 c 0
 166.2 434 240 436 240 436 c 1
 244 434 l 1
 244 410 l 2
 244 403 238 402 236 402 c 0
 196 402 188 388 199 357 c 2
 292 105 l 1
 326 188 366 297 384 355 c 0
 396 391 375 402 344 402 c 0
 339 402 336 406 336 409 c 2
 336 433 l 1
 340 436 l 1
 340 436 408.3 434 452 434 c 0
 477 434 516 436 516 436 c 1
 518 434 l 1
 518 411 l 2
 518 406 513 402 507 402 c 0
 478 402 449 383 432 341 c 2
328 571 m 0
 328 601 352 625 382 625 c 0
 411 625 436 601 436 571 c 0
 436 542 411 518 382 518 c 0
 352 518 328 542 328 571 c 0
147 571 m 0
 147 601 172 625 201 625 c 0
 231 625 255 601 255 571 c 0
 255 542 231 518 201 518 c 0
 172 518 147 542 147 571 c 0
EndSplineSet
LCarets2: 1 0 
EndChar

StartChar: uni04F3
Encoding: 1267 1267 128
Width: 533
VWidth: 999
Flags: HW
HStem: -232.2 65.3<98.4399 174.076> 402 34<13 65.4406 195.582 240 340 384.791 462.58 516>
DStem2: 199 357 92 336 0.37552 -0.926814<-34.5285 268.481> 215 -61 266 -71 0.373718 0.927542<-120.484 52.1765 182.748 398.364>
LayerCount: 2
Fore
SplineSet
432 341 m 2
 266 -71 l 2
 232 -155 189.3 -232.2 109.1 -232.2 c 0
 87.7 -232.2 33.2 -219.4 33.2 -177.7 c 0
 33.2 -143.5 63.1 -126.3 92 -126.3 c 0
 108.1 -126.3 127.4 -140.2 133.8 -149.8 c 0
 140.2 -159.4 145.5 -166.9 153 -166.9 c 0
 160.5 -166.9 186 -138 215 -61 c 2
 233 -12 l 1
 92 336 l 2
 72 386 60 402 20 402 c 0
 14 402 10 404 10 409 c 2
 10 434 l 1
 13 436 l 1
 13 436 77.7 434 119 434 c 0
 166.2 434 240 436 240 436 c 1
 244 434 l 1
 244 410 l 2
 244 403 238 402 236 402 c 0
 196 402 188 388 199 357 c 2
 292 105 l 1
 326 188 366 297 384 355 c 0
 396 391 375 402 344 402 c 0
 339 402 336 406 336 409 c 2
 336 433 l 1
 340 436 l 1
 340 436 408.3 434 452 434 c 0
 477 434 516 436 516 436 c 1
 518 434 l 1
 518 411 l 2
 518 406 513 402 507 402 c 0
 478 402 449 383 432 341 c 2
474.8 608.7 m 0
 474.8 597 469.8 591.9 462 584.5 c 2
 364 491.6 l 2
 358.8 486.6 353.8 484.3 349.1 484.3 c 0
 341.5 484.3 333.7 490.1 333.7 499 c 0
 333.7 503 335.2 507.7 338.2 513 c 2
 406.1 634 l 2
 407.6 636.7 415 652.2 434 652.2 c 0
 458.5 652.2 474.8 632.8 474.8 608.7 c 0
346 621 m 0
 346 616 345 610 341 605 c 2
 249.1 496 l 2
 240.1 485.4 231.7 481 225.1 481 c 0
 217.3 481 212.1 487.3 212.1 496.5 c 0
 212.1 500.5 213.2 505.1 215.3 510 c 2
 274 644 l 2
 278.9 655.1 293 657 304 657 c 0
 326.3 657 346 640.2 346 621 c 0
EndSplineSet
LCarets2: 1 0 
EndChar

StartChar: uni1E00
Encoding: 7680 7680 129
Width: 699
VWidth: 999
Flags: HW
HStem: -215 32<313.025 383.277> -80 31<313.945 382.472> -1 34<10 60.0229 142.897 211 414 482.841 622.594 692> 241 47<234.168 403> 638 20<348.5 364.5>
VStem: 263 36<-170.655 -92.2363> 397 37<-171.322 -91.8533>
DStem2: 89 91 148 79 0.384126 0.923281<-23.1403 196.063 246.684 479.281> 399 627 320 514 0.352654 -0.935754<77.8806 318.631 368.607 561.264>
LayerCount: 2
Fore
SplineSet
348 -80 m 0
 320 -80 299 -104 299 -132 c 0
 299 -158 319 -183 348 -183 c 0
 377 -183 397 -158 397 -132 c 0
 397 -103 375 -80 348 -80 c 0
263 -132 m 0
 263 -86 301 -49 348 -49 c 0
 393 -49 434 -85 434 -132 c 0
 434 -177 395 -215 348 -215 c 0
 302 -215 263 -178 263 -132 c 0
253 288 m 2
 403 288 l 1
 320 514 l 1
 234 300 l 1
 234 291 235 288 253 288 c 2
148 79 m 2
 137 50 136 33 195 33 c 0
 211 33 216 31 216 23 c 2
 216 3 l 1
 211 -1 l 1
 211 -1 119 1 95 1 c 0
 70 1 10 -1 10 -1 c 1
 2 2 l 1
 2 23 l 2
 2 33 10 33 22 33 c 0
 42 33 72 50 89 91 c 2
 312 627 l 2
 322 651 343 658 354 658 c 0
 375 658 391 648 399 627 c 2
 601 91 l 2
 615 54 629 33 654 33 c 2
 682 33 l 2
 697 33 697 31 697 23 c 2
 697 3 l 1
 692 -1 l 1
 692 -1 596 1 558 1 c 0
 522 1 414 -1 414 -1 c 1
 406 4 l 1
 406 23 l 2
 406 31 414 33 432 33 c 2
 459 33 l 2
 476 33 484 44 484 59 c 0
 484 64 484 70 482 73 c 2
 420 241 l 1
 236 241 l 2
 216 241 211 240 205 227 c 2
 148 79 l 2
EndSplineSet
LCarets2: 1 0 
EndChar

StartChar: uni1E01
Encoding: 7681 7681 130
Width: 476
VWidth: 999
Flags: HW
HStem: -216 32<201.025 271.277> -81 31<201.945 270.472> -10 55<110.871 229.853 351 447.215> 406 38<148.426 256.61>
VStem: 36 105<56.7004 159.155> 48 93<295.994 379.736> 151 36<-171.655 -93.2363> 282 108<69.6589 219 257 374.929> 285 37<-172.322 -92.8533>
DStem2: 210 236 225 202 0.96 0.28<-70.2096 64.36>
LayerCount: 2
Fore
SplineSet
236 -81 m 0
 208 -81 187 -105 187 -133 c 0
 187 -159 207 -184 236 -184 c 0
 265 -184 285 -159 285 -133 c 0
 285 -104 263 -81 236 -81 c 0
151 -133 m 0
 151 -87 189 -50 236 -50 c 0
 281 -50 322 -86 322 -133 c 0
 322 -178 283 -216 236 -216 c 0
 190 -216 151 -179 151 -133 c 0
281 48 m 1
 242.5 14.5 198 -10 156 -10 c 0
 69 -10 36 26 36 95 c 0
 36 174 106.9 205.9 210 236 c 2
 282 257 l 1
 282 384 254 406 212 406 c 0
 174 406 141 393 141 371 c 0
 141 351 147 340 147 328 c 0
 147 314 123 290 95 290 c 0
 59 290 48 306 48 332 c 0
 48 392 153 444 226 444 c 0
 308 444 390 415 390 271 c 2
 390 126 l 2
 390 80 391 42 430 42 c 0
 454.2 42 455.2 58 461 58 c 0
 465 58 474 45 474 38 c 0
 474 33 436 -10 381 -10 c 0
 321 -10 295 9.5 283 48 c 1
 281 48 l 1
282 85 m 1
 282 219 l 1
 225 202 l 2
 154.7 181 141 151 141 110 c 0
 141 75 156 45 204 45 c 0
 222 45 257 65 282 85 c 1
EndSplineSet
LCarets2: 1 0 
EndChar

StartChar: uni1E02
Encoding: 7682 7682 131
Width: 620
VWidth: 999
Flags: HW
HStem: 0 33<23 96.4211> 0 40<225.077 375.965> 334 42<221 356.422> 605 42<224.143 359.733> 613 34<24 96.3856> 682 120<248.745 341.255>
VStem: 99 122<45.449 334 376 599.529> 235 120<695.745 788.255> 403 120<424.816 565.405> 450 127<106.58 268.4>
LayerCount: 2
Fore
SplineSet
233 742 m 0
 233 776 261 804 295 804 c 0
 329 804 357 776 357 742 c 0
 357 708 329 680 295 680 c 0
 261 680 233 708 233 742 c 0
221 562 m 2
 221 376 l 1
 277 376 l 2
 348 376 403 409 403 489 c 0
 403 587 337 605 291 605 c 0
 226 605 221 591 221 562 c 2
221 334 m 1
 221 84 l 2
 221 55 227 40 287 40 c 0
 419 40 450 127 450 187 c 0
 450 273 395 334 292 334 c 2
 221 334 l 1
22 21 m 2
 22 28 25 33 40 33 c 2
 69 33 l 2
 92 33 99 42 99 74 c 2
 99 572 l 2
 99 602 93 613 69 613 c 2
 36 613 l 2
 25 613 22 616 22 623 c 2
 22 645 l 1
 24 647 l 1
 24 647 124.7 645 154.7 645 c 0
 184.7 645 234 647 284 647 c 0
 485.8 647 523 560 523 491 c 0
 523 440 481 385 427 361 c 1
 427 359 l 1
 533 331 577 264 577 176 c 0
 577 89 511 0 306 0 c 2
 23 0 l 1
 22 1 l 1
 22 21 l 2
EndSplineSet
LCarets2: 1 0 
EndChar

StartChar: uni1E03
Encoding: 7683 7683 132
Width: 505
VWidth: 999
Flags: HW
HStem: -10 41<188.988 292.544> 393 51<215.683 304.122> 512 120<230.745 323.255> 638 34<6.01603 44> 678 20<158.465 175.5>
VStem: 74 110<40.573 375.172 402 635.227> 217 120<525.745 618.255> 353 115<135.572 330.968>
LayerCount: 2
Fore
SplineSet
215 572 m 0
 215 606 243 634 277 634 c 0
 311 634 339 606 339 572 c 0
 339 538 311 510 277 510 c 0
 243 510 215 538 215 572 c 0
184 56 m 1
 201 37 216 31 234 31 c 0
 313 31 353 109 353 220 c 0
 353 318 310 393 261 393 c 0
 237.5 393 217 383.5 184 362 c 1
 184 56 l 1
74 563 m 2
 74 628 64 636 44 636 c 1
 12 638 l 2
 8.8 638.2 6.3 640 6 643 c 2
 3 672 l 1
 43.5 675 145.9 688 171 698 c 1
 180 698 187 695 187 688 c 2
 187 688 184 648 184 583 c 2
 184 402 l 1
 213 423 248 444 286 444 c 0
 384 444 468 366 468 243 c 0
 468 83 350 -10 239 -10 c 0
 195 -10 158 12 134 40 c 1
 104 -13 l 1
 70 -7 l 1
 73 17 74 36 74 74 c 2
 74 563 l 2
EndSplineSet
LCarets2: 1 0 
EndChar

StartChar: uni1E04
Encoding: 7684 7684 133
Width: 620
VWidth: 999
Flags: HW
HStem: -174 120<235.745 328.255> 0 33<23 96.4211> 0 40<225.077 375.965> 334 42<221 356.422> 605 42<224.143 359.733> 613 34<24 96.3856>
VStem: 99 122<45.449 334 376 599.529> 222 120<-160.255 -67.745> 403 120<424.816 565.405> 450 127<106.58 268.4>
LayerCount: 2
Fore
SplineSet
220 -114 m 0
 220 -80 248 -52 282 -52 c 0
 316 -52 344 -80 344 -114 c 0
 344 -148 316 -176 282 -176 c 0
 248 -176 220 -148 220 -114 c 0
221 562 m 2
 221 376 l 1
 277 376 l 2
 348 376 403 409 403 489 c 0
 403 587 337 605 291 605 c 0
 226 605 221 591 221 562 c 2
221 334 m 1
 221 84 l 2
 221 55 227 40 287 40 c 0
 419 40 450 127 450 187 c 0
 450 273 395 334 292 334 c 2
 221 334 l 1
22 21 m 2
 22 28 25 33 40 33 c 2
 69 33 l 2
 92 33 99 42 99 74 c 2
 99 572 l 2
 99 602 93 613 69 613 c 2
 36 613 l 2
 25 613 22 616 22 623 c 2
 22 645 l 1
 24 647 l 1
 24 647 124.7 645 154.7 645 c 0
 184.7 645 234 647 284 647 c 0
 485.8 647 523 560 523 491 c 0
 523 440 481 385 427 361 c 1
 427 359 l 1
 533 331 577 264 577 176 c 0
 577 89 511 0 306 0 c 2
 23 0 l 1
 22 1 l 1
 22 21 l 2
EndSplineSet
LCarets2: 1 0 
EndChar

StartChar: uni1E05
Encoding: 7685 7685 134
Width: 505
VWidth: 999
Flags: HW
HStem: -174 120<190.745 283.255> -10 41<188.988 292.544> 393 51<215.683 304.122> 638 34<6.01603 44> 678 20<158.465 175.5>
VStem: 74 110<40.573 375.172 402 635.227> 177 120<-160.255 -67.745> 353 115<135.572 330.968>
LayerCount: 2
Fore
SplineSet
175 -114 m 0
 175 -80 203 -52 237 -52 c 0
 271 -52 299 -80 299 -114 c 0
 299 -148 271 -176 237 -176 c 0
 203 -176 175 -148 175 -114 c 0
184 56 m 1
 201 37 216 31 234 31 c 0
 313 31 353 109 353 220 c 0
 353 318 310 393 261 393 c 0
 237.5 393 217 383.5 184 362 c 1
 184 56 l 1
74 563 m 2
 74 628 64 636 44 636 c 1
 12 638 l 2
 8.8 638.2 6.3 640 6 643 c 2
 3 672 l 1
 43.5 675 145.9 688 171 698 c 1
 180 698 187 695 187 688 c 2
 187 688 184 648 184 583 c 2
 184 402 l 1
 213 423 248 444 286 444 c 0
 384 444 468 366 468 243 c 0
 468 83 350 -10 239 -10 c 0
 195 -10 158 12 134 40 c 1
 104 -13 l 1
 70 -7 l 1
 73 17 74 36 74 74 c 2
 74 563 l 2
EndSplineSet
LCarets2: 1 0 
EndChar

StartChar: uni1E06
Encoding: 7686 7686 135
Width: 620
VWidth: 999
Flags: HW
HStem: -106 44<137.058 414.638> 0 33<23 96.4211> 0 40<225.077 375.965> 334 42<221 356.422> 605 42<224.143 359.733> 613 34<24 96.3856>
VStem: 99 122<45.449 334 376 599.529> 136 280<-105.948 -62> 403 120<424.816 565.405> 450 127<106.58 268.4>
LayerCount: 2
Fore
SplineSet
393 -106 m 2
 148 -106 l 2
 140 -106 136 -98 136 -91 c 0
 136 -79 146 -62 158 -62 c 2
 403 -62 l 2
 412 -62 416 -69 416 -76 c 0
 416 -88 406 -106 393 -106 c 2
221 562 m 2
 221 376 l 1
 277 376 l 2
 348 376 403 409 403 489 c 0
 403 587 337 605 291 605 c 0
 226 605 221 591 221 562 c 2
221 334 m 1
 221 84 l 2
 221 55 227 40 287 40 c 0
 419 40 450 127 450 187 c 0
 450 273 395 334 292 334 c 2
 221 334 l 1
22 21 m 2
 22 28 25 33 40 33 c 2
 69 33 l 2
 92 33 99 42 99 74 c 2
 99 572 l 2
 99 602 93 613 69 613 c 2
 36 613 l 2
 25 613 22 616 22 623 c 2
 22 645 l 1
 24 647 l 1
 24 647 124.7 645 154.7 645 c 0
 184.7 645 234 647 284 647 c 0
 485.8 647 523 560 523 491 c 0
 523 440 481 385 427 361 c 1
 427 359 l 1
 533 331 577 264 577 176 c 0
 577 89 511 0 306 0 c 2
 23 0 l 1
 22 1 l 1
 22 21 l 2
EndSplineSet
LCarets2: 1 0 
EndChar

StartChar: uni1E07
Encoding: 7687 7687 136
Width: 505
VWidth: 999
Flags: HW
HStem: -110 44<107.058 384.638> -10 41<188.988 292.544> 393 51<215.683 304.122> 638 34<6.01603 44> 678 20<158.465 175.5>
VStem: 74 110<40.573 375.172 402 635.227> 106 280<-109.948 -66> 353 115<135.572 330.968>
LayerCount: 2
Fore
SplineSet
363 -110 m 2
 118 -110 l 2
 110 -110 106 -102 106 -95 c 0
 106 -83 116 -66 128 -66 c 2
 373 -66 l 2
 382 -66 386 -73 386 -80 c 0
 386 -92 376 -110 363 -110 c 2
184 56 m 1
 201 37 216 31 234 31 c 0
 313 31 353 109 353 220 c 0
 353 318 310 393 261 393 c 0
 237.5 393 217 383.5 184 362 c 1
 184 56 l 1
74 563 m 2
 74 628 64 636 44 636 c 1
 12 638 l 2
 8.8 638.2 6.3 640 6 643 c 2
 3 672 l 1
 43.5 675 145.9 688 171 698 c 1
 180 698 187 695 187 688 c 2
 187 688 184 648 184 583 c 2
 184 402 l 1
 213 423 248 444 286 444 c 0
 384 444 468 366 468 243 c 0
 468 83 350 -10 239 -10 c 0
 195 -10 158 12 134 40 c 1
 104 -13 l 1
 70 -7 l 1
 73 17 74 36 74 74 c 2
 74 563 l 2
EndSplineSet
LCarets2: 1 0 
EndChar

StartChar: uni1E08
Encoding: 7688 7688 137
Width: 666
VWidth: 999
Flags: HW
HStem: -185 25<286.659 383.933> -84 32<356.31 393.165> -10 44<290.062 474.801> 437 21<558.5 612> 617 41<295.135 462.38>
VStem: 34 130<195.747 434.804> 400 53<-150.949 -88.278> 574 38<443.526 484.717>
DStem2: 307 -84 356 -55 0.397156 0.917751<46.0754 95.3334>
LayerCount: 2
Fore
SplineSet
408 819 m 1
 470 767 l 1
 326 709 l 2
 305 700 292 697 283 697 c 0
 274 697 269 702 269 712 c 0
 269 719 271 724 284 733 c 2
 408 819 l 1
348 -87 m 0
 329 -87 319 -88 303 -93 c 1
 297 -87 l 1
 339.5 -8.9 l 1
 132.9 5.5 34 161.6 34 315 c 0
 34 512 187 658 372 658 c 0
 505 658 539 614 590 614 c 1
 594 556 602 500 612 445 c 1
 574 437 l 1
 543 532 500 617 372 617 c 0
 275 617 164 532 164 334 c 0
 164 192 231 34 370 34 c 0
 451 34 524 66 601 153 c 1
 631 129 l 1
 563.9 40.2 479.2 -8.8 375.1 -10 c 1
 358.4 -54 l 1
 366.4 -52 381.4 -52 390.4 -52 c 0
 430.4 -52 463 -72 463 -110 c 0
 463 -163 403.4 -192.5 342.4 -192.5 c 0
 310.4 -192.5 295.4 -186.5 270.4 -175.5 c 1
 282 -149 l 1
 309 -159 320 -163 340 -163 c 0
 370 -163 390 -149 390 -122 c 0
 390 -103 366.9 -87 348 -87 c 0
EndSplineSet
LCarets2: 1 0 
EndChar

StartChar: uni1E09
Encoding: 7689 7689 138
Width: 435
VWidth: 999
Flags: HW
HStem: -179 25<138.659 235.933> -78 32<208.31 245.165> -10 51<217.015 335.943> 402 42<202.671 287.291>
VStem: 37 114<121.53 309.251> 252 53<-144.949 -82.278> 304 107<294.396 387.973>
DStem2: 159 -78 208 -49 0.397156 0.917751<46.0754 95.3334>
LayerCount: 2
Fore
SplineSet
298 674 m 1
 301 675 309 676 314 676 c 0
 344 676 363 662 371 652 c 1
 381 629 l 1
 261 521 l 2
 247 509 233 505 223 505 c 0
 215 505 207 513 207 519 c 0
 207 525 209 534 215 543 c 2
 298 674 l 1
200 -81 m 0
 181 -81 171 -82 155 -87 c 1
 149 -81 l 1
 190.5 -4.7 l 1
 87.7 15.2 37 90.3 37 201 c 0
 37 344 135 444 253 444 c 0
 362 444 411 394 411 340 c 0
 411 309 393 284 361 284 c 0
 329 284 307 304 304 331 c 0
 301 363 287 402 249 402 c 0
 196 402 151 337 151 226 c 0
 151 118 209 41 275 41 c 0
 312 41 343 58 386 106 c 1
 406 87 l 1
 376 26 320 -10 249 -10 c 0
 240.8 -10 232.8 -9.7 225.1 -9.2 c 1
 210.4 -48 l 1
 218.4 -46 233.4 -46 242.4 -46 c 0
 282.4 -46 315 -66 315 -104 c 0
 315 -157 255.4 -186.5 194.4 -186.5 c 0
 162.4 -186.5 147.4 -180.5 122.4 -169.5 c 1
 134 -143 l 1
 161 -153 172 -157 192 -157 c 0
 222 -157 242 -143 242 -116 c 0
 242 -97 218.9 -81 200 -81 c 0
EndSplineSet
LCarets2: 1 0 
EndChar

StartChar: uni1E0A
Encoding: 7690 7690 139
Width: 718
VWidth: 999
Flags: HW
HStem: 0 33<24 92.1445> 0 40<222.92 424.983> 606 40<223.637 384.847> 613 33<24 92.1445> 686 120<261.745 354.255>
VStem: 99 122<44.4801 601.64> 248 120<699.745 792.255> 549 132<185.589 421.599>
LayerCount: 2
Fore
SplineSet
246 746 m 0
 246 780 274 808 308 808 c 0
 342 808 370 780 370 746 c 0
 370 712 342 684 308 684 c 0
 274 684 246 712 246 746 c 0
221 75 m 2
 221 46 230 40 308 40 c 0
 436 40 549 88 549 284 c 0
 549 435 480 606 283 606 c 0
 247 606 221 603 221 571 c 2
 221 75 l 2
24 0 m 1
 22 2 l 1
 22 24 l 2
 22 30 26 33 30 33 c 2
 44 33 l 2
 84 33 99 45 99 77 c 2
 99 569 l 2
 99 601 84 613 44 613 c 2
 30 613 l 2
 26 613 22 616 22 621 c 2
 22 644 l 1
 24 646 l 1
 320 646 l 2
 523 646 681 494 681 309 c 0
 681 63 487 0 338 0 c 2
 24 0 l 1
EndSplineSet
LCarets2: 1 0 
EndChar

StartChar: uni1E0B
Encoding: 7691 7691 140
Width: 527
VWidth: 999
Flags: HW
HStem: -10 50<201.993 305.84> 28 31<462.031 508> 402 42<202.292 301.893> 512 120<146.745 239.255> 638 34<266.016 304> 678 20<418.466 435.5>
VStem: 37 115<105.179 315.346> 133 120<525.745 618.255> 334 110<71.0411 371.307 419 635.227>
LayerCount: 2
Fore
SplineSet
131 572 m 0
 131 606 159 634 193 634 c 0
 227 634 255 606 255 572 c 0
 255 538 227 510 193 510 c 0
 159 510 131 538 131 572 c 0
334 343 m 1
 312 376 286 402 255 402 c 0
 214 402 152 367 152 222 c 0
 152 96 199 40 256 40 c 0
 276 40 298 50 334 84 c 1
 334 343 l 1
444 583 m 2
 444 115 l 2
 444 85 455 64 508 59 c 1
 510 28 l 1
 444 21 401 5 368 -12 c 1
 334 -12 l 1
 336 35 l 1
 298 2 273 -10 231 -10 c 0
 125 -10 37 81 37 205 c 0
 37 276 59 338 105 384 c 1
 146 422 192 444 269 444 c 0
 285 444 320 433 334 419 c 1
 334 563 l 2
 334 628 324 636 304 636 c 1
 272 638 l 2
 268.8 638.2 266.3 640 266 643 c 2
 263 672 l 1
 303.5 675 405.9 688 431 698 c 1
 440 698 447 695 447 688 c 2
 447 688 444 648 444 583 c 2
EndSplineSet
LCarets2: 1 0 
EndChar

StartChar: uni1E0C
Encoding: 7692 7692 141
Width: 718
VWidth: 999
Flags: HW
HStem: -174 120<255.745 348.255> 0 33<24 92.1445> 0 40<222.92 424.983> 606 40<223.637 384.847> 613 33<24 92.1445>
VStem: 99 122<44.4801 601.64> 242 120<-160.255 -67.745> 549 132<185.589 421.599>
LayerCount: 2
Fore
SplineSet
240 -114 m 0
 240 -80 268 -52 302 -52 c 0
 336 -52 364 -80 364 -114 c 0
 364 -148 336 -176 302 -176 c 0
 268 -176 240 -148 240 -114 c 0
221 75 m 2
 221 46 230 40 308 40 c 0
 436 40 549 88 549 284 c 0
 549 435 480 606 283 606 c 0
 247 606 221 603 221 571 c 2
 221 75 l 2
24 0 m 1
 22 2 l 1
 22 24 l 2
 22 30 26 33 30 33 c 2
 44 33 l 2
 84 33 99 45 99 77 c 2
 99 569 l 2
 99 601 84 613 44 613 c 2
 30 613 l 2
 26 613 22 616 22 621 c 2
 22 644 l 1
 24 646 l 1
 320 646 l 2
 523 646 681 494 681 309 c 0
 681 63 487 0 338 0 c 2
 24 0 l 1
EndSplineSet
LCarets2: 1 0 
EndChar

StartChar: uni1E0D
Encoding: 7693 7693 142
Width: 527
VWidth: 999
Flags: HW
HStem: -174 120<200.745 293.255> -10 50<201.993 305.84> 28 31<462.031 508> 402 42<202.292 301.893> 638 34<266.016 304> 678 20<418.466 435.5>
VStem: 37 115<105.179 315.346> 187 120<-160.255 -67.745> 334 110<71.0411 371.307 419 635.227>
LayerCount: 2
Fore
SplineSet
185 -114 m 0
 185 -80 213 -52 247 -52 c 0
 281 -52 309 -80 309 -114 c 0
 309 -148 281 -176 247 -176 c 0
 213 -176 185 -148 185 -114 c 0
334 343 m 1
 312 376 286 402 255 402 c 0
 214 402 152 367 152 222 c 0
 152 96 199 40 256 40 c 0
 276 40 298 50 334 84 c 1
 334 343 l 1
444 583 m 2
 444 115 l 2
 444 85 455 64 508 59 c 1
 510 28 l 1
 444 21 401 5 368 -12 c 1
 334 -12 l 1
 336 35 l 1
 298 2 273 -10 231 -10 c 0
 125 -10 37 81 37 205 c 0
 37 276 59 338 105 384 c 1
 146 422 192 444 269 444 c 0
 285 444 320 433 334 419 c 1
 334 563 l 2
 334 628 324 636 304 636 c 1
 272 638 l 2
 268.8 638.2 266.3 640 266 643 c 2
 263 672 l 1
 303.5 675 405.9 688 431 698 c 1
 440 698 447 695 447 688 c 2
 447 688 444 648 444 583 c 2
EndSplineSet
LCarets2: 1 0 
EndChar

StartChar: uni1E0E
Encoding: 7694 7694 143
Width: 718
VWidth: 999
Flags: HW
HStem: -105 44<144.058 421.638> 0 33<24 92.1445> 0 40<222.92 424.983> 606 40<223.637 384.847> 613 33<24 92.1445>
VStem: 99 122<44.4801 601.64> 143 280<-104.948 -61> 549 132<185.589 421.599>
LayerCount: 2
Fore
SplineSet
400 -105 m 2
 155 -105 l 2
 147 -105 143 -97 143 -90 c 0
 143 -78 153 -61 165 -61 c 2
 410 -61 l 2
 419 -61 423 -68 423 -75 c 0
 423 -87 413 -105 400 -105 c 2
221 75 m 2
 221 46 230 40 308 40 c 0
 436 40 549 88 549 284 c 0
 549 435 480 606 283 606 c 0
 247 606 221 603 221 571 c 2
 221 75 l 2
24 0 m 1
 22 2 l 1
 22 24 l 2
 22 30 26 33 30 33 c 2
 44 33 l 2
 84 33 99 45 99 77 c 2
 99 569 l 2
 99 601 84 613 44 613 c 2
 30 613 l 2
 26 613 22 616 22 621 c 2
 22 644 l 1
 24 646 l 1
 320 646 l 2
 523 646 681 494 681 309 c 0
 681 63 487 0 338 0 c 2
 24 0 l 1
EndSplineSet
LCarets2: 1 0 
EndChar

StartChar: uni1E0F
Encoding: 7695 7695 144
Width: 527
VWidth: 999
Flags: HW
HStem: -109 44<95.0576 372.638> -10 50<201.993 305.84> 28 31<462.031 508> 402 42<202.292 301.893> 638 34<266.016 304> 678 20<418.466 435.5>
VStem: 37 115<105.179 315.346> 94 280<-108.948 -65> 334 110<71.0411 371.307 419 635.227>
LayerCount: 2
Fore
SplineSet
351 -109 m 2
 106 -109 l 2
 98 -109 94 -101 94 -94 c 0
 94 -82 104 -65 116 -65 c 2
 361 -65 l 2
 370 -65 374 -72 374 -79 c 0
 374 -91 364 -109 351 -109 c 2
334 343 m 1
 312 376 286 402 255 402 c 0
 214 402 152 367 152 222 c 0
 152 96 199 40 256 40 c 0
 276 40 298 50 334 84 c 1
 334 343 l 1
444 583 m 2
 444 115 l 2
 444 85 455 64 508 59 c 1
 510 28 l 1
 444 21 401 5 368 -12 c 1
 334 -12 l 1
 336 35 l 1
 298 2 273 -10 231 -10 c 0
 125 -10 37 81 37 205 c 0
 37 276 59 338 105 384 c 1
 146 422 192 444 269 444 c 0
 285 444 320 433 334 419 c 1
 334 563 l 2
 334 628 324 636 304 636 c 1
 272 638 l 2
 268.8 638.2 266.3 640 266 643 c 2
 263 672 l 1
 303.5 675 405.9 688 431 698 c 1
 440 698 447 695 447 688 c 2
 447 688 444 648 444 583 c 2
EndSplineSet
LCarets2: 1 0 
EndChar

StartChar: uni1E10
Encoding: 7696 7696 145
Width: 718
VWidth: 999
Flags: HW
HStem: -181 25<103.659 200.933> -80 32<173.31 210.165> 0 33<24 92.1445> 0 40<222.92 424.983> 606 40<223.637 384.847> 613 33<24 92.1445>
VStem: 99 122<44.4801 601.64> 217 53<-146.949 -84.278> 549 132<185.589 421.599>
DStem2: 124 -80 173 -51 0.397156 0.917751<46.0754 95.3334>
LayerCount: 2
Fore
SplineSet
165 -83 m 0
 146 -83 136 -84 120 -89 c 1
 114 -83 l 1
 159.2 0 l 1
 24 0 l 1
 22 2 l 1
 22 24 l 2
 22 30 26 33 30 33 c 2
 44 33 l 2
 84 33 99 45 99 77 c 2
 99 569 l 2
 99 601 84 613 44 613 c 2
 30 613 l 2
 26 613 22 616 22 621 c 2
 22 644 l 1
 24 646 l 1
 320 646 l 2
 523 646 681 494 681 309 c 0
 681 63 487 0 338 0 c 2
 194.3 0 l 1
 175.4 -50 l 1
 183.4 -48 198.4 -48 207.4 -48 c 0
 247.4 -48 280 -68 280 -106 c 0
 280 -159 220.4 -188.5 159.4 -188.5 c 0
 127.4 -188.5 112.4 -182.5 87.4 -171.5 c 1
 99 -145 l 1
 126 -155 137 -159 157 -159 c 0
 187 -159 207 -145 207 -118 c 0
 207 -99 183.9 -83 165 -83 c 0
221 75 m 2
 221 46 230 40 308 40 c 0
 436 40 549 88 549 284 c 0
 549 435 480 606 283 606 c 0
 247 606 221 603 221 571 c 2
 221 75 l 2
EndSplineSet
LCarets2: 1 0 
EndChar

StartChar: uni1E11
Encoding: 7697 7697 146
Width: 527
VWidth: 999
Flags: HW
HStem: -177 25<149.659 246.933> -76 32<219.31 256.165> -10 50<201.993 305.84> 28 31<462.031 508> 402 42<202.292 301.893> 638 34<266.016 304> 678 20<418.466 435.5>
VStem: 37 115<105.179 315.346> 263 53<-142.949 -80.278> 334 110<71.0411 371.307 419 635.227>
DStem2: 170 -76 219 -47 0.397156 0.917751<46.0754 95.3334>
LayerCount: 2
Fore
SplineSet
211 -79 m 0
 192 -79 182 -80 166 -85 c 1
 160 -79 l 1
 199.1 -7.2 l 1
 107.9 9 37 93.7 37 205 c 0
 37 276 59 338 105 384 c 1
 146 422 192 444 269 444 c 0
 285 444 320 433 334 419 c 1
 334 563 l 2
 334 628 324 636 304 636 c 1
 272 638 l 2
 268.8 638.2 266.3 640 266 643 c 2
 263 672 l 1
 303.5 675 405.9 688 431 698 c 1
 440 698 447 695 447 688 c 2
 447 688 444 648 444 583 c 2
 444 115 l 2
 444 85 455 64 508 59 c 1
 510 28 l 1
 444 21 401 5 368 -12 c 1
 334 -12 l 1
 336 35 l 1
 299.2 3.1 274.7 -9.2 235.1 -10 c 1
 221.4 -46 l 1
 229.4 -44 244.4 -44 253.4 -44 c 0
 293.4 -44 326 -64 326 -102 c 0
 326 -155 266.4 -184.5 205.4 -184.5 c 0
 173.4 -184.5 158.4 -178.5 133.4 -167.5 c 1
 145 -141 l 1
 172 -151 183 -155 203 -155 c 0
 233 -155 253 -141 253 -114 c 0
 253 -95 229.9 -79 211 -79 c 0
334 343 m 1
 312 376 286 402 255 402 c 0
 214 402 152 367 152 222 c 0
 152 96 199 40 256 40 c 0
 276 40 298 50 334 84 c 1
 334 343 l 1
EndSplineSet
LCarets2: 1 0 
EndChar

StartChar: uni1E12
Encoding: 7698 7698 147
Width: 718
VWidth: 999
Flags: HW
HStem: 0 33<24 92.1445> 0 40<222.92 424.983> 606 40<223.637 384.847> 613 33<24 92.1445>
VStem: 99 122<44.4801 601.64> 549 132<185.589 421.599>
LayerCount: 2
Fore
SplineSet
305 -54 m 1
 335 -103 373 -147 410 -188 c 1
 385 -207 l 1
 342 -181 313 -161 278 -124 c 1
 240 -163 212 -181 172 -207 c 1
 147 -188 l 1
 183 -147 223 -102 253 -54 c 1
 305 -54 l 1
221 75 m 2
 221 46 230 40 308 40 c 0
 436 40 549 88 549 284 c 0
 549 435 480 606 283 606 c 0
 247 606 221 603 221 571 c 2
 221 75 l 2
24 0 m 1
 22 2 l 1
 22 24 l 2
 22 30 26 33 30 33 c 2
 44 33 l 2
 84 33 99 45 99 77 c 2
 99 569 l 2
 99 601 84 613 44 613 c 2
 30 613 l 2
 26 613 22 616 22 621 c 2
 22 644 l 1
 24 646 l 1
 320 646 l 2
 523 646 681 494 681 309 c 0
 681 63 487 0 338 0 c 2
 24 0 l 1
EndSplineSet
LCarets2: 1 0 
EndChar

StartChar: uni1E13
Encoding: 7699 7699 148
Width: 527
VWidth: 999
Flags: HW
HStem: -10 50<201.993 305.84> 28 31<462.031 508> 402 42<202.292 301.893> 638 34<266.016 304> 678 20<418.466 435.5>
VStem: 37 115<105.179 315.346> 334 110<71.0411 371.307 419 635.227>
LayerCount: 2
Fore
SplineSet
254 -54 m 1
 284 -103 322 -147 359 -188 c 1
 334 -207 l 1
 291 -181 262 -161 227 -124 c 1
 189 -163 161 -181 121 -207 c 1
 96 -188 l 1
 132 -147 172 -102 202 -54 c 1
 254 -54 l 1
334 343 m 1
 312 376 286 402 255 402 c 0
 214 402 152 367 152 222 c 0
 152 96 199 40 256 40 c 0
 276 40 298 50 334 84 c 1
 334 343 l 1
444 583 m 2
 444 115 l 2
 444 85 455 64 508 59 c 1
 510 28 l 1
 444 21 401 5 368 -12 c 1
 334 -12 l 1
 336 35 l 1
 298 2 273 -10 231 -10 c 0
 125 -10 37 81 37 205 c 0
 37 276 59 338 105 384 c 1
 146 422 192 444 269 444 c 0
 285 444 320 433 334 419 c 1
 334 563 l 2
 334 628 324 636 304 636 c 1
 272 638 l 2
 268.8 638.2 266.3 640 266 643 c 2
 263 672 l 1
 303.5 675 405.9 688 431 698 c 1
 440 698 447 695 447 688 c 2
 447 688 444 648 444 583 c 2
EndSplineSet
LCarets2: 1 0 
EndChar

StartChar: uni1E14
Encoding: 7700 7700 149
Width: 562
VWidth: 999
Flags: HW
HStem: 0 33<27 94.1445> 0 46<224.232 442.935> 323 42<224 361.625> 427 20<383 415> 600 46<224.232 421.482> 613 33<27 94.1445> 731 48<165.823 464.922>
VStem: 101 123<46.578 323 365 599.422> 164 303<731.402 778.772> 372 36<251.814 315.565 372.621 436.233> 474 40<482.425 531.807> 499 43<118.211 170.628>
LayerCount: 2
Fore
SplineSet
447 730 m 2
 173 730 l 2
 162 730 158 739 158 748 c 0
 158 760 170 780 183 780 c 2
 459 780 l 2
 469 780 473 771 473 763 c 0
 473 750 461 730 447 730 c 2
27 0 m 1
 24 2 l 1
 24 24 l 2
 24 30 28 33 32 33 c 2
 46 33 l 2
 86 33 101 45 101 77 c 2
 101 569 l 2
 101 601 86 613 46 613 c 2
 32 613 l 2
 28 613 24 616 24 621 c 2
 24 644 l 1
 27 646 l 1
 493 646 l 1
 497 588 504 535 514 484 c 1
 474 475 l 1
 460 526 435 600 368 600 c 2
 238 600 l 2
 229 600 224 592 224 571 c 2
 224 365 l 1
 337 365 l 2
 362 365 366 396 372 436 c 0
 372 440 378 447 388 447 c 2
 409 447 l 1
 415 437 l 1
 413 421 408 381 408 344 c 0
 408 308 413 268 415 251 c 1
 409 242 l 1
 388 242 l 2
 378 242 372 248 372 252 c 0
 366 293 362 323 337 323 c 2
 224 323 l 1
 224 75 l 2
 224 52 229 46 238 46 c 2
 391 46 l 2
 446 46 482 105 499 179 c 1
 542 169 l 1
 532 116 522 54 515 0 c 1
 27 0 l 1
20.9 831.1 m 1
 114.1 757.2 l 2
 122.6 750.2 125.6 744.9 125.6 738.7 c 0
 125.6 729.9 121.8 725.5 114.1 725.5 c 0
 107.9 725.5 97.9 728.1 81 736 c 2
 -37.6 791.5 l 1
 20.9 831.1 l 1
EndSplineSet
LCarets2: 1 0 
EndChar

StartChar: uni1E15
Encoding: 7701 7701 150
Width: 461
VWidth: 999
Flags: HW
HStem: -10 56<218.732 346.305> 245 40<154 316> 402 42<199.114 288.493> 536 48<92.8231 391.922>
VStem: 34 115<124.669 245 285 306.603> 91 303<536.402 583.772> 316 115<259 363.973>
LayerCount: 2
Fore
SplineSet
228.2 767.9 m 1
 283.4 656.3 l 2
 286.6 650 290.6 640.1 290.6 632.9 c 0
 290.6 624.8 284.2 618.5 277 618.5 c 0
 270.6 618.5 262.6 623 249 636.5 c 2
 152.2 731 l 1
 153.8 740.9 l 1
 160.2 749 183.4 769.7 212.2 769.7 c 0
 216.2 769.7 225 768.8 228.2 767.9 c 1
374 535 m 2
 100 535 l 2
 89 535 85 544 85 553 c 0
 85 565 97 585 110 585 c 2
 386 585 l 2
 396 585 400 576 400 568 c 0
 400 555 388 535 374 535 c 2
154 285 m 1
 314 285 l 1
 316 287 316 290 316 296 c 0
 316 376 275 402 248 402 c 0
 227 402 168 387 154 285 c 1
397 109 m 1
 422 88 l 1
 385 13 315 -10 246 -10 c 0
 94 -10 34 88 34 198 c 0
 34 351 144 444 249 444 c 0
 396 444 431 351 431 266 c 0
 431 252 416 245 392 245 c 2
 149 245 l 1
 149 240 149 226 149 219 c 0
 149 121 207 46 285 46 c 0
 323 46 360 64 397 109 c 1
EndSplineSet
LCarets2: 1 0 
EndChar

StartChar: uni1E16
Encoding: 7702 7702 151
Width: 562
VWidth: 999
Flags: HW
HStem: 0 33<27 94.1445> 0 46<224.232 442.935> 323 42<224 361.625> 427 20<383 415> 600 46<224.232 421.482> 613 33<27 94.1445> 731 48<108.823 407.922>
VStem: 101 123<46.578 323 365 599.422> 107 303<731.402 778.772> 372 36<251.814 315.565 372.621 436.233> 474 40<482.425 531.807> 499 43<118.211 170.628>
LayerCount: 2
Fore
SplineSet
390 730 m 2
 116 730 l 2
 105 730 101 739 101 748 c 0
 101 760 113 780 126 780 c 2
 402 780 l 2
 412 780 416 771 416 763 c 0
 416 750 404 730 390 730 c 2
27 0 m 1
 24 2 l 1
 24 24 l 2
 24 30 28 33 32 33 c 2
 46 33 l 2
 86 33 101 45 101 77 c 2
 101 569 l 2
 101 601 86 613 46 613 c 2
 32 613 l 2
 28 613 24 616 24 621 c 2
 24 644 l 1
 27 646 l 1
 493 646 l 1
 497 588 504 535 514 484 c 1
 474 475 l 1
 460 526 435 600 368 600 c 2
 238 600 l 2
 229 600 224 592 224 571 c 2
 224 365 l 1
 337 365 l 2
 362 365 366 396 372 436 c 0
 372 440 378 447 388 447 c 2
 409 447 l 1
 415 437 l 1
 413 421 408 381 408 344 c 0
 408 308 413 268 415 251 c 1
 409 242 l 1
 388 242 l 2
 378 242 372 248 372 252 c 0
 366 293 362 323 337 323 c 2
 224 323 l 1
 224 75 l 2
 224 52 229 46 238 46 c 2
 391 46 l 2
 446 46 482 105 499 179 c 1
 542 169 l 1
 532 116 522 54 515 0 c 1
 27 0 l 1
535.1 831.8 m 1
 582.8 786.1 l 1
 472 735 l 2
 455.8 727.1 445.8 724.5 438.9 724.5 c 0
 432 724.5 428.1 728.9 428.1 737.7 c 0
 428.1 743.9 429.6 748.3 439.6 756.2 c 2
 535.1 831.8 l 1
EndSplineSet
LCarets2: 1 0 
EndChar

StartChar: uni1E17
Encoding: 7703 7703 152
Width: 461
VWidth: 999
Flags: HW
HStem: -10 56<218.732 346.305> 245 40<154 316> 402 42<199.114 288.493> 536 48<92.8231 391.922>
VStem: 34 115<124.669 245 285 306.603> 91 303<536.402 583.772> 316 115<259 363.973>
LayerCount: 2
Fore
SplineSet
274 761.9 m 1
 276.4 762.8 282.8 763.7 286.8 763.7 c 0
 310.8 763.7 326 751.1 332.4 742.1 c 1
 340.4 721.4 l 1
 244.4 624.2 l 2
 233.2 613.4 222 609.8 214 609.8 c 0
 207.6 609.8 201.2 617 201.2 622.4 c 0
 201.2 627.8 202.8 635.9 207.6 644 c 2
 274 761.9 l 1
374 535 m 2
 100 535 l 2
 89 535 85 544 85 553 c 0
 85 565 97 585 110 585 c 2
 386 585 l 2
 396 585 400 576 400 568 c 0
 400 555 388 535 374 535 c 2
154 285 m 1
 314 285 l 1
 316 287 316 290 316 296 c 0
 316 376 275 402 248 402 c 0
 227 402 168 387 154 285 c 1
397 109 m 1
 422 88 l 1
 385 13 315 -10 246 -10 c 0
 94 -10 34 88 34 198 c 0
 34 351 144 444 249 444 c 0
 396 444 431 351 431 266 c 0
 431 252 416 245 392 245 c 2
 149 245 l 1
 149 240 149 226 149 219 c 0
 149 121 207 46 285 46 c 0
 323 46 360 64 397 109 c 1
EndSplineSet
LCarets2: 1 0 
EndChar

StartChar: uni1E18
Encoding: 7704 7704 153
Width: 562
VWidth: 999
Flags: HW
HStem: 0 33<27 94.1445> 0 46<224.232 442.935> 323 42<224 361.625> 427 20<383 415> 600 46<224.232 421.482> 613 33<27 94.1445>
VStem: 101 123<46.578 323 365 599.422> 372 36<251.814 315.565 372.621 436.233> 474 40<482.425 531.807> 499 43<118.211 170.628>
LayerCount: 2
Fore
SplineSet
313 -54 m 1
 343 -103 381 -147 418 -188 c 1
 393 -207 l 1
 350 -181 321 -161 286 -124 c 1
 248 -163 220 -181 180 -207 c 1
 155 -188 l 1
 191 -147 231 -102 261 -54 c 1
 313 -54 l 1
27 0 m 1
 24 2 l 1
 24 24 l 2
 24 30 28 33 32 33 c 2
 46 33 l 2
 86 33 101 45 101 77 c 2
 101 569 l 2
 101 601 86 613 46 613 c 2
 32 613 l 2
 28 613 24 616 24 621 c 2
 24 644 l 1
 27 646 l 1
 493 646 l 1
 497 588 504 535 514 484 c 1
 474 475 l 1
 460 526 435 600 368 600 c 2
 238 600 l 2
 229 600 224 592 224 571 c 2
 224 365 l 1
 337 365 l 2
 362 365 366 396 372 436 c 0
 372 440 378 447 388 447 c 2
 409 447 l 1
 415 437 l 1
 413 421 408 381 408 344 c 0
 408 308 413 268 415 251 c 1
 409 242 l 1
 388 242 l 2
 378 242 372 248 372 252 c 0
 366 293 362 323 337 323 c 2
 224 323 l 1
 224 75 l 2
 224 52 229 46 238 46 c 2
 391 46 l 2
 446 46 482 105 499 179 c 1
 542 169 l 1
 532 116 522 54 515 0 c 1
 27 0 l 1
EndSplineSet
LCarets2: 1 0 
EndChar

StartChar: uni1E19
Encoding: 7705 7705 154
Width: 461
VWidth: 999
Flags: HW
HStem: -10 56<218.732 346.305> 245 40<154 316> 402 42<199.114 288.493>
VStem: 34 115<124.669 245 285 306.603> 316 115<259 363.973>
LayerCount: 2
Fore
SplineSet
260 -54 m 1
 290 -103 328 -147 365 -188 c 1
 340 -207 l 1
 297 -181 268 -161 233 -124 c 1
 195 -163 167 -181 127 -207 c 1
 102 -188 l 1
 138 -147 178 -102 208 -54 c 1
 260 -54 l 1
154 285 m 1
 314 285 l 1
 316 287 316 290 316 296 c 0
 316 376 275 402 248 402 c 0
 227 402 168 387 154 285 c 1
397 109 m 1
 422 88 l 1
 385 13 315 -10 246 -10 c 0
 94 -10 34 88 34 198 c 0
 34 351 144 444 249 444 c 0
 396 444 431 351 431 266 c 0
 431 252 416 245 392 245 c 2
 149 245 l 1
 149 240 149 226 149 219 c 0
 149 121 207 46 285 46 c 0
 323 46 360 64 397 109 c 1
EndSplineSet
LCarets2: 1 0 
EndChar

StartChar: uni1E1A
Encoding: 7706 7706 155
Width: 562
VWidth: 999
Flags: HW
HStem: -174 58<299 382.543> -120 59<180.743 267.285> 0 33<27 94.1445> 0 46<224.232 442.935> 323 42<224 361.625> 427 20<383 415> 600 46<224.232 421.482> 613 33<27 94.1445>
VStem: 101 123<46.578 323 365 599.422> 145 25<-165.24 -139.955> 372 36<251.814 315.565 372.621 436.233> 396 26<-93.131 -67.308> 474 40<482.425 531.807> 499 43<118.211 170.628>
LayerCount: 2
Fore
SplineSet
351 -116 m 0
 373 -116 386 -107 400 -58 c 1
 428 -68 l 1
 415 -136 385 -176 337 -176 c 0
 314 -176 292 -161 272 -146 c 1
 252 -133 232 -120 214 -120 c 0
 187 -120 176 -135 165 -173 c 1
 139 -165 l 1
 153 -97 177 -59 222 -59 c 0
 253 -59 276 -75 296 -91 c 0
 314 -105 331 -116 351 -116 c 0
27 0 m 1
 24 2 l 1
 24 24 l 2
 24 30 28 33 32 33 c 2
 46 33 l 2
 86 33 101 45 101 77 c 2
 101 569 l 2
 101 601 86 613 46 613 c 2
 32 613 l 2
 28 613 24 616 24 621 c 2
 24 644 l 1
 27 646 l 1
 493 646 l 1
 497 588 504 535 514 484 c 1
 474 475 l 1
 460 526 435 600 368 600 c 2
 238 600 l 2
 229 600 224 592 224 571 c 2
 224 365 l 1
 337 365 l 2
 362 365 366 396 372 436 c 0
 372 440 378 447 388 447 c 2
 409 447 l 1
 415 437 l 1
 413 421 408 381 408 344 c 0
 408 308 413 268 415 251 c 1
 409 242 l 1
 388 242 l 2
 378 242 372 248 372 252 c 0
 366 293 362 323 337 323 c 2
 224 323 l 1
 224 75 l 2
 224 52 229 46 238 46 c 2
 391 46 l 2
 446 46 482 105 499 179 c 1
 542 169 l 1
 532 116 522 54 515 0 c 1
 27 0 l 1
EndSplineSet
LCarets2: 1 0 
EndChar

StartChar: uni1E1B
Encoding: 7707 7707 156
Width: 461
VWidth: 999
Flags: HW
HStem: -172 58<251 334.543> -118 59<132.743 219.285> -10 56<218.732 346.305> 245 40<154 316> 402 42<199.114 288.493>
VStem: 34 115<124.669 245 285 306.603> 97 25<-163.24 -137.955> 316 115<259 363.973> 348 26<-91.131 -65.308>
LayerCount: 2
Fore
SplineSet
303 -114 m 0
 325 -114 338 -105 352 -56 c 1
 380 -66 l 1
 367 -134 337 -174 289 -174 c 0
 266 -174 244 -159 224 -144 c 1
 204 -131 184 -118 166 -118 c 0
 139 -118 128 -133 117 -171 c 1
 91 -163 l 1
 105 -95 129 -57 174 -57 c 0
 205 -57 228 -73 248 -89 c 0
 266 -103 283 -114 303 -114 c 0
154 285 m 1
 314 285 l 1
 316 287 316 290 316 296 c 0
 316 376 275 402 248 402 c 0
 227 402 168 387 154 285 c 1
397 109 m 1
 422 88 l 1
 385 13 315 -10 246 -10 c 0
 94 -10 34 88 34 198 c 0
 34 351 144 444 249 444 c 0
 396 444 431 351 431 266 c 0
 431 252 416 245 392 245 c 2
 149 245 l 1
 149 240 149 226 149 219 c 0
 149 121 207 46 285 46 c 0
 323 46 360 64 397 109 c 1
EndSplineSet
LCarets2: 1 0 
EndChar

StartChar: uni1E1C
Encoding: 7708 7708 157
Width: 562
VWidth: 999
Flags: HW
HStem: -181 25<194.659 291.933> -80 32<264.31 301.165> 0 33<27 94.1445> 0 46<224.232 442.935> 323 42<224 361.625> 427 20<383 415> 600 46<224.232 421.482> 613 33<27 94.1445> 692 52<220.738 378.296> 785 20<164 196 404.5 435>
VStem: 101 123<46.578 323 365 599.422> 164 28<780.047 805> 308 53<-146.949 -84.278> 372 36<251.814 315.565 372.621 436.233> 408 27<779.76 805> 474 40<482.425 531.807> 499 43<118.211 170.628>
DStem2: 215 -80 264 -51 0.397156 0.917751<46.0754 95.3334>
LayerCount: 2
Fore
SplineSet
435 805 m 1
 429 734 366 692 300 692 c 0
 227 692 169 735 164 805 c 1
 192 805 l 1
 200 766 247 744 300 744 c 0
 349 744 401 766 408 805 c 1
 435 805 l 1
256 -83 m 0
 237 -83 227 -84 211 -89 c 1
 205 -83 l 1
 250.2 0 l 1
 27 0 l 1
 24 2 l 1
 24 24 l 2
 24 30 28 33 32 33 c 2
 46 33 l 2
 86 33 101 45 101 77 c 2
 101 569 l 2
 101 601 86 613 46 613 c 2
 32 613 l 2
 28 613 24 616 24 621 c 2
 24 644 l 1
 27 646 l 1
 493 646 l 1
 497 588 504 535 514 484 c 1
 474 475 l 1
 460 526 435 600 368 600 c 2
 238 600 l 2
 229 600 224 592 224 571 c 2
 224 365 l 1
 337 365 l 2
 362 365 366 396 372 436 c 0
 372 440 378 447 388 447 c 2
 409 447 l 1
 415 437 l 1
 413 421 408 381 408 344 c 0
 408 308 413 268 415 251 c 1
 409 242 l 1
 388 242 l 2
 378 242 372 248 372 252 c 0
 366 293 362 323 337 323 c 2
 224 323 l 1
 224 75 l 2
 224 52 229 46 238 46 c 2
 391 46 l 2
 446 46 482 105 499 179 c 1
 542 169 l 1
 532 116 522 54 515 0 c 1
 285.3 0 l 1
 266.4 -50 l 1
 274.4 -48 289.4 -48 298.4 -48 c 0
 338.4 -48 371 -68 371 -106 c 0
 371 -159 311.4 -188.5 250.4 -188.5 c 0
 218.4 -188.5 203.4 -182.5 178.4 -171.5 c 1
 190 -145 l 1
 217 -155 228 -159 248 -159 c 0
 278 -159 298 -145 298 -118 c 0
 298 -99 274.9 -83 256 -83 c 0
EndSplineSet
LCarets2: 1 0 
EndChar

StartChar: uni1E1D
Encoding: 7709 7709 158
Width: 461
VWidth: 999
Flags: HW
HStem: -186 25<148.659 245.933> -85 32<218.31 255.165> -10 56<218.732 346.305> 245 40<154 316> 402 42<199.114 288.493> 498 62<164.853 299.87>
VStem: 34 115<124.669 245 285 306.603> 97 32<604.278 639.062> 262 53<-151.949 -89.278> 316 115<259 363.973> 336 31<605.121 639.161>
DStem2: 169 -85 218 -56 0.397156 0.917751<46.0754 95.3334>
LayerCount: 2
Fore
SplineSet
125 653 m 1
 127 599 170 559 233 559 c 0
 280 559 337 589 340 653 c 1
 372 638 l 1
 362 533 284 495 233 495 c 0
 152 495 99 557 92 638 c 1
 125 653 l 1
210 -88 m 0
 191 -88 181 -89 165 -94 c 1
 159 -88 l 1
 203 -7.1 l 1
 82.5 9.8 34 99 34 198 c 0
 34 351 144 444 249 444 c 0
 396 444 431 351 431 266 c 0
 431 252 416 245 392 245 c 2
 149 245 l 1
 149 240 149 226 149 219 c 0
 149 121 207 46 285 46 c 0
 323 46 360 64 397 109 c 1
 422 88 l 1
 385 13 315 -10 246 -10 c 0
 243.1 -10 240.3 -10 237.5 -9.9 c 1
 220.4 -55 l 1
 228.4 -53 243.4 -53 252.4 -53 c 0
 292.4 -53 325 -73 325 -111 c 0
 325 -164 265.4 -193.5 204.4 -193.5 c 0
 172.4 -193.5 157.4 -187.5 132.4 -176.5 c 1
 144 -150 l 1
 171 -160 182 -164 202 -164 c 0
 232 -164 252 -150 252 -123 c 0
 252 -104 228.9 -88 210 -88 c 0
154 285 m 1
 314 285 l 1
 316 287 316 290 316 296 c 0
 316 376 275 402 248 402 c 0
 227 402 168 387 154 285 c 1
EndSplineSet
LCarets2: 1 0 
EndChar

StartChar: uni1E1E
Encoding: 7710 7710 159
Width: 513
VWidth: 999
Flags: HW
HStem: -2 34<26 94.7241 230.184 298> 323 42<223 360.625> 427 20<382 414> 600 46<223.232 420.482> 613 33<27 94.1445> 693 120<250.745 343.255>
VStem: 101 122<37.5094 323 365 599.422> 237 120<706.745 799.255> 371 36<251.813 315.565 372.621 436.232> 473 40<482.425 531.807>
LayerCount: 2
Fore
SplineSet
235 753 m 0
 235 787 263 815 297 815 c 0
 331 815 359 787 359 753 c 0
 359 719 331 691 297 691 c 0
 263 691 235 719 235 753 c 0
223 76 m 2
 223 48 237 32 278 32 c 2
 292 32 l 2
 297 32 300 29 300 23 c 2
 300 0 l 1
 298 -2 l 1
 298 -2 198 0 162 0 c 0
 123 0 26 -2 26 -2 c 1
 24 0 l 1
 24 23 l 2
 24 29 28 32 32 32 c 2
 46 32 l 2
 86 32 101 44 101 76 c 2
 101 569 l 2
 101 601 86 613 46 613 c 2
 32 613 l 2
 28 613 24 616 24 621 c 2
 24 644 l 1
 27 646 l 1
 492 646 l 1
 496 588 503 535 513 484 c 1
 473 475 l 1
 459 526 434 600 367 600 c 2
 237 600 l 2
 228 600 223 592 223 571 c 2
 223 365 l 1
 336 365 l 2
 361 365 365 396 371 436 c 0
 371 440 377 447 387 447 c 2
 408 447 l 1
 414 437 l 1
 412 421 407 380.4 407 344 c 0
 407 307.6 412 268 414 251 c 1
 408 242 l 1
 387 242 l 2
 377 242 371 248 371 252 c 0
 365 293 361 323 336 323 c 2
 223 323 l 1
 223 76 l 2
EndSplineSet
LCarets2: 1 0 
EndChar

StartChar: uni1E1F
Encoding: 7711 7711 160
Width: 336
VWidth: 999
Flags: HW
HStem: -2 34<31 51 263 287> 387 47<26.0674 99 209 325> 656 42<236.761 302.441> 725 120<219.745 312.255>
VStem: 99 110<43.1437 387 434 564.894> 206 120<738.745 831.255>
LayerCount: 2
Fore
SplineSet
204 785 m 0
 204 819 232 847 266 847 c 0
 300 847 328 819 328 785 c 0
 328 751 300 723 266 723 c 0
 232 723 204 751 204 785 c 0
99 75 m 2
 99 387 l 1
 53 387 l 2
 30 387 26 390 26 397 c 2
 26 411 l 2
 26 419 36 434 70 434 c 2
 99 434 l 1
 99 444 l 2
 99 609 192 698 286 698 c 0
 392 698 425 641 425 624 c 0
 425 599 408 574 379 574 c 0
 348 574 331 591 318 614 c 0
 301 646 284 656 267 656 c 0
 245 656 209 634 209 485 c 2
 209 434 l 1
 305 434 l 2
 324 434 325 430 325 424 c 2
 325 404 l 2
 325 392 308 387 290 387 c 2
 209 387 l 1
 209 78 l 2
 209 50 231.8 37.5 263 34 c 2
 281 32 l 2
 285 31 289 29 289 23 c 2
 289 0 l 1
 287 -2 l 1
 287 -2 191 0 152 0 c 0
 116 0 31 -2 31 -2 c 1
 29 0 l 1
 29 23 l 2
 29 29 32 31 37 32 c 2
 51 34 l 2
 84 39 99 47 99 75 c 2
EndSplineSet
LCarets2: 1 0 
EndChar

StartChar: uni1E20
Encoding: 7712 7712 161
Width: 727
VWidth: 999
Flags: HW
HStem: -10 44<306.541 502.262> 272 34<440 520.715 652.798 706> 437 21<571 624> 617 41<300.747 473.546> 731 48<228.823 527.922>
VStem: 29 130<202 430.82> 227 303<731.402 778.772> 532 117<85.3282 262.125> 585 39<443.564 488.517>
LayerCount: 2
Fore
SplineSet
510 730 m 2
 236 730 l 2
 225 730 221 739 221 748 c 0
 221 760 233 780 246 780 c 2
 522 780 l 2
 532 780 536 771 536 763 c 0
 536 750 524 730 510 730 c 2
649 229 m 2
 649 114 l 2
 649 99 653 92 661 85 c 1
 591 26 512 -10 386 -10 c 0
 173 -10 29 134 29 308 c 0
 29 528 205 658 383 658 c 0
 518 658 551 614 602 614 c 1
 605 556 614 500 624 445 c 1
 585 437 l 1
 557 531 509 617 382 617 c 0
 261 617 159 498 159 327 c 0
 159 176 243 34 404 34 c 0
 447 34 498 46 532 74 c 1
 532 229 l 2
 532 260 500 272 460 272 c 2
 446 272 l 2
 442 272 438 275 438 281 c 2
 438 304 l 1
 440 306 l 1
 440 306 537 304 576 304 c 0
 612 304 706 306 706 306 c 1
 708 304 l 1
 708 281 l 2
 708 275 705 272 700 272 c 2
 694 272 l 2
 653 272 649 256 649 229 c 2
EndSplineSet
LCarets2: 1 0 
EndChar

StartChar: uni1E21
Encoding: 7713 7713 162
Width: 508
VWidth: 999
Flags: HW
HStem: -238 42<178.622 331.027> -12 68<200.45 373.262> 135 37<205.129 289.171> 409 35<196.474 280.87> 424 43<370.607 460> 536 48<103.823 402.922>
VStem: 38 94<-154.282 -55.8943> 62 106<210.3 365.373> 71 84<55.4643 131.752> 102 303<536.402 583.772> 316 108<211.187 370.331> 406 91<-121.914 -39.1241>
LayerCount: 2
Fore
SplineSet
385 535 m 2
 111 535 l 2
 100 535 96 544 96 553 c 0
 96 565 108 585 121 585 c 2
 397 585 l 2
 407 585 411 576 411 568 c 0
 411 555 399 535 385 535 c 2
312 284 m 0
 312 363 280 409 233 409 c 0
 194 409 164 375 164 301 c 0
 164 250 184 172 246 172 c 0
 272 172 312 188 312 284 c 0
183 -15 m 0
 171 -15 160 -15 150 -11 c 1
 129 -33 128 -62 128 -96 c 0
 128 -167 203 -196 231 -196 c 0
 306 -196 402 -156 402 -81 c 0
 402 -15 301 -12 256 -12 c 0
 247 -12 238 -13 225 -14 c 0
 210 -15 194 -15 183 -15 c 0
447 383 m 0
 422 383 414 399 410 412 c 1
 407 418 404 424 395 424 c 0
 385 424 374 416 366 406 c 1
 400 378 420 343 420 287 c 0
 420 189 335 135 241 135 c 0
 210 135 178.5 140 157.5 150 c 1
 152.5 138 151 117 151 101 c 0
 151 61 178 49 196 49 c 0
 205 49 252 56 290 56 c 0
 453 56 493 -17 493 -55 c 0
 493 -165 342 -238 203 -238 c 0
 121 -238 34 -205 34 -116 c 0
 34 -77 63 -34 115 1 c 1
 87 18 67 42 67 74 c 0
 67 105 89 138.5 119 166.5 c 1
 82 192 58 243 58 292 c 0
 58 385 146 444 242 444 c 0
 287 444 318 435 336 425 c 1
 365 451 410 467 437 467 c 0
 475 467 491 442 491 423 c 0
 491 399 475 383 447 383 c 0
EndSplineSet
LCarets2: 1 0 
EndChar

StartChar: uni1E22
Encoding: 7714 7714 163
Width: 723
VWidth: 999
Flags: HW
HStem: -2 34<24 92.7241 229.184 297 427 495.724 632.184 700> 321 46<222 502> 613 34<24 92.7241 229.184 297 427 495.724 632.184 700> 686 120<319.745 412.255>
VStem: 99 123<37.5094 321 367 607.491> 306 120<699.745 792.255> 502 123<37.5094 321 367 607.491>
LayerCount: 2
Fore
SplineSet
502 569 m 2
 502 601 487 613 447 613 c 2
 433 613 l 2
 429 613 425 616 425 621 c 2
 425 645 l 1
 427 647 l 1
 427 647 524 645 563 645 c 0
 599 645 700 647 700 647 c 1
 702 645 l 1
 702 621 l 2
 702 616 699 613 694 613 c 2
 680 613 l 2
 639 613 625 597 625 569 c 2
 625 76 l 2
 625 48 639 32 680 32 c 2
 694 32 l 2
 699 32 702 29 702 23 c 2
 702 0 l 1
 700 -2 l 1
 700 -2 599 0 563 0 c 0
 524 0 427 -2 427 -2 c 1
 425 0 l 1
 425 23 l 2
 425 29 429 32 433 32 c 2
 447 32 l 2
 487 32 502 44 502 76 c 2
 502 321 l 1
 222 321 l 1
 222 76 l 2
 222 48 236 32 277 32 c 2
 291 32 l 2
 296 32 299 29 299 23 c 2
 299 0 l 1
 297 -2 l 1
 297 -2 196 0 160 0 c 0
 121 0 24 -2 24 -2 c 1
 22 0 l 1
 22 23 l 2
 22 29 26 32 30 32 c 2
 44 32 l 2
 84 32 99 44 99 76 c 2
 99 569 l 2
 99 601 84 613 44 613 c 2
 30 613 l 2
 26 613 22 616 22 621 c 2
 22 645 l 1
 24 647 l 1
 24 647 121 645 160 645 c 0
 196 645 297 647 297 647 c 1
 299 645 l 1
 299 621 l 2
 299 616 296 613 291 613 c 2
 277 613 l 2
 236 613 222 597 222 569 c 2
 222 367 l 1
 502 367 l 1
 502 569 l 2
304 746 m 0
 304 780 332 808 366 808 c 0
 400 808 428 780 428 746 c 0
 428 712 400 684 366 684 c 0
 332 684 304 712 304 746 c 0
EndSplineSet
LCarets2: 1 0 
EndChar

StartChar: uni1E23
Encoding: 7715 7715 164
Width: 550
VWidth: 999
Flags: HW
HStem: -2 34<19 37 517 534> 390 55<268.267 393> 512 120<253.745 346.255> 638 34<17.016 55> 678 20<169.465 186.5>
VStem: 85 110<43.2797 355.227 381 635.227> 240 120<525.745 618.255> 358 110<43.1478 384.199>
LayerCount: 2
Fore
SplineSet
238 572 m 0
 238 606 266 634 300 634 c 0
 334 634 362 606 362 572 c 0
 362 538 334 510 300 510 c 0
 266 510 238 538 238 572 c 0
468 77 m 2
 468 49 484.4 39.9 517 34 c 2
 528 32 l 2
 531.9 31.3 536 29 536 23 c 2
 536 0 l 1
 534 -2 l 1
 534 -2 450 0 411 0 c 0
 376 0 297 -2 297 -2 c 1
 295 0 l 1
 295 23 l 2
 295 29 298.1 31.2 303 32 c 2
 310 34 l 2
 340.8 42.8 358 49 358 77 c 2
 358 295 l 2
 358 373 348 390 308 390 c 0
 290 390 241 374 195 341 c 1
 195 77 l 2
 195 49 212.1 43.1 244 34 c 2
 251 32 l 2
 254.9 31.3 259 29 259 23 c 2
 259 0 l 1
 257 -2 l 1
 257 -2 177 0 138 0 c 0
 103 0 19 -2 19 -2 c 1
 17 0 l 1
 17 23 l 2
 17 29 20.1 31.2 25 32 c 2
 37 34 l 2
 68.6 39.3 85 49 85 77 c 2
 85 563 l 2
 85 628 75 636 55 636 c 1
 23 638 l 2
 19.8 638.2 17.3 640 17 643 c 2
 14 672 l 1
 54.5 675 156.9 688 182 698 c 1
 191 698 198 695 198 688 c 2
 198 688 195 648 195 583 c 2
 195 381 l 1
 250 422 313 445 350 445 c 0
 436 445 468 389 468 284 c 2
 468 77 l 2
EndSplineSet
LCarets2: 1 0 
EndChar

StartChar: uni1E24
Encoding: 7716 7716 165
Width: 723
VWidth: 999
Flags: HW
HStem: -174 120<319.745 412.255> -2 34<24 92.7241 229.184 297 427 495.724 632.184 700> 321 46<222 502> 613 34<24 92.7241 229.184 297 427 495.724 632.184 700>
VStem: 99 123<37.5094 321 367 607.491> 306 120<-160.255 -67.745> 502 123<37.5094 321 367 607.491>
LayerCount: 2
Fore
SplineSet
502 569 m 2
 502 601 487 613 447 613 c 2
 433 613 l 2
 429 613 425 616 425 621 c 2
 425 645 l 1
 427 647 l 1
 427 647 524 645 563 645 c 0
 599 645 700 647 700 647 c 1
 702 645 l 1
 702 621 l 2
 702 616 699 613 694 613 c 2
 680 613 l 2
 639 613 625 597 625 569 c 2
 625 76 l 2
 625 48 639 32 680 32 c 2
 694 32 l 2
 699 32 702 29 702 23 c 2
 702 0 l 1
 700 -2 l 1
 700 -2 599 0 563 0 c 0
 524 0 427 -2 427 -2 c 1
 425 0 l 1
 425 23 l 2
 425 29 429 32 433 32 c 2
 447 32 l 2
 487 32 502 44 502 76 c 2
 502 321 l 1
 222 321 l 1
 222 76 l 2
 222 48 236 32 277 32 c 2
 291 32 l 2
 296 32 299 29 299 23 c 2
 299 0 l 1
 297 -2 l 1
 297 -2 196 0 160 0 c 0
 121 0 24 -2 24 -2 c 1
 22 0 l 1
 22 23 l 2
 22 29 26 32 30 32 c 2
 44 32 l 2
 84 32 99 44 99 76 c 2
 99 569 l 2
 99 601 84 613 44 613 c 2
 30 613 l 2
 26 613 22 616 22 621 c 2
 22 645 l 1
 24 647 l 1
 24 647 121 645 160 645 c 0
 196 645 297 647 297 647 c 1
 299 645 l 1
 299 621 l 2
 299 616 296 613 291 613 c 2
 277 613 l 2
 236 613 222 597 222 569 c 2
 222 367 l 1
 502 367 l 1
 502 569 l 2
304 -114 m 0
 304 -80 332 -52 366 -52 c 0
 400 -52 428 -80 428 -114 c 0
 428 -148 400 -176 366 -176 c 0
 332 -176 304 -148 304 -114 c 0
EndSplineSet
LCarets2: 1 0 
EndChar

StartChar: uni1E25
Encoding: 7717 7717 166
Width: 550
VWidth: 999
Flags: HW
HStem: -175 120<225.745 318.255> -2 34<19 37 517 534> 390 55<268.267 393> 638 34<17.016 55> 678 20<169.465 186.5>
VStem: 85 110<43.2797 355.227 381 635.227> 212 120<-161.255 -68.745> 358 110<43.1478 384.199>
LayerCount: 2
Fore
SplineSet
210 -115 m 0
 210 -81 238 -53 272 -53 c 0
 306 -53 334 -81 334 -115 c 0
 334 -149 306 -177 272 -177 c 0
 238 -177 210 -149 210 -115 c 0
468 77 m 2
 468 49 484.4 39.9 517 34 c 2
 528 32 l 2
 531.9 31.3 536 29 536 23 c 2
 536 0 l 1
 534 -2 l 1
 534 -2 450 0 411 0 c 0
 376 0 297 -2 297 -2 c 1
 295 0 l 1
 295 23 l 2
 295 29 298.1 31.2 303 32 c 2
 310 34 l 2
 340.8 42.8 358 49 358 77 c 2
 358 295 l 2
 358 373 348 390 308 390 c 0
 290 390 241 374 195 341 c 1
 195 77 l 2
 195 49 212.1 43.1 244 34 c 2
 251 32 l 2
 254.9 31.3 259 29 259 23 c 2
 259 0 l 1
 257 -2 l 1
 257 -2 177 0 138 0 c 0
 103 0 19 -2 19 -2 c 1
 17 0 l 1
 17 23 l 2
 17 29 20.1 31.2 25 32 c 2
 37 34 l 2
 68.6 39.3 85 49 85 77 c 2
 85 563 l 2
 85 628 75 636 55 636 c 1
 23 638 l 2
 19.8 638.2 17.3 640 17 643 c 2
 14 672 l 1
 54.5 675 156.9 688 182 698 c 1
 191 698 198 695 198 688 c 2
 198 688 195 648 195 583 c 2
 195 381 l 1
 250 422 313 445 350 445 c 0
 436 445 468 389 468 284 c 2
 468 77 l 2
EndSplineSet
LCarets2: 1 0 
EndChar

StartChar: uni1E26
Encoding: 7718 7718 167
Width: 723
VWidth: 999
Flags: HW
HStem: -2 34<24 92.7241 229.184 297 427 495.724 632.184 700> 321 46<222 502> 613 34<24 92.7241 229.184 297 427 495.724 632.184 700> 693 107<212.676 298.685 400.676 487.03>
VStem: 99 123<37.5094 321 367 607.491> 202 107<703.609 789.324> 390 108<704.388 788.537> 502 123<37.5094 321 367 607.491>
LayerCount: 2
Fore
SplineSet
502 569 m 2
 502 601 487 613 447 613 c 2
 433 613 l 2
 429 613 425 616 425 621 c 2
 425 645 l 1
 427 647 l 1
 427 647 524 645 563 645 c 0
 599 645 700 647 700 647 c 1
 702 645 l 1
 702 621 l 2
 702 616 699 613 694 613 c 2
 680 613 l 2
 639 613 625 597 625 569 c 2
 625 76 l 2
 625 48 639 32 680 32 c 2
 694 32 l 2
 699 32 702 29 702 23 c 2
 702 0 l 1
 700 -2 l 1
 700 -2 599 0 563 0 c 0
 524 0 427 -2 427 -2 c 1
 425 0 l 1
 425 23 l 2
 425 29 429 32 433 32 c 2
 447 32 l 2
 487 32 502 44 502 76 c 2
 502 321 l 1
 222 321 l 1
 222 76 l 2
 222 48 236 32 277 32 c 2
 291 32 l 2
 296 32 299 29 299 23 c 2
 299 0 l 1
 297 -2 l 1
 297 -2 196 0 160 0 c 0
 121 0 24 -2 24 -2 c 1
 22 0 l 1
 22 23 l 2
 22 29 26 32 30 32 c 2
 44 32 l 2
 84 32 99 44 99 76 c 2
 99 569 l 2
 99 601 84 613 44 613 c 2
 30 613 l 2
 26 613 22 616 22 621 c 2
 22 645 l 1
 24 647 l 1
 24 647 121 645 160 645 c 0
 196 645 297 647 297 647 c 1
 299 645 l 1
 299 621 l 2
 299 616 296 613 291 613 c 2
 277 613 l 2
 236 613 222 597 222 569 c 2
 222 367 l 1
 502 367 l 1
 502 569 l 2
202 746 m 0
 202 776 226 800 256 800 c 0
 286 800 309 776 309 746 c 0
 309 716 286 693 256 693 c 0
 226 693 202 716 202 746 c 0
390 746 m 0
 390 776 414 800 444 800 c 0
 474 800 497 776 497 746 c 0
 497 716 474 693 444 693 c 0
 414 693 390 716 390 746 c 0
EndSplineSet
LCarets2: 1 0 
EndChar

StartChar: uni1E27
Encoding: 7719 7719 168
Width: 550
VWidth: 999
Flags: HW
HStem: -2 34<19 37 517 534> 390 55<268.267 393> 517 108<230.772 315.537 371.274 454.403> 638 34<17.016 55> 678 20<169.465 186.5>
VStem: 85 110<43.2797 355.227 381 635.227> 219 108<528.772 613.228> 358 110<43.1478 384.199> 359 108<530.463 614.612>
LayerCount: 2
Fore
SplineSet
359 573 m 0
 359 602 383 626 413 626 c 0
 442 626 467 602 467 573 c 0
 467 543 442 519 413 519 c 0
 383 519 359 543 359 573 c 0
219 571 m 0
 219 600 244 625 273 625 c 0
 303 625 327 600 327 571 c 0
 327 542 303 517 273 517 c 0
 244 517 219 542 219 571 c 0
468 77 m 2
 468 49 484.4 39.9 517 34 c 2
 528 32 l 2
 531.9 31.3 536 29 536 23 c 2
 536 0 l 1
 534 -2 l 1
 534 -2 450 0 411 0 c 0
 376 0 297 -2 297 -2 c 1
 295 0 l 1
 295 23 l 2
 295 29 298.1 31.2 303 32 c 2
 310 34 l 2
 340.8 42.8 358 49 358 77 c 2
 358 295 l 2
 358 373 348 390 308 390 c 0
 290 390 241 374 195 341 c 1
 195 77 l 2
 195 49 212.1 43.1 244 34 c 2
 251 32 l 2
 254.9 31.3 259 29 259 23 c 2
 259 0 l 1
 257 -2 l 1
 257 -2 177 0 138 0 c 0
 103 0 19 -2 19 -2 c 1
 17 0 l 1
 17 23 l 2
 17 29 20.1 31.2 25 32 c 2
 37 34 l 2
 68.6 39.3 85 49 85 77 c 2
 85 563 l 2
 85 628 75 636 55 636 c 1
 23 638 l 2
 19.8 638.2 17.3 640 17 643 c 2
 14 672 l 1
 54.5 675 156.9 688 182 698 c 1
 191 698 198 695 198 688 c 2
 198 688 195 648 195 583 c 2
 195 381 l 1
 250 422 313 445 350 445 c 0
 436 445 468 389 468 284 c 2
 468 77 l 2
EndSplineSet
LCarets2: 1 0 
EndChar

StartChar: uni1E28
Encoding: 7720 7720 169
Width: 723
VWidth: 999
Flags: HW
HStem: -177 25<83.659 180.933> -76 32<153.31 190.165> -2 34<24 92.7241 229.184 297 427 495.724 632.184 700> 321 46<222 502> 613 34<24 92.7241 229.184 297 427 495.724 632.184 700>
VStem: 99 123<37.5094 321 367 607.491> 197 53<-142.949 -80.278> 502 123<37.5094 321 367 607.491>
DStem2: 104 -76 153 -47 0.397156 0.917751<46.0754 95.3334>
LayerCount: 2
Fore
SplineSet
502 569 m 2
 502 601 487 613 447 613 c 2
 433 613 l 2
 429 613 425 616 425 621 c 2
 425 645 l 1
 427 647 l 1
 427 647 524 645 563 645 c 0
 599 645 700 647 700 647 c 1
 702 645 l 1
 702 621 l 2
 702 616 699 613 694 613 c 2
 680 613 l 2
 639 613 625 597 625 569 c 2
 625 76 l 2
 625 48 639 32 680 32 c 2
 694 32 l 2
 699 32 702 29 702 23 c 2
 702 0 l 1
 700 -2 l 1
 700 -2 599 0 563 0 c 0
 524 0 427 -2 427 -2 c 1
 425 0 l 1
 425 23 l 2
 425 29 429 32 433 32 c 2
 447 32 l 2
 487 32 502 44 502 76 c 2
 502 321 l 1
 222 321 l 1
 222 76 l 2
 222 48 236 32 277 32 c 2
 291 32 l 2
 296 32 299 29 299 23 c 2
 299 0 l 1
 297 -2 l 1
 297 -2 215.5 -0.4 172.8 -0.1 c 1
 155.4 -46 l 1
 163.4 -44 178.4 -44 187.4 -44 c 0
 227.4 -44 260 -64 260 -102 c 0
 260 -155 200.4 -184.5 139.4 -184.5 c 0
 107.4 -184.5 92.4 -178.5 67.4 -167.5 c 1
 79 -141 l 1
 106 -151 117 -155 137 -155 c 0
 167 -155 187 -141 187 -114 c 0
 187 -95 163.9 -79 145 -79 c 0
 126 -79 116 -80 100 -85 c 1
 94 -79 l 1
 136.9 -0.1 l 1
 91.9 -0.6 24 -2 24 -2 c 2
 22 0 l 1
 22 23 l 2
 22 29 26 32 30 32 c 2
 44 32 l 2
 84 32 99 44 99 76 c 2
 99 569 l 2
 99 601 84 613 44 613 c 2
 30 613 l 2
 26 613 22 616 22 621 c 2
 22 645 l 1
 24 647 l 1
 24 647 121 645 160 645 c 0
 196 645 297 647 297 647 c 1
 299 645 l 1
 299 621 l 2
 299 616 296 613 291 613 c 2
 277 613 l 2
 236 613 222 597 222 569 c 2
 222 367 l 1
 502 367 l 1
 502 569 l 2
EndSplineSet
LCarets2: 1 0 
EndChar

StartChar: uni1E29
Encoding: 7721 7721 170
Width: 550
VWidth: 999
Flags: HW
HStem: -175 25<54.659 151.933> -74 32<124.31 161.165> -2 34<19 37 517 534> 390 55<268.267 393> 638 34<17.016 55> 678 20<169.465 186.5>
VStem: 85 110<43.2797 355.227 381 635.227> 168 53<-140.949 -78.278> 358 110<43.1478 384.199>
DStem2: 75 -74 124 -45 0.397156 0.917751<46.0754 95.3334>
LayerCount: 2
Fore
SplineSet
116 -77 m 0
 97 -77 87 -78 71 -83 c 1
 65 -77 l 1
 106.8 -0.3 l 1
 68.1 -0.9 19 -2 19 -2 c 1
 17 0 l 1
 17 23 l 2
 17 29 20.1 31.2 25 32 c 2
 37 34 l 2
 68.6 39.3 85 49 85 77 c 2
 85 563 l 2
 85 628 75 636 55 636 c 1
 23 638 l 2
 19.8 638.2 17.3 640 17 643 c 2
 14 672 l 1
 54.5 675 156.9 688 182 698 c 1
 191 698 198 695 198 688 c 2
 198 688 195 648 195 583 c 2
 195 381 l 1
 250 422 313 445 350 445 c 0
 436 445 468 389 468 284 c 2
 468 77 l 2
 468 49 484.4 39.9 517 34 c 2
 528 32 l 2
 531.9 31.3 536 29 536 23 c 2
 536 0 l 1
 534 -2 l 1
 534 -2 450 0 411 0 c 0
 376 0 297 -2 297 -2 c 1
 295 0 l 1
 295 23 l 2
 295 29 298.1 31.2 303 32 c 2
 310 34 l 2
 340.8 42.8 358 49 358 77 c 2
 358 295 l 2
 358 373 348 390 308 390 c 0
 290 390 241 374 195 341 c 1
 195 77 l 2
 195 49 212.1 43.1 244 34 c 2
 251 32 l 2
 254.9 31.3 259 29 259 23 c 2
 259 0 l 1
 257 -2 l 1
 257 -2 183.5 -0.2 143.1 -0 c 1
 126.4 -44 l 1
 134.4 -42 149.4 -42 158.4 -42 c 0
 198.4 -42 231 -62 231 -100 c 0
 231 -153 171.4 -182.5 110.4 -182.5 c 0
 78.4 -182.5 63.4 -176.5 38.4 -165.5 c 1
 50 -139 l 1
 77 -149 88 -153 108 -153 c 0
 138 -153 158 -139 158 -112 c 0
 158 -93 134.9 -77 116 -77 c 0
EndSplineSet
LCarets2: 1 0 
EndChar

StartChar: uni1E2A
Encoding: 7722 7722 171
Width: 723
VWidth: 999
Flags: HW
HStem: -202 62<288.853 423.87> -2 34<24 92.7241 229.184 297 427 495.724 632.184 700> 321 46<222 502> 613 34<24 92.7241 229.184 297 427 495.724 632.184 700>
VStem: 99 123<37.5094 321 367 607.491> 221 32<-95.7216 -60.9375> 460 31<-94.8791 -60.8387> 502 123<37.5094 321 367 607.491>
LayerCount: 2
Fore
SplineSet
502 569 m 2
 502 601 487 613 447 613 c 2
 433 613 l 2
 429 613 425 616 425 621 c 2
 425 645 l 1
 427 647 l 1
 427 647 524 645 563 645 c 0
 599 645 700 647 700 647 c 1
 702 645 l 1
 702 621 l 2
 702 616 699 613 694 613 c 2
 680 613 l 2
 639 613 625 597 625 569 c 2
 625 76 l 2
 625 48 639 32 680 32 c 2
 694 32 l 2
 699 32 702 29 702 23 c 2
 702 0 l 1
 700 -2 l 1
 700 -2 599 0 563 0 c 0
 524 0 427 -2 427 -2 c 1
 425 0 l 1
 425 23 l 2
 425 29 429 32 433 32 c 2
 447 32 l 2
 487 32 502 44 502 76 c 2
 502 321 l 1
 222 321 l 1
 222 76 l 2
 222 48 236 32 277 32 c 2
 291 32 l 2
 296 32 299 29 299 23 c 2
 299 0 l 1
 297 -2 l 1
 297 -2 196 0 160 0 c 0
 121 0 24 -2 24 -2 c 1
 22 0 l 1
 22 23 l 2
 22 29 26 32 30 32 c 2
 44 32 l 2
 84 32 99 44 99 76 c 2
 99 569 l 2
 99 601 84 613 44 613 c 2
 30 613 l 2
 26 613 22 616 22 621 c 2
 22 645 l 1
 24 647 l 1
 24 647 121 645 160 645 c 0
 196 645 297 647 297 647 c 1
 299 645 l 1
 299 621 l 2
 299 616 296 613 291 613 c 2
 277 613 l 2
 236 613 222 597 222 569 c 2
 222 367 l 1
 502 367 l 1
 502 569 l 2
249 -47 m 1
 251 -101 294 -141 357 -141 c 0
 404 -141 461 -111 464 -47 c 1
 496 -62 l 1
 486 -167 408 -205 357 -205 c 0
 276 -205 223 -143 216 -62 c 1
 249 -47 l 1
EndSplineSet
LCarets2: 1 0 
EndChar

StartChar: uni1E2B
Encoding: 7723 7723 172
Width: 550
VWidth: 999
Flags: HW
HStem: -212 62<223.853 358.87> -2 34<19 37 517 534> 390 55<268.267 393> 638 34<17.016 55> 678 20<169.465 186.5>
VStem: 85 110<43.2797 355.227 381 635.227> 156 32<-105.722 -70.9375> 358 110<43.1478 384.199> 395 31<-104.879 -70.8387>
LayerCount: 2
Fore
SplineSet
184 -57 m 1
 186 -111 229 -151 292 -151 c 0
 339 -151 396 -121 399 -57 c 1
 431 -72 l 1
 421 -177 343 -215 292 -215 c 0
 211 -215 158 -153 151 -72 c 1
 184 -57 l 1
468 77 m 2
 468 49 484.4 39.9 517 34 c 2
 528 32 l 2
 531.9 31.3 536 29 536 23 c 2
 536 0 l 1
 534 -2 l 1
 534 -2 450 0 411 0 c 0
 376 0 297 -2 297 -2 c 1
 295 0 l 1
 295 23 l 2
 295 29 298.1 31.2 303 32 c 2
 310 34 l 2
 340.8 42.8 358 49 358 77 c 2
 358 295 l 2
 358 373 348 390 308 390 c 0
 290 390 241 374 195 341 c 1
 195 77 l 2
 195 49 212.1 43.1 244 34 c 2
 251 32 l 2
 254.9 31.3 259 29 259 23 c 2
 259 0 l 1
 257 -2 l 1
 257 -2 177 0 138 0 c 0
 103 0 19 -2 19 -2 c 1
 17 0 l 1
 17 23 l 2
 17 29 20.1 31.2 25 32 c 2
 37 34 l 2
 68.6 39.3 85 49 85 77 c 2
 85 563 l 2
 85 628 75 636 55 636 c 1
 23 638 l 2
 19.8 638.2 17.3 640 17 643 c 2
 14 672 l 1
 54.5 675 156.9 688 182 698 c 1
 191 698 198 695 198 688 c 2
 198 688 195 648 195 583 c 2
 195 381 l 1
 250 422 313 445 350 445 c 0
 436 445 468 389 468 284 c 2
 468 77 l 2
EndSplineSet
EndChar

StartChar: uni1E2C
Encoding: 7724 7724 173
Width: 319
VWidth: 999
Flags: HW
HStem: -174 58<179 262.543> -120 59<60.7435 147.285> -2 34<24 92.7241 228.184 296> 613 34<24 92.7241 228.184 296>
VStem: 25 25<-165.24 -139.955> 99 122<37.5094 607.491> 276 26<-93.131 -67.308>
LayerCount: 2
Fore
SplineSet
231 -116 m 0
 253 -116 266 -107 280 -58 c 1
 308 -68 l 1
 295 -136 265 -176 217 -176 c 0
 194 -176 172 -161 152 -146 c 1
 132 -133 112 -120 94 -120 c 0
 67 -120 56 -135 45 -173 c 1
 19 -165 l 1
 33 -97 57 -59 102 -59 c 0
 133 -59 156 -75 176 -91 c 0
 194 -105 211 -116 231 -116 c 0
221 76 m 2
 221 48 235 32 276 32 c 2
 290 32 l 2
 295 32 298 29 298 23 c 2
 298 0 l 1
 296 -2 l 1
 296 -2 196 0 160 0 c 0
 121 0 24 -2 24 -2 c 1
 22 0 l 1
 22 23 l 2
 22 29 26 32 30 32 c 2
 44 32 l 2
 84 32 99 44 99 76 c 2
 99 569 l 2
 99 601 84 613 44 613 c 2
 30 613 l 2
 26 613 22 616 22 621 c 2
 22 645 l 1
 24 647 l 1
 24 647 121 645 160 645 c 0
 196 645 296 647 296 647 c 1
 298 645 l 1
 298 621 l 2
 298 616 295 613 290 613 c 2
 276 613 l 2
 235 613 221 597 221 569 c 2
 221 76 l 2
EndSplineSet
LCarets2: 1 0 
EndChar

StartChar: uni1E2D
Encoding: 7725 7725 174
Width: 286
VWidth: 999
Flags: HW
HStem: -174 58<165 248.543> -120 59<46.7435 133.285> -2 34<37 54 258 274> 387 30<38 79> 427 20<191.25 208.219> 511 120<108.745 201.255>
VStem: 11 25<-165.24 -139.955> 101 110<41.5278 383 522.108 619.892> 262 26<-93.131 -67.308>
LayerCount: 2
Fore
SplineSet
217 -116 m 0
 239 -116 252 -107 266 -58 c 1
 294 -68 l 1
 281 -136 251 -176 203 -176 c 0
 180 -176 158 -161 138 -146 c 1
 118 -133 98 -120 80 -120 c 0
 53 -120 42 -135 31 -173 c 1
 5 -165 l 1
 19 -97 43 -59 88 -59 c 0
 119 -59 142 -75 162 -91 c 0
 180 -105 197 -116 217 -116 c 0
211 321.3 m 2
 211 77 l 2
 211 49 228.4 39.9 258 34 c 2
 268 32 l 2
 271.9 31.1 276 29 276 23 c 2
 276 0 l 1
 274 -2 l 1
 274 -2 193 0 154 0 c 0
 118 0 37 -2 37 -2 c 1
 35 0 l 1
 35 23 l 2
 35 29 38.1 31.3 42 32 c 2
 54 34 l 2
 85 39.2 101 49 101 77 c 2
 101 321 l 2
 101 371 93 382 79 383 c 2
 38 387 l 1
 36 417 l 1
 105.5 426.5 175.5 437 207 447 c 0
 209.4 447 214 446.4 214 444 c 2
 214 444 211 371.3 211 321.3 c 2
95 571 m 0
 95 604 122 631 155 631 c 0
 188 631 215 604 215 571 c 0
 215 538 188 511 155 511 c 0
 122 511 95 538 95 571 c 0
EndSplineSet
LCarets2: 1 0 
EndChar

StartChar: uni1E2E
Encoding: 7726 7726 175
Width: 319
VWidth: 999
Flags: HW
HStem: -2 34<24 92.7241 228.184 296> 613 34<24 92.7241 228.184 296> 693 107<9.67596 95.6851 197.676 284.03>
VStem: -1 107<703.609 789.324> 99 122<37.5094 607.491> 187 108<704.388 788.537>
LayerCount: 2
Fore
SplineSet
225.1 889.8 m 1
 272.8 844.1 l 1
 162 793 l 2
 145.8 785.1 135.8 782.5 128.9 782.5 c 0
 122 782.5 118.1 786.9 118.1 795.7 c 0
 118.1 801.9 119.6 806.3 129.6 814.2 c 2
 225.1 889.8 l 1
221 76 m 2
 221 48 235 32 276 32 c 2
 290 32 l 2
 295 32 298 29 298 23 c 2
 298 0 l 1
 296 -2 l 1
 296 -2 196 0 160 0 c 0
 121 0 24 -2 24 -2 c 1
 22 0 l 1
 22 23 l 2
 22 29 26 32 30 32 c 2
 44 32 l 2
 84 32 99 44 99 76 c 2
 99 569 l 2
 99 601 84 613 44 613 c 2
 30 613 l 2
 26 613 22 616 22 621 c 2
 22 645 l 1
 24 647 l 1
 24 647 121 645 160 645 c 0
 196 645 296 647 296 647 c 1
 298 645 l 1
 298 621 l 2
 298 616 295 613 290 613 c 2
 276 613 l 2
 235 613 221 597 221 569 c 2
 221 76 l 2
12 758 m 0
 12 788 36 812 66 812 c 0
 96 812 119 788 119 758 c 0
 119 728 96 705 66 705 c 0
 36 705 12 728 12 758 c 0
200 758 m 0
 200 788 224 812 254 812 c 0
 284 812 307 788 307 758 c 0
 307 728 284 705 254 705 c 0
 224 705 200 728 200 758 c 0
EndSplineSet
LCarets2: 1 0 
EndChar

StartChar: uni1E2F
Encoding: 7727 7727 176
Width: 286
VWidth: 999
Flags: HW
HStem: -2 34<37 54 258 274> 383 34<38 79> 427 20<191.25 208.219> 518 107<4.9699 91.324 185.676 272.03>
VStem: -6 108<529.388 613.537> 101 110<41.5278 379> 175 108<529.388 613.537>
LayerCount: 2
Fore
SplineSet
186.2 742.7 m 1
 188.5 743.6 194.7 744.4 198.5 744.4 c 0
 221.6 744.4 236.2 732.1 242.4 723.3 c 1
 250.1 703.1 l 1
 157.7 608 l 2
 146.9 597.4 136.2 594 128.5 594 c 0
 122.3 594 116.1 601 116.1 606.3 c 0
 116.1 611.6 117.7 619.5 122.3 627.4 c 2
 186.2 742.7 l 1
175 571 m 0
 175 601 199 625 229 625 c 0
 258 625 283 601 283 571 c 0
 283 542 258 518 229 518 c 0
 199 518 175 542 175 571 c 0
-6 571 m 0
 -6 601 19 625 48 625 c 0
 78 625 102 601 102 571 c 0
 102 542 78 518 48 518 c 0
 19 518 -6 542 -6 571 c 0
211 321.3 m 2
 211 77 l 2
 211 49 228.4 39.9 258 34 c 2
 268 32 l 2
 271.9 31.1 276 29 276 23 c 2
 276 0 l 1
 274 -2 l 1
 274 -2 193 0 154 0 c 0
 118 0 37 -2 37 -2 c 1
 35 0 l 1
 35 23 l 2
 35 29 38.1 31.3 42 32 c 2
 54 34 l 2
 85 39.2 101 49 101 77 c 2
 101 321 l 2
 101 371 93.4 377.6 79 379 c 2
 38 383 l 1
 36 417 l 1
 105.5 426.5 175.5 437 207 447 c 0
 209.4 447 214 446.4 214 444 c 2
 214 444 211 371.3 211 321.3 c 2
EndSplineSet
LCarets2: 1 0 
EndChar

